<?xml version="1.0" encoding="utf-8"?>
<!-- Generator: Adobe Illustrator 16.0.0, SVG Export Plug-In . SVG Version: 6.00 Build 0)  -->
<!DOCTYPE svg PUBLIC "-//W3C//DTD SVG 1.1//EN" "http://www.w3.org/Graphics/SVG/1.1/DTD/svg11.dtd">
<svg version="1.1"
	 id="Calque_1" xmlns:dc="http://purl.org/dc/elements/1.1/" xmlns:cc="http://creativecommons.org/ns#" xmlns:rdf="http://www.w3.org/1999/02/22-rdf-syntax-ns#"
	 xmlns="http://www.w3.org/2000/svg" xmlns:xlink="http://www.w3.org/1999/xlink" x="0px" y="0px" width="1133.857px"
	 height="1105.512px" viewBox="0 0 1133.857 1105.512" enable-background="new 0 0 1133.857 1105.512" xml:space="preserve">
<title>ElectronicsBox</title>
<g>
	<g>
		<path fill="none" stroke="#000000" stroke-width="0.2" stroke-miterlimit="10" d="M860.485,201.508h35.433h35.434
			c0.154,0,0.287-0.122,0.287-0.288l0,0"/>
		<path fill="none" stroke="#0000FF" stroke-width="0.2" stroke-miterlimit="10" d="M907.731,175.043c3.399,0,3.399,5.104,0,5.104
			C904.333,180.146,904.333,175.043,907.731,175.043"/>
		<path fill="none" stroke="#000000" stroke-width="0.2" stroke-miterlimit="10" d="M931.637,201.22v-35.435v-35.433
			c0-0.155-0.121-0.288-0.287-0.288c-0.078,0-0.145,0.033-0.198,0.078l-70.866,70.866c-0.057,0.055-0.078,0.122-0.078,0.198
			c0,0.156,0.122,0.289,0.288,0.289"/>
	</g>
	<g>
		<path fill="none" stroke="#000000" stroke-width="0.2" stroke-miterlimit="10" d="M919.183,133.06h-35.433h-35.433
			c-0.155,0-0.288,0.122-0.288,0.288l0,0"/>
		<path fill="none" stroke="#0000FF" stroke-width="0.2" stroke-miterlimit="10" d="M871.935,159.523c-3.398,0-3.398-5.104,0-5.104
			C875.335,154.419,875.336,159.523,871.935,159.523"/>
		<path fill="none" stroke="#000000" stroke-width="0.2" stroke-miterlimit="10" d="M848.03,133.348v35.434v35.434
			c0,0.154,0.122,0.287,0.288,0.287c0.076,0,0.144-0.032,0.198-0.077l70.866-70.866c0.056-0.055,0.077-0.122,0.077-0.199
			c0-0.155-0.121-0.288-0.287-0.288"/>
	</g>
	<g>
		<path fill="none" stroke="#000000" stroke-width="0.2" stroke-miterlimit="10" d="M771.177,286.953h35.433h35.434
			c0.154,0,0.287-0.121,0.287-0.287l0,0"/>
		<path fill="none" stroke="#0000FF" stroke-width="0.2" stroke-miterlimit="10" d="M818.423,260.488c3.399,0,3.399,5.104,0,5.104
			C815.024,265.592,815.024,260.488,818.423,260.488"/>
		<path fill="none" stroke="#000000" stroke-width="0.2" stroke-miterlimit="10" d="M842.329,286.666v-35.434v-35.434
			c0-0.154-0.121-0.288-0.287-0.288c-0.078,0-0.145,0.033-0.198,0.078l-70.866,70.866c-0.057,0.055-0.078,0.121-0.078,0.199
			c0,0.154,0.122,0.287,0.288,0.287"/>
	</g>
	<g>
		<path fill="none" stroke="#000000" stroke-width="0.2" stroke-miterlimit="10" d="M831.875,215.505h-35.434H761.01
			c-0.155,0-0.288,0.122-0.288,0.288l0,0"/>
		<path fill="none" stroke="#0000FF" stroke-width="0.2" stroke-miterlimit="10" d="M784.627,241.969c-3.398,0-3.398-5.104,0-5.104
			C788.026,236.865,788.027,241.969,784.627,241.969"/>
		<path fill="none" stroke="#000000" stroke-width="0.2" stroke-miterlimit="10" d="M760.721,215.793v35.435v35.432
			c0,0.156,0.122,0.289,0.288,0.289c0.076,0,0.144-0.033,0.198-0.078l70.866-70.866c0.056-0.056,0.077-0.122,0.077-0.199
			c0-0.155-0.121-0.288-0.287-0.288"/>
	</g>
	<g>
		<path fill="none" stroke="#000000" stroke-width="0.2" stroke-miterlimit="10" d="M849.588,286.946h35.434h35.434
			c0.154,0,0.287-0.122,0.287-0.288l0,0"/>
		<path fill="none" stroke="#0000FF" stroke-width="0.2" stroke-miterlimit="10" d="M896.834,260.482c3.4,0,3.4,5.104,0,5.104
			C893.435,265.586,893.435,260.482,896.834,260.482"/>
		<path fill="none" stroke="#000000" stroke-width="0.2" stroke-miterlimit="10" d="M920.74,286.658v-35.433v-35.433
			c0-0.155-0.121-0.288-0.287-0.288c-0.078,0-0.145,0.033-0.199,0.078l-70.865,70.866c-0.057,0.055-0.078,0.122-0.078,0.199
			c0,0.155,0.121,0.288,0.287,0.288"/>
	</g>
	<g>
		<path fill="none" stroke="#000000" stroke-width="0.2" stroke-miterlimit="10" d="M920.466,205.248H885.03h-35.432
			c-0.156,0-0.289,0.122-0.289,0.288l0,0"/>
		<path fill="none" stroke="#0000FF" stroke-width="0.2" stroke-miterlimit="10" d="M873.218,231.712c-3.4,0-3.4-5.104,0-5.104
			C876.616,226.608,876.616,231.712,873.218,231.712"/>
		<path fill="none" stroke="#000000" stroke-width="0.2" stroke-miterlimit="10" d="M849.311,205.536v35.434v35.433
			c0,0.155,0.121,0.288,0.287,0.288c0.078,0,0.145-0.033,0.199-0.078l70.867-70.866c0.055-0.055,0.076-0.122,0.076-0.199
			c0-0.155-0.121-0.288-0.287-0.288"/>
	</g>
	<g>
		<path fill="none" stroke="#000000" stroke-width="0.2" stroke-miterlimit="10" d="M771.178,208.004h35.434h35.434
			c0.154,0,0.287-0.122,0.287-0.288l0,0"/>
		<path fill="none" stroke="#0000FF" stroke-width="0.2" stroke-miterlimit="10" d="M818.425,181.541c3.4,0,3.4,5.104,0,5.104
			C815.026,186.644,815.026,181.541,818.425,181.541"/>
		<path fill="none" stroke="#000000" stroke-width="0.2" stroke-miterlimit="10" d="M842.331,207.716v-35.434V136.85
			c0-0.155-0.121-0.288-0.287-0.288c-0.078,0-0.145,0.033-0.199,0.078l-70.865,70.866c-0.057,0.056-0.078,0.122-0.078,0.198
			c0,0.156,0.121,0.289,0.287,0.289"/>
	</g>
	<g>
		<path fill="none" stroke="#000000" stroke-width="0.2" stroke-miterlimit="10" d="M830.878,136.556h-35.434H760.01
			c-0.156,0-0.289,0.122-0.289,0.288l0,0"/>
		<path fill="none" stroke="#0000FF" stroke-width="0.2" stroke-miterlimit="10" d="M783.63,163.021c-3.4,0-3.4-5.105,0-5.105
			C787.028,157.916,787.028,163.021,783.63,163.021"/>
		<path fill="none" stroke="#000000" stroke-width="0.2" stroke-miterlimit="10" d="M759.723,136.844v35.435v35.433
			c0,0.155,0.121,0.288,0.287,0.288c0.078,0,0.145-0.033,0.199-0.078l70.867-70.866c0.055-0.056,0.076-0.122,0.076-0.198
			c0-0.156-0.121-0.289-0.287-0.289"/>
	</g>
</g>
<g>
	<g>
		<path fill="none" stroke="#0000FF" stroke-width="0.2" stroke-miterlimit="10" d="M52.441,592.854c0,5.294-7.938,5.294-7.938,0
			C44.503,587.561,52.441,587.561,52.441,592.854"/>
		<path fill="none" stroke="#000000" stroke-width="0.2" stroke-miterlimit="10" d="M48.477,612.984h34.016h28.347
			c0.155,0,0.288-0.122,0.288-0.288v-14.175c0,0.155-0.122,0.288-0.288,0.288h28.348c-0.155,0-0.288-0.12-0.288-0.288v14.175
			c0,0.154,0.122,0.288,0.288,0.288h28.346c0.155,0,0.288-0.122,0.288-0.288v-14.175c0,0.155-0.122,0.288-0.288,0.288h28.347
			c-0.154,0-0.288-0.12-0.288-0.288v14.175c0,0.154,0.122,0.288,0.288,0.288h28.348c0.154,0,0.288-0.122,0.288-0.288v-14.175
			c0,0.155-0.122,0.288-0.288,0.288h28.347c-0.155,0-0.288-0.12-0.288-0.288v14.175c0,0.154,0.122,0.288,0.288,0.288h28.346
			c0.155,0,0.288-0.122,0.288-0.288v-14.175c0,0.155-0.121,0.288-0.288,0.288h28.348c-0.154,0-0.288-0.12-0.288-0.288v14.175
			c0,0.154,0.122,0.288,0.288,0.288h28.347c0.155,0,0.288-0.122,0.288-0.288v-14.175c0,0.155-0.122,0.288-0.288,0.288h28.347
			c-0.154,0-0.288-0.12-0.288-0.288v14.175c0,0.154,0.122,0.288,0.288,0.288h28.348c0.153,0,0.286-0.122,0.286-0.288v-14.175
			c0,0.155-0.12,0.288-0.286,0.288h28.346c-0.155,0-0.288-0.12-0.288-0.288v14.175c0,0.154,0.122,0.288,0.288,0.288h28.347
			c0.155,0,0.288-0.122,0.288-0.288v-14.175c0,0.155-0.122,0.288-0.288,0.288h28.348c-0.155,0-0.288-0.12-0.288-0.288v14.175
			c0,0.154,0.122,0.288,0.288,0.288h28.346c0.155,0,0.288-0.122,0.288-0.288v-14.175c0,0.155-0.121,0.288-0.288,0.288h28.347
			c-0.153,0-0.288-0.12-0.288-0.288v14.175c0,0.154,0.122,0.288,0.288,0.288h28.348c0.154,0,0.288-0.122,0.288-0.288v-14.175
			c0,0.155-0.122,0.288-0.288,0.288h28.347c-0.155,0-0.288-0.12-0.288-0.288v14.175c0,0.154,0.122,0.288,0.288,0.288h28.346
			c0.155,0,0.288-0.122,0.288-0.288v-14.175c0,0.155-0.121,0.288-0.288,0.288h28.348c-0.154,0-0.288-0.12-0.288-0.288v14.175
			c0,0.154,0.122,0.288,0.288,0.288h28.347c0.155,0,0.288-0.122,0.288-0.288v-14.175c0,0.155-0.122,0.288-0.288,0.288h28.347
			c-0.154,0-0.288-0.12-0.288-0.288v14.175c0,0.154,0.122,0.288,0.288,0.288h28.348c0.153,0,0.286-0.122,0.286-0.288v-14.175
			c0,0.155-0.12,0.288-0.286,0.288h28.346c-0.154,0-0.287-0.12-0.287-0.288v14.175c0,0.154,0.121,0.288,0.287,0.288h28.347h34.017
			c3.531,0,6.998-0.932,10.064-2.702c3.057-1.771,5.604-4.309,7.363-7.363c1.771-3.057,2.702-6.533,2.702-10.065"/>
		<path fill="none" stroke="#0000FF" stroke-width="0.2" stroke-miterlimit="10" d="M825.171,588.89c5.292,0,5.292,7.929,0,7.929
			C819.888,596.817,819.888,588.89,825.171,588.89"/>
		<path fill="none" stroke="#0000FF" stroke-width="0.2" stroke-miterlimit="10" d="M805.327,556.003
			c0-0.154,0.134-0.288,0.288-0.288h-14.174c0.155,0,0.288,0.122,0.288,0.288v-28.347c0,0.154-0.122,0.288-0.288,0.288h14.174
			c-0.154,0-0.288-0.121-0.288-0.288V556.003"/>
		<path fill="none" stroke="#0000FF" stroke-width="0.2" stroke-miterlimit="10" d="M805.327,499.311
			c0-0.154,0.134-0.287,0.288-0.287h-14.174c0.155,0,0.288,0.121,0.288,0.287v-28.347c0,0.155-0.122,0.288-0.288,0.288h14.174
			c-0.154,0-0.288-0.122-0.288-0.288V499.311"/>
		<path fill="none" stroke="#0000FF" stroke-width="0.2" stroke-miterlimit="10" d="M805.327,442.617
			c0-0.155,0.134-0.288,0.288-0.288h-14.174c0.155,0,0.288,0.122,0.288,0.288V414.27c0,0.155-0.122,0.288-0.288,0.288h14.174
			c-0.154,0-0.288-0.12-0.288-0.288V442.617"/>
		<path fill="none" stroke="#0000FF" stroke-width="0.2" stroke-miterlimit="10" d="M805.327,385.925
			c0-0.155,0.134-0.288,0.288-0.288h-14.174c0.155,0,0.288,0.122,0.288,0.288v-28.347c0,0.155-0.122,0.288-0.288,0.288h14.174
			c-0.154,0-0.288-0.122-0.288-0.288V385.925"/>
		<path fill="none" stroke="#000000" stroke-width="0.2" stroke-miterlimit="10" d="M845.301,592.854V320.728
			c0-3.531-0.931-6.997-2.702-10.064c-1.771-3.056-4.308-5.604-7.363-7.363c-3.056-1.771-6.533-2.702-10.064-2.702"/>
		<path fill="none" stroke="#0000FF" stroke-width="0.2" stroke-miterlimit="10" d="M821.205,320.728c0-5.293,7.929-5.293,7.929,0
			C829.134,326.01,821.205,326.01,821.205,320.728"/>
		<path fill="none" stroke="#000000" stroke-width="0.2" stroke-miterlimit="10" d="M825.17,300.598h-34.017h-28.347
			c-0.154,0-0.287,0.121-0.287,0.287v14.174c0-0.154,0.121-0.287,0.287-0.287h-28.346c0.153,0,0.286,0.121,0.286,0.287v-14.174
			c0-0.153-0.12-0.287-0.286-0.287h-28.348c-0.155,0-0.288,0.121-0.288,0.287v14.174c0-0.154,0.122-0.287,0.288-0.287h-28.347
			c0.155,0,0.288,0.121,0.288,0.287v-14.174c0-0.153-0.122-0.287-0.288-0.287H649.42c-0.154,0-0.287,0.121-0.287,0.287v14.174
			c0-0.154,0.121-0.287,0.287-0.287h-28.347c0.154,0,0.287,0.121,0.287,0.287v-14.174c0-0.153-0.121-0.287-0.287-0.287h-28.347
			c-0.155,0-0.288,0.121-0.288,0.287v14.174c0-0.154,0.122-0.287,0.288-0.287H564.38c0.154,0,0.288,0.121,0.288,0.287v-14.174
			c0-0.153-0.122-0.287-0.288-0.287h-28.348c-0.153,0-0.287,0.121-0.287,0.287v14.174c0-0.154,0.121-0.287,0.287-0.287H507.69
			c0.154,0,0.287,0.121,0.287,0.287v-14.174c0-0.153-0.121-0.287-0.287-0.287h-28.347c-0.155,0-0.288,0.121-0.288,0.287v14.174
			c0-0.154,0.122-0.287,0.288-0.287h-28.348c0.155,0,0.288,0.121,0.288,0.287v-14.174c0-0.153-0.122-0.287-0.288-0.287H422.65
			c-0.155,0-0.288,0.121-0.288,0.287v14.174c0-0.154,0.122-0.287,0.288-0.287h-28.346c0.153,0,0.286,0.121,0.286,0.287v-14.174
			c0-0.153-0.12-0.287-0.286-0.287h-28.348c-0.154,0-0.288,0.121-0.288,0.287v14.174c0-0.154,0.122-0.287,0.288-0.287H337.61
			c0.155,0,0.288,0.121,0.288,0.287v-14.174c0-0.153-0.122-0.287-0.288-0.287h-28.347c-0.154,0-0.287,0.121-0.287,0.287v14.174
			c0-0.154,0.121-0.287,0.287-0.287h-28.347c0.154,0,0.287,0.121,0.287,0.287v-14.174c0-0.153-0.121-0.287-0.287-0.287H252.57
			c-0.155,0-0.288,0.121-0.288,0.287v14.174c0-0.154,0.122-0.287,0.288-0.287h-28.347c0.154,0,0.288,0.121,0.288,0.287v-14.174
			c0-0.153-0.122-0.287-0.288-0.287h-28.348c-0.153,0-0.288,0.121-0.288,0.287v14.174c0-0.154,0.122-0.287,0.288-0.287h-28.347
			c0.155,0,0.288,0.121,0.288,0.287v-14.174c0-0.153-0.121-0.287-0.288-0.287h-28.346c-0.155,0-0.288,0.121-0.288,0.287v14.174
			c0-0.154,0.122-0.287,0.288-0.287h-28.348c0.155,0,0.288,0.121,0.288,0.287v-14.174c0-0.153-0.122-0.287-0.288-0.287H82.492
			H48.477c-3.532,0-6.998,0.931-10.065,2.701c-3.056,1.771-5.603,4.309-7.363,7.363c-1.771,3.057-2.7,6.533-2.7,10.064"/>
		<path fill="none" stroke="#0000FF" stroke-width="0.2" stroke-miterlimit="10" d="M48.477,324.691c-5.293,0-5.293-7.929,0-7.929
			C53.759,316.764,53.759,324.691,48.477,324.691"/>
		<path fill="none" stroke="#0000FF" stroke-width="0.2" stroke-miterlimit="10" d="M68.32,357.578c0,0.155-0.133,0.288-0.288,0.288
			h14.173c-0.154,0-0.287-0.122-0.287-0.288v28.347c0-0.155,0.121-0.288,0.287-0.288H68.031c0.155,0,0.288,0.122,0.288,0.288
			L68.32,357.578"/>
		<path fill="none" stroke="#0000FF" stroke-width="0.2" stroke-miterlimit="10" d="M68.32,414.271c0,0.154-0.133,0.287-0.288,0.287
			h14.173c-0.154,0-0.287-0.12-0.287-0.287v28.347c0-0.155,0.121-0.288,0.287-0.288H68.031c0.155,0,0.288,0.122,0.288,0.288
			L68.32,414.271"/>
		<path fill="none" stroke="#0000FF" stroke-width="0.2" stroke-miterlimit="10" d="M68.32,470.964c0,0.155-0.133,0.288-0.288,0.288
			h14.173c-0.154,0-0.287-0.122-0.287-0.288v28.347c0-0.154,0.121-0.287,0.287-0.287H68.031c0.155,0,0.288,0.121,0.288,0.287
			L68.32,470.964"/>
		<path fill="none" stroke="#0000FF" stroke-width="0.2" stroke-miterlimit="10" d="M68.32,527.656c0,0.154-0.133,0.288-0.288,0.288
			h14.173c-0.154,0-0.287-0.121-0.287-0.288v28.347c0-0.154,0.121-0.288,0.287-0.288H68.031c0.155,0,0.288,0.122,0.288,0.288
			L68.32,527.656"/>
		<path fill="none" stroke="#000000" stroke-width="0.2" stroke-miterlimit="10" d="M28.347,320.728v272.126
			c0,3.532,0.93,6.998,2.7,10.065c1.771,3.056,4.309,5.604,7.363,7.363c3.057,1.771,6.533,2.702,10.065,2.702"/>
		<path fill="none" stroke="#0000FF" stroke-width="0.2" stroke-miterlimit="10" d="M507.929,357.578
			c0,0.155-0.133,0.288-0.288,0.288h14.173c-0.154,0-0.287-0.122-0.287-0.288v28.347c0-0.155,0.121-0.288,0.287-0.288h-14.173
			c0.155,0,0.288,0.122,0.288,0.288V357.578"/>
		<path fill="none" stroke="#0000FF" stroke-width="0.2" stroke-miterlimit="10" d="M507.929,414.271
			c0,0.154-0.133,0.287-0.288,0.287h14.173c-0.154,0-0.287-0.12-0.287-0.287v28.347c0-0.155,0.121-0.288,0.287-0.288h-14.173
			c0.155,0,0.288,0.122,0.288,0.288V414.271"/>
		<path fill="none" stroke="#0000FF" stroke-width="0.2" stroke-miterlimit="10" d="M507.929,470.964
			c0,0.155-0.133,0.288-0.288,0.288h14.173c-0.154,0-0.287-0.122-0.287-0.288v28.347c0-0.154,0.121-0.287,0.287-0.287h-14.173
			c0.155,0,0.288,0.121,0.288,0.287V470.964"/>
		<path fill="none" stroke="#0000FF" stroke-width="0.2" stroke-miterlimit="10" d="M507.929,527.656
			c0,0.154-0.133,0.288-0.288,0.288h14.173c-0.154,0-0.287-0.121-0.287-0.288v28.347c0-0.154,0.121-0.288,0.287-0.288h-14.173
			c0.155,0,0.288,0.122,0.288,0.288V527.656"/>
		<g>
			<g enable-background="new    ">
				<path fill="none" stroke="#FF0000" stroke-width="0.2001" stroke-miterlimit="10" d="M577.85,348.271v5.913h-0.764v-5.913
					H577.85z"/>
				<path fill="none" stroke="#FF0000" stroke-width="0.2001" stroke-miterlimit="10" d="M579.247,351.087
					c0-0.439-0.01-0.799-0.035-1.149h0.684l0.044,0.701h0.018c0.21-0.403,0.702-0.798,1.403-0.798c0.588,0,1.501,0.351,1.501,1.808
					v2.535h-0.772v-2.448c0-0.684-0.254-1.254-0.982-1.254c-0.509,0-0.904,0.359-1.035,0.789c-0.035,0.097-0.053,0.229-0.053,0.36
					v2.553h-0.771V351.087z"/>
				<path fill="none" stroke="#FF0000" stroke-width="0.2001" stroke-miterlimit="10" d="M584.198,354.184v-3.658h-0.597v-0.588
					h0.597v-0.202c0-0.597,0.131-1.141,0.491-1.482c0.29-0.281,0.675-0.396,1.035-0.396c0.272,0,0.509,0.062,0.658,0.123
					l-0.105,0.597c-0.114-0.053-0.272-0.097-0.491-0.097c-0.658,0-0.824,0.579-0.824,1.229v0.229h1.025v0.588h-1.025v3.658H584.198z
					"/>
				<path fill="none" stroke="#FF0000" stroke-width="0.2001" stroke-miterlimit="10" d="M586.682,351.262
					c0-0.5-0.009-0.93-0.035-1.324h0.676l0.025,0.833h0.035c0.193-0.57,0.658-0.93,1.176-0.93c0.088,0,0.149,0.009,0.22,0.026v0.728
					c-0.079-0.018-0.157-0.026-0.263-0.026c-0.545,0-0.931,0.413-1.035,0.992c-0.018,0.104-0.035,0.228-0.035,0.359v2.264h-0.764
					V351.262z"/>
				<path fill="none" stroke="#FF0000" stroke-width="0.2001" stroke-miterlimit="10" d="M591.86,354.184l-0.061-0.535h-0.027
					c-0.236,0.333-0.693,0.632-1.299,0.632c-0.859,0-1.298-0.605-1.298-1.22c0-1.026,0.913-1.588,2.554-1.579v-0.088
					c0-0.351-0.098-0.982-0.966-0.982c-0.395,0-0.808,0.122-1.105,0.315l-0.175-0.509c0.351-0.229,0.859-0.377,1.395-0.377
					c1.299,0,1.614,0.886,1.614,1.737v1.588c0,0.368,0.018,0.729,0.07,1.018H591.86z M591.747,352.017
					c-0.843-0.018-1.799,0.132-1.799,0.956c0,0.5,0.333,0.737,0.729,0.737c0.553,0,0.902-0.352,1.025-0.711
					c0.027-0.079,0.045-0.167,0.045-0.245V352.017z"/>
				<path fill="none" stroke="#FF0000" stroke-width="0.2001" stroke-miterlimit="10" d="M593.741,351.262
					c0-0.5-0.01-0.93-0.035-1.324h0.675l0.026,0.833h0.035c0.193-0.57,0.658-0.93,1.176-0.93c0.088,0,0.149,0.009,0.219,0.026v0.728
					c-0.078-0.018-0.157-0.026-0.263-0.026c-0.544,0-0.93,0.413-1.035,0.992c-0.018,0.104-0.035,0.228-0.035,0.359v2.264h-0.763
					V351.262z"/>
				<path fill="none" stroke="#FF0000" stroke-width="0.2001" stroke-miterlimit="10" d="M596.953,352.201
					c0.018,1.044,0.685,1.474,1.456,1.474c0.553,0,0.887-0.097,1.176-0.22l0.132,0.553c-0.272,0.123-0.737,0.264-1.413,0.264
					c-1.307,0-2.088-0.86-2.088-2.141c0-1.281,0.755-2.29,1.992-2.29c1.387,0,1.754,1.22,1.754,2c0,0.158-0.017,0.281-0.025,0.36
					H596.953z M599.217,351.648c0.009-0.492-0.202-1.255-1.07-1.255c-0.78,0-1.123,0.719-1.185,1.255H599.217z"/>
				<path fill="none" stroke="#FF0000" stroke-width="0.2001" stroke-miterlimit="10" d="M604.589,347.954v5.133
					c0,0.377,0.01,0.808,0.035,1.097h-0.693l-0.035-0.737h-0.018c-0.236,0.474-0.754,0.834-1.447,0.834
					c-1.026,0-1.816-0.869-1.816-2.158c-0.008-1.413,0.869-2.281,1.904-2.281c0.649,0,1.088,0.307,1.281,0.649h0.018v-2.536H604.589
					z M603.817,351.665c0-0.096-0.01-0.228-0.035-0.324c-0.114-0.491-0.535-0.895-1.114-0.895c-0.799,0-1.272,0.701-1.272,1.641
					c0,0.859,0.422,1.57,1.255,1.57c0.518,0,0.991-0.342,1.132-0.921c0.025-0.105,0.035-0.211,0.035-0.334V351.665z"/>
				<path fill="none" stroke="#FF0000" stroke-width="0.2001" stroke-miterlimit="10" d="M607.63,353.394
					c0.228,0.149,0.631,0.308,1.018,0.308c0.561,0,0.824-0.281,0.824-0.632c0-0.368-0.219-0.57-0.789-0.781
					c-0.764-0.271-1.123-0.692-1.123-1.201c0-0.685,0.553-1.246,1.465-1.246c0.43,0,0.807,0.123,1.044,0.263l-0.192,0.562
					c-0.167-0.105-0.475-0.245-0.869-0.245c-0.456,0-0.711,0.263-0.711,0.579c0,0.351,0.255,0.509,0.808,0.719
					c0.737,0.281,1.114,0.649,1.114,1.281c0,0.746-0.579,1.272-1.588,1.272c-0.465,0-0.895-0.114-1.193-0.29L607.63,353.394z"/>
				<path fill="none" stroke="#FF0000" stroke-width="0.2001" stroke-miterlimit="10" d="M611.641,352.201
					c0.018,1.044,0.684,1.474,1.456,1.474c0.553,0,0.886-0.097,1.176-0.22l0.132,0.553c-0.272,0.123-0.737,0.264-1.413,0.264
					c-1.308,0-2.088-0.86-2.088-2.141c0-1.281,0.755-2.29,1.991-2.29c1.387,0,1.755,1.22,1.755,2c0,0.158-0.017,0.281-0.026,0.36
					H611.641z M613.905,351.648c0.008-0.492-0.202-1.255-1.07-1.255c-0.781,0-1.123,0.719-1.186,1.255H613.905z"/>
				<path fill="none" stroke="#FF0000" stroke-width="0.2001" stroke-miterlimit="10" d="M615.61,351.087
					c0-0.439-0.01-0.799-0.035-1.149h0.684l0.044,0.701h0.018c0.21-0.403,0.702-0.798,1.403-0.798c0.588,0,1.501,0.351,1.501,1.808
					v2.535h-0.772v-2.448c0-0.684-0.254-1.254-0.982-1.254c-0.509,0-0.904,0.359-1.035,0.789c-0.035,0.097-0.053,0.229-0.053,0.36
					v2.553h-0.771V351.087z"/>
				<path fill="none" stroke="#FF0000" stroke-width="0.2001" stroke-miterlimit="10" d="M620.377,353.394
					c0.228,0.149,0.632,0.308,1.018,0.308c0.562,0,0.825-0.281,0.825-0.632c0-0.368-0.22-0.57-0.79-0.781
					c-0.763-0.271-1.123-0.692-1.123-1.201c0-0.685,0.553-1.246,1.466-1.246c0.43,0,0.807,0.123,1.043,0.263l-0.192,0.562
					c-0.167-0.105-0.474-0.245-0.868-0.245c-0.457,0-0.711,0.263-0.711,0.579c0,0.351,0.254,0.509,0.807,0.719
					c0.737,0.281,1.115,0.649,1.115,1.281c0,0.746-0.58,1.272-1.588,1.272c-0.466,0-0.896-0.114-1.193-0.29L620.377,353.394z"/>
				<path fill="none" stroke="#FF0000" stroke-width="0.2001" stroke-miterlimit="10" d="M627.802,352.025
					c0,1.57-1.088,2.255-2.114,2.255c-1.149,0-2.036-0.843-2.036-2.185c0-1.422,0.931-2.255,2.105-2.255
					C626.977,349.841,627.802,350.727,627.802,352.025z M624.432,352.069c0,0.93,0.535,1.632,1.289,1.632
					c0.738,0,1.291-0.693,1.291-1.649c0-0.72-0.36-1.632-1.273-1.632C624.827,350.42,624.432,351.262,624.432,352.069z"/>
				<path fill="none" stroke="#FF0000" stroke-width="0.2001" stroke-miterlimit="10" d="M628.778,351.262
					c0-0.5-0.008-0.93-0.035-1.324h0.676l0.026,0.833h0.035c0.193-0.57,0.658-0.93,1.176-0.93c0.088,0,0.149,0.009,0.22,0.026v0.728
					c-0.079-0.018-0.158-0.026-0.264-0.026c-0.544,0-0.93,0.413-1.035,0.992c-0.018,0.104-0.035,0.228-0.035,0.359v2.264h-0.764
					V351.262z"/>
			</g>
			<g enable-background="new    ">
				<path fill="none" stroke="#FF0000" stroke-width="0.2001" stroke-miterlimit="10" d="M697.244,348.271h0.763v5.272h2.527v0.641
					h-3.29V348.271z"/>
				<path fill="none" stroke="#FF0000" stroke-width="0.2001" stroke-miterlimit="10" d="M702.221,348.744
					c0.008,0.263-0.186,0.474-0.492,0.474c-0.271,0-0.465-0.211-0.465-0.474c0-0.272,0.201-0.482,0.482-0.482
					C702.036,348.262,702.221,348.472,702.221,348.744z M701.361,354.184v-4.246h0.772v4.246H701.361z"/>
				<path fill="none" stroke="#FF0000" stroke-width="0.2001" stroke-miterlimit="10" d="M707.074,349.938
					c-0.018,0.307-0.035,0.648-0.035,1.166v2.466c0,0.974-0.193,1.57-0.605,1.939c-0.413,0.386-1.009,0.509-1.544,0.509
					c-0.51,0-1.07-0.123-1.413-0.352l0.193-0.588c0.28,0.176,0.72,0.334,1.245,0.334c0.791,0,1.369-0.412,1.369-1.483v-0.474h-0.018
					c-0.236,0.396-0.693,0.711-1.352,0.711c-1.053,0-1.807-0.895-1.807-2.07c0-1.439,0.938-2.255,1.912-2.255
					c0.737,0,1.141,0.386,1.325,0.736h0.018l0.035-0.64H707.074z M706.276,351.613c0-0.132-0.01-0.246-0.045-0.352
					c-0.141-0.447-0.518-0.815-1.078-0.815c-0.738,0-1.264,0.623-1.264,1.605c0,0.833,0.421,1.526,1.254,1.526
					c0.475,0,0.904-0.298,1.07-0.79c0.045-0.131,0.062-0.28,0.062-0.412V351.613z"/>
				<path fill="none" stroke="#FF0000" stroke-width="0.2001" stroke-miterlimit="10" d="M708.323,347.954h0.771v2.649h0.018
					c0.123-0.219,0.316-0.412,0.553-0.544c0.229-0.131,0.5-0.219,0.79-0.219c0.57,0,1.483,0.351,1.483,1.815v2.527h-0.772v-2.439
					c0-0.684-0.255-1.263-0.983-1.263c-0.5,0-0.895,0.351-1.035,0.771c-0.043,0.105-0.053,0.22-0.053,0.369v2.562h-0.771V347.954z"
					/>
				<path fill="none" stroke="#FF0000" stroke-width="0.2001" stroke-miterlimit="10" d="M714.091,348.718v1.22h1.105v0.588h-1.105
					v2.289c0,0.527,0.148,0.825,0.578,0.825c0.203,0,0.352-0.026,0.448-0.053l0.035,0.579c-0.149,0.062-0.386,0.105-0.685,0.105
					c-0.359,0-0.649-0.114-0.834-0.325c-0.219-0.228-0.298-0.604-0.298-1.105v-2.315h-0.658v-0.588h0.658v-1.019L714.091,348.718z"
					/>
				<path fill="none" stroke="#FF0000" stroke-width="0.2001" stroke-miterlimit="10" d="M717.822,353.394
					c0.228,0.149,0.632,0.308,1.018,0.308c0.562,0,0.825-0.281,0.825-0.632c0-0.368-0.22-0.57-0.79-0.781
					c-0.763-0.271-1.123-0.692-1.123-1.201c0-0.685,0.553-1.246,1.466-1.246c0.43,0,0.807,0.123,1.043,0.263l-0.192,0.562
					c-0.167-0.105-0.474-0.245-0.868-0.245c-0.457,0-0.711,0.263-0.711,0.579c0,0.351,0.254,0.509,0.807,0.719
					c0.737,0.281,1.115,0.649,1.115,1.281c0,0.746-0.58,1.272-1.588,1.272c-0.466,0-0.896-0.114-1.193-0.29L717.822,353.394z"/>
				<path fill="none" stroke="#FF0000" stroke-width="0.2001" stroke-miterlimit="10" d="M721.834,352.201
					c0.018,1.044,0.685,1.474,1.456,1.474c0.553,0,0.887-0.097,1.176-0.22l0.132,0.553c-0.272,0.123-0.737,0.264-1.413,0.264
					c-1.307,0-2.088-0.86-2.088-2.141c0-1.281,0.755-2.29,1.992-2.29c1.387,0,1.754,1.22,1.754,2c0,0.158-0.017,0.281-0.025,0.36
					H721.834z M724.097,351.648c0.009-0.492-0.202-1.255-1.07-1.255c-0.78,0-1.123,0.719-1.185,1.255H724.097z"/>
				<path fill="none" stroke="#FF0000" stroke-width="0.2001" stroke-miterlimit="10" d="M725.802,351.087
					c0-0.439-0.009-0.799-0.035-1.149h0.685l0.043,0.701h0.018c0.211-0.403,0.703-0.798,1.404-0.798c0.588,0,1.5,0.351,1.5,1.808
					v2.535h-0.771v-2.448c0-0.684-0.255-1.254-0.982-1.254c-0.51,0-0.904,0.359-1.035,0.789c-0.035,0.097-0.053,0.229-0.053,0.36
					v2.553h-0.772V351.087z"/>
				<path fill="none" stroke="#FF0000" stroke-width="0.2001" stroke-miterlimit="10" d="M730.569,353.394
					c0.229,0.149,0.633,0.308,1.018,0.308c0.562,0,0.826-0.281,0.826-0.632c0-0.368-0.221-0.57-0.791-0.781
					c-0.763-0.271-1.123-0.692-1.123-1.201c0-0.685,0.553-1.246,1.466-1.246c0.431,0,0.808,0.123,1.044,0.263l-0.193,0.562
					c-0.166-0.105-0.473-0.245-0.868-0.245c-0.456,0-0.71,0.263-0.71,0.579c0,0.351,0.254,0.509,0.807,0.719
					c0.736,0.281,1.114,0.649,1.114,1.281c0,0.746-0.579,1.272-1.588,1.272c-0.466,0-0.896-0.114-1.193-0.29L730.569,353.394z"/>
				<path fill="none" stroke="#FF0000" stroke-width="0.2001" stroke-miterlimit="10" d="M737.995,352.025
					c0,1.57-1.088,2.255-2.115,2.255c-1.148,0-2.035-0.843-2.035-2.185c0-1.422,0.93-2.255,2.105-2.255
					C737.17,349.841,737.995,350.727,737.995,352.025z M734.626,352.069c0,0.93,0.535,1.632,1.289,1.632
					c0.737,0,1.29-0.693,1.29-1.649c0-0.72-0.36-1.632-1.272-1.632S734.626,351.262,734.626,352.069z"/>
				<path fill="none" stroke="#FF0000" stroke-width="0.2001" stroke-miterlimit="10" d="M738.971,351.262
					c0-0.5-0.009-0.93-0.035-1.324h0.676l0.025,0.833h0.035c0.193-0.57,0.658-0.93,1.176-0.93c0.088,0,0.149,0.009,0.22,0.026v0.728
					c-0.079-0.018-0.157-0.026-0.263-0.026c-0.545,0-0.931,0.413-1.035,0.992c-0.018,0.104-0.035,0.228-0.035,0.359v2.264h-0.764
					V351.262z"/>
			</g>
			<g>
				
					<rect x="576.492" y="359.093" fill="none" stroke="#000000" stroke-width="0.2001" stroke-miterlimit="10" width="29.765" height="15.591"/>
				
					<rect x="696.723" y="359.093" fill="none" stroke="#000000" stroke-width="0.2001" stroke-miterlimit="10" width="29.764" height="15.591"/>
			</g>
		</g>
	</g>
	
		<rect x="95.428" y="335.256" fill="none" stroke="#0000FF" stroke-width="0.2001" stroke-miterlimit="10" width="91" height="36.496"/>
</g>
<g>
	<g>
		<path fill="none" stroke="#0000FF" stroke-width="0.2" stroke-miterlimit="10" d="M56.217,271.615c0,5.293-7.929,5.293-7.929,0
			S56.217,266.322,56.217,271.615"/>
		<path fill="none" stroke="#000000" stroke-width="0.2" stroke-miterlimit="10" d="M28.634,295.521h708.662
			c0.154,0,0.287-0.121,0.287-0.288l0,0"/>
		<path fill="none" stroke="#0000FF" stroke-width="0.2" stroke-miterlimit="10" d="M713.677,267.641c5.293,0,5.293,7.938,0,7.938
			S708.385,267.641,713.677,267.641"/>
		<path fill="none" stroke="#000000" stroke-width="0.2" stroke-miterlimit="10" d="M737.583,295.233V11.769
			c0-0.155-0.12-0.288-0.287-0.288l0,0"/>
		<path fill="none" stroke="#0000FF" stroke-width="0.2" stroke-miterlimit="10" d="M709.702,35.388c0-5.293,7.938-5.293,7.938,0
			C717.641,40.68,709.702,40.68,709.702,35.388"/>
		<path fill="none" stroke="#000000" stroke-width="0.2" stroke-miterlimit="10" d="M737.296,11.481H28.634
			c-0.153,0-0.286,0.122-0.286,0.288l0,0"/>
		<path fill="none" stroke="#0000FF" stroke-width="0.2" stroke-miterlimit="10" d="M52.253,39.363c-5.293,0-5.293-7.939,0-7.939
			C57.545,31.424,57.545,39.363,52.253,39.363"/>
		<path fill="none" stroke="#000000" stroke-width="0.2" stroke-miterlimit="10" d="M28.347,11.769v283.464
			c0,0.154,0.12,0.287,0.286,0.287l0,0"/>
	</g>
	
		<rect x="480.955" y="115.321" fill="none" stroke="#0000FF" stroke-width="0.2" stroke-miterlimit="10" width="201.26" height="68.031"/>
	<g>
		
			<rect x="107.151" y="114.069" fill="none" stroke="#0000FF" stroke-width="0.2001" stroke-miterlimit="10" width="59.527" height="82.205"/>
		<g enable-background="new    ">
			<path fill="none" stroke="#FF0000" stroke-width="0.2001" stroke-miterlimit="10" d="M117.997,94.968
				c0.53-0.089,1.224-0.164,2.107-0.164c1.085,0,1.88,0.252,2.385,0.706c0.467,0.404,0.745,1.022,0.745,1.779
				c0,0.771-0.227,1.376-0.656,1.817c-0.58,0.618-1.527,0.934-2.599,0.934c-0.328,0-0.631-0.013-0.883-0.075v3.407h-1.098V94.968z
				 M119.095,99.068c0.24,0.063,0.542,0.089,0.908,0.089c1.325,0,2.133-0.644,2.133-1.817c0-1.123-0.795-1.666-2.006-1.666
				c-0.479,0-0.846,0.038-1.035,0.089V99.068z"/>
			<path fill="none" stroke="#FF0000" stroke-width="0.2001" stroke-miterlimit="10" d="M131.98,99.031
				c0,2.928-1.779,4.479-3.95,4.479c-2.246,0-3.824-1.741-3.824-4.315c0-2.701,1.679-4.468,3.95-4.468
				C130.478,94.728,131.98,96.507,131.98,99.031z M125.38,99.17c0,1.817,0.984,3.444,2.713,3.444c1.742,0,2.726-1.603,2.726-3.533
				c0-1.69-0.883-3.457-2.713-3.457C126.289,95.624,125.38,97.302,125.38,99.17z"/>
			<path fill="none" stroke="#FF0000" stroke-width="0.2001" stroke-miterlimit="10" d="M134.795,103.372l-2.158-8.506h1.161
				l1.01,4.304c0.252,1.06,0.479,2.12,0.631,2.94h0.025c0.139-0.846,0.404-1.855,0.694-2.953l1.136-4.291h1.148l1.035,4.316
				c0.24,1.009,0.467,2.019,0.593,2.915h0.025c0.177-0.935,0.417-1.881,0.682-2.94l1.123-4.291h1.123l-2.41,8.506h-1.148
				l-1.073-4.43c-0.265-1.085-0.441-1.918-0.555-2.776h-0.025c-0.152,0.846-0.341,1.679-0.656,2.776l-1.211,4.43H134.795z"/>
			<path fill="none" stroke="#FF0000" stroke-width="0.2001" stroke-miterlimit="10" d="M148.488,99.384h-3.306v3.066h3.685v0.922
				h-4.783v-8.506h4.593v0.922h-3.495v2.688h3.306V99.384z"/>
			<path fill="none" stroke="#FF0000" stroke-width="0.2001" stroke-miterlimit="10" d="M150.292,94.98
				c0.555-0.114,1.35-0.177,2.107-0.177c1.174,0,1.931,0.214,2.461,0.694c0.429,0.378,0.668,0.959,0.668,1.615
				c0,1.123-0.707,1.867-1.603,2.17v0.038c0.656,0.227,1.047,0.833,1.25,1.716c0.277,1.187,0.479,2.007,0.656,2.335h-1.136
				c-0.139-0.24-0.328-0.972-0.568-2.032c-0.252-1.173-0.707-1.615-1.704-1.652h-1.035v3.685h-1.098V94.98z M151.39,98.854h1.123
				c1.173,0,1.918-0.644,1.918-1.615c0-1.098-0.795-1.578-1.956-1.59c-0.53,0-0.909,0.05-1.085,0.101V98.854z"/>
		</g>
	</g>
	<circle fill="none" stroke="#0000FF" stroke-width="0.2001" stroke-miterlimit="10" cx="533.506" cy="234.268" r="17.008"/>
	<g enable-background="new    ">
		<path fill="none" stroke="#FF0000" stroke-width="0.2001" stroke-miterlimit="10" d="M523.808,207.611
			c-0.404,0.202-1.212,0.404-2.247,0.404c-2.397,0-4.202-1.514-4.202-4.303c0-2.663,1.805-4.467,4.441-4.467
			c1.061,0,1.729,0.227,2.02,0.378l-0.265,0.896c-0.417-0.202-1.01-0.353-1.716-0.353c-1.994,0-3.319,1.274-3.319,3.508
			c0,2.082,1.198,3.42,3.269,3.42c0.668,0,1.35-0.139,1.791-0.354L523.808,207.611z"/>
		<path fill="none" stroke="#FF0000" stroke-width="0.2001" stroke-miterlimit="10" d="M527.114,207.889v-3.609l-2.688-4.896h1.25
			l1.199,2.347c0.328,0.644,0.58,1.161,0.845,1.754h0.025c0.239-0.556,0.53-1.111,0.858-1.754l1.224-2.347h1.249l-2.852,4.884v3.622
			H527.114z"/>
		<path fill="none" stroke="#FF0000" stroke-width="0.2001" stroke-miterlimit="10" d="M537.538,207.611
			c-0.403,0.202-1.212,0.404-2.247,0.404c-2.396,0-4.201-1.514-4.201-4.303c0-2.663,1.805-4.467,4.441-4.467
			c1.061,0,1.729,0.227,2.02,0.378l-0.266,0.896c-0.416-0.202-1.01-0.353-1.716-0.353c-1.993,0-3.319,1.274-3.319,3.508
			c0,2.082,1.199,3.42,3.27,3.42c0.668,0,1.35-0.139,1.791-0.354L537.538,207.611z"/>
		<path fill="none" stroke="#FF0000" stroke-width="0.2001" stroke-miterlimit="10" d="M538.914,199.383h1.098v7.584h3.635v0.921
			h-4.732V199.383z"/>
		<path fill="none" stroke="#FF0000" stroke-width="0.2001" stroke-miterlimit="10" d="M549.274,203.901h-3.306v3.066h3.684v0.921
			h-4.782v-8.505h4.593v0.921h-3.494v2.688h3.306V203.901z"/>
	</g>
	<g>
		<path fill="none" stroke="#FF0000" stroke-width="0.2001" stroke-miterlimit="10" d="M616.256,199.839v3.382h3.91v-3.382h1.055
			v8.083h-1.055v-3.79h-3.91v3.79h-1.044v-8.083H616.256z"/>
		<path fill="none" stroke="#FF0000" stroke-width="0.2001" stroke-miterlimit="10" d="M627.222,204.132h-3.143v2.915h3.502v0.875
			h-4.546v-8.083h4.366v0.875h-3.322v2.555h3.143V204.132z"/>
		<path fill="none" stroke="#FF0000" stroke-width="0.2001" stroke-miterlimit="10" d="M630.247,205.38l-0.84,2.542h-1.079
			l2.746-8.083h1.26l2.759,8.083h-1.115l-0.864-2.542H630.247z M632.897,204.564l-0.791-2.327c-0.181-0.527-0.3-1.007-0.42-1.475
			h-0.024c-0.12,0.48-0.252,0.972-0.407,1.463l-0.792,2.339H632.897z"/>
		<path fill="none" stroke="#FF0000" stroke-width="0.2001" stroke-miterlimit="10" d="M636.894,200.727h-2.458v-0.888h5.984v0.888
			h-2.471v7.196h-1.056V200.727z"/>
	</g>
	<circle fill="none" stroke="#0000FF" stroke-width="0.2001" stroke-miterlimit="10" cx="627.816" cy="234.268" r="17.008"/>
</g>
<circle fill="none" stroke="#000000" stroke-width="0.2" stroke-linecap="round" stroke-linejoin="round" stroke-miterlimit="10" cx="106.767" cy="969.256" r="11.339"/>
<circle fill="none" stroke="#000000" stroke-width="0.2" stroke-linecap="round" stroke-linejoin="round" stroke-miterlimit="10" cx="152.267" cy="969.256" r="11.339"/>
<circle fill="none" stroke="#000000" stroke-width="0.2" stroke-linecap="round" stroke-linejoin="round" stroke-miterlimit="10" cx="197.767" cy="969.256" r="11.339"/>
<g>
	<path fill="none" stroke="#000000" stroke-width="0.2" stroke-linecap="round" stroke-linejoin="round" stroke-miterlimit="10" d="
		M44.489,1013.48h28.343c-0.156,0-0.281-0.129-0.281-0.285v14.176c0,0.156,0.125,0.281,0.281,0.281h28.348
		c0.156,0,0.285-0.125,0.285-0.281v-14.176c0,0.156-0.129,0.285-0.285,0.285h28.348c-0.156,0-0.285-0.129-0.285-0.285v14.176
		c0,0.156,0.129,0.281,0.285,0.281h28.344c0.16,0,0.285-0.125,0.285-0.281v-14.176c0,0.156-0.125,0.285-0.285,0.285h28.347
		c-0.156,0-0.281-0.129-0.281-0.285v14.176c0,0.156,0.125,0.281,0.281,0.281h28.348c0.156,0,0.281-0.125,0.281-0.281v-14.176
		c0,0.156-0.125,0.285-0.281,0.285h28.344c-0.157,0-0.282-0.129-0.282-0.285v14.176c0,0.156,0.125,0.281,0.282,0.281h28.347
		c0.156,0,0.285-0.125,0.285-0.281v-14.176c0,0.156-0.129,0.285-0.285,0.285h28.348c-0.156,0-0.285-0.129-0.285-0.285v14.176
		c0,0.156,0.129,0.281,0.285,0.281h28.348c0.156,0,0.281-0.125,0.281-0.281v-14.176c0,0.156-0.125,0.285-0.281,0.285h28.344
		c-0.156,0-0.281-0.129-0.281-0.285v14.176c0,0.156,0.125,0.281,0.281,0.281h28.348c0.156,0,0.281-0.125,0.281-0.281v-14.176
		c0,0.156-0.125,0.285-0.281,0.285h28.348c-0.156,0-0.285-0.129-0.285-0.285v14.176c0,0.156,0.129,0.281,0.285,0.281h28.344
		c0.156,0,0.285-0.125,0.285-0.281v-14.176c0,0.156-0.129,0.285-0.285,0.285h28.348c-0.156,0-0.281-0.129-0.281-0.285v14.176
		c0,0.156,0.125,0.281,0.281,0.281h28.348c0.156,0,0.281-0.125,0.281-0.281v-14.176c0,0.156-0.125,0.285-0.281,0.285h28.344
		c-0.156,0-0.281-0.129-0.281-0.285v14.176c0,0.156,0.125,0.281,0.281,0.281h28.348c0.156,0,0.285-0.125,0.285-0.281v-14.176
		c0,0.156-0.129,0.285-0.285,0.285h28.347c-0.156,0-0.285-0.129-0.285-0.285v14.176c0,0.156,0.129,0.281,0.285,0.281h28.344
		c0.16,0,0.285-0.125,0.285-0.281v-14.176c0,0.156-0.125,0.285-0.285,0.285h28.348c-0.156,0-0.281-0.129-0.281-0.285v14.176
		c0,0.156,0.125,0.281,0.281,0.281h28.348c0.156,0,0.285-0.125,0.285-0.281v-14.176c0,0.156-0.129,0.285-0.285,0.285h28.348
		c-0.16,0-0.285-0.129-0.285-0.285v14.176c0,0.156,0.125,0.281,0.285,0.281h28.344c0.156,0,0.285-0.125,0.285-0.281v-14.176
		c0,0.156-0.129,0.285-0.285,0.285h28.348h14.172c0.156,0,0.285-0.129,0.285-0.285V963.59c0-0.156-0.129-0.281-0.285-0.281h-14.172
		c0.156,0,0.281,0.125,0.281,0.281v-28.348c0,0.16-0.125,0.285-0.281,0.285h14.172c0.156,0,0.285-0.125,0.285-0.285v-28.344
		c0-0.156-0.129-0.285-0.285-0.285h-14.172c0.156,0,0.281,0.129,0.281,0.285v-28.348c0,0.156-0.125,0.285-0.281,0.285h14.172
		c0.156,0,0.285-0.129,0.285-0.285v-49.605c0-0.156-0.129-0.285-0.285-0.285h-14.172H44.489H30.313
		c-0.156,0-0.281,0.129-0.281,0.285v49.605c0,0.156,0.125,0.285,0.281,0.285h14.176c-0.157,0-0.285-0.129-0.285-0.285v28.348
		c0-0.156,0.128-0.285,0.285-0.285H30.313c-0.156,0-0.281,0.129-0.281,0.285v28.344c0,0.16,0.125,0.285,0.281,0.285h14.176
		c-0.157,0-0.285-0.125-0.285-0.285v28.348c0-0.156,0.128-0.281,0.285-0.281H30.313c-0.156,0-0.281,0.125-0.281,0.281v49.605
		c0,0.156,0.125,0.285,0.281,0.285H44.489"/>
	<text transform="matrix(1 0 0 1 677.4285 990.2559)" font-family="'MyriadPro-Regular'" font-size="12">Bottom</text>
</g>
<g>
	<path fill="none" stroke="#000000" stroke-width="0.2" stroke-linecap="round" stroke-linejoin="round" stroke-miterlimit="10" d="
		M44.489,807.402h28.343c-0.156,0-0.281-0.129-0.281-0.285v14.176c0,0.156,0.125,0.281,0.281,0.281h28.348
		c0.156,0,0.285-0.125,0.285-0.281v-14.176c0,0.156-0.129,0.285-0.285,0.285h28.348c-0.156,0-0.285-0.129-0.285-0.285v14.176
		c0,0.156,0.129,0.281,0.285,0.281h28.344c0.16,0,0.285-0.125,0.285-0.281v-14.176c0,0.156-0.125,0.285-0.285,0.285h28.347
		c-0.156,0-0.281-0.129-0.281-0.285v14.176c0,0.156,0.125,0.281,0.281,0.281h28.348c0.156,0,0.281-0.125,0.281-0.281v-14.176
		c0,0.156-0.125,0.285-0.281,0.285h28.344c-0.157,0-0.282-0.129-0.282-0.285v14.176c0,0.156,0.125,0.281,0.282,0.281h28.347
		c0.156,0,0.285-0.125,0.285-0.281v-14.176c0,0.156-0.129,0.285-0.285,0.285h28.348c-0.156,0-0.285-0.129-0.285-0.285v14.176
		c0,0.156,0.129,0.281,0.285,0.281h28.348c0.156,0,0.281-0.125,0.281-0.281v-14.176c0,0.156-0.125,0.285-0.281,0.285h28.344
		c-0.156,0-0.281-0.129-0.281-0.285v14.176c0,0.156,0.125,0.281,0.281,0.281h28.348c0.156,0,0.281-0.125,0.281-0.281v-14.176
		c0,0.156-0.125,0.285-0.281,0.285h28.348c-0.156,0-0.285-0.129-0.285-0.285v14.176c0,0.156,0.129,0.281,0.285,0.281h28.344
		c0.156,0,0.285-0.125,0.285-0.281v-14.176c0,0.156-0.129,0.285-0.285,0.285h28.348c-0.156,0-0.281-0.129-0.281-0.285v14.176
		c0,0.156,0.125,0.281,0.281,0.281h28.348c0.156,0,0.281-0.125,0.281-0.281v-14.176c0,0.156-0.125,0.285-0.281,0.285h28.344
		c-0.156,0-0.281-0.129-0.281-0.285v14.176c0,0.156,0.125,0.281,0.281,0.281h28.348c0.156,0,0.285-0.125,0.285-0.281v-14.176
		c0,0.156-0.129,0.285-0.285,0.285h28.347c-0.156,0-0.285-0.129-0.285-0.285v14.176c0,0.156,0.129,0.281,0.285,0.281h28.344
		c0.16,0,0.285-0.125,0.285-0.281v-14.176c0,0.156-0.125,0.285-0.285,0.285h28.348c-0.156,0-0.281-0.129-0.281-0.285v14.176
		c0,0.156,0.125,0.281,0.281,0.281h28.348c0.156,0,0.285-0.125,0.285-0.281v-14.176c0,0.156-0.129,0.285-0.285,0.285h28.348
		c-0.16,0-0.285-0.129-0.285-0.285v14.176c0,0.156,0.125,0.281,0.285,0.281h28.344c0.156,0,0.285-0.125,0.285-0.281v-14.176
		c0,0.156-0.129,0.285-0.285,0.285h28.348h14.172c0.156,0,0.285-0.129,0.285-0.285v-49.605c0-0.156-0.129-0.285-0.285-0.285h-14.172
		c0.156,0,0.281,0.129,0.281,0.285v-28.348c0,0.156-0.125,0.285-0.281,0.285h14.172c0.156,0,0.285-0.129,0.285-0.285V700.82
		c0-0.16-0.129-0.285-0.285-0.285h-14.172c0.156,0,0.281,0.125,0.281,0.285v-28.348c0,0.156-0.125,0.285-0.281,0.285h14.172
		c0.156,0,0.285-0.129,0.285-0.285v-49.605c0-0.156-0.129-0.285-0.285-0.285h-14.172H44.489H30.313
		c-0.156,0-0.281,0.129-0.281,0.285v49.605c0,0.156,0.125,0.285,0.281,0.285h14.176c-0.157,0-0.285-0.129-0.285-0.285v28.348
		c0-0.16,0.128-0.285,0.285-0.285H30.313c-0.156,0-0.281,0.125-0.281,0.285v28.344c0,0.156,0.125,0.285,0.281,0.285h14.176
		c-0.157,0-0.285-0.129-0.285-0.285v28.348c0-0.156,0.128-0.285,0.285-0.285H30.313c-0.156,0-0.281,0.129-0.281,0.285v49.605
		c0,0.156,0.125,0.285,0.281,0.285H44.489"/>
	<text transform="matrix(1 0 0 1 677.4285 789.2559)" font-family="'MyriadPro-Regular'" font-size="12">Top</text>
</g>
<g>
	<g>
		
			<path fill="none" stroke="#000000" stroke-width="0.2" stroke-linecap="round" stroke-linejoin="round" stroke-miterlimit="10" d="
			M793.925,701.102c-0.156,0-0.285-0.125-0.285-0.281v28.344c0-0.156,0.129-0.281,0.285-0.281h-14.172
			c-0.156,0-0.285,0.125-0.285,0.281v28.348c0,0.156,0.129,0.285,0.285,0.285h14.172c-0.156,0-0.285-0.129-0.285-0.285v49.605
			c0,0.156,0.129,0.285,0.285,0.285"/>
		
			<path fill="none" stroke="#000000" stroke-width="0.2" stroke-linecap="round" stroke-linejoin="round" stroke-miterlimit="10" d="
			M1077.389,700.582H793.925"/>
		
			<path fill="none" stroke="#000000" stroke-width="0.2" stroke-linecap="round" stroke-linejoin="round" stroke-miterlimit="10" d="
			M793.925,807.402h42.52c-0.156,0-0.285-0.129-0.285-0.285v14.176c0,0.156,0.129,0.281,0.285,0.281h28.348
			c0.156,0,0.281-0.125,0.281-0.281v-14.176c0,0.156-0.125,0.285-0.281,0.285h28.344c-0.156,0-0.281-0.129-0.281-0.285v14.176
			c0,0.156,0.125,0.281,0.281,0.281h28.348c0.156,0,0.285-0.125,0.285-0.281v-14.176c0,0.156-0.129,0.285-0.285,0.285h28.348
			c-0.156,0-0.285-0.129-0.285-0.285v14.176c0,0.156,0.129,0.281,0.285,0.281h28.348c0.152,0,0.281-0.125,0.281-0.281v-14.176
			c0,0.156-0.129,0.285-0.281,0.285h28.342c-0.154,0-0.279-0.129-0.279-0.285v14.176c0,0.156,0.125,0.281,0.279,0.281h28.35
			c0.16,0,0.279-0.125,0.279-0.281v-14.176c0,0.156-0.119,0.285-0.279,0.285h42.52c0.16,0,0.281-0.129,0.281-0.285v-49.605
			c0,0.156-0.121,0.285-0.281,0.285h14.17c0.16,0,0.291-0.129,0.291-0.285v-28.348c0-0.156-0.131-0.281-0.291-0.281h-14.17
			c0.16,0,0.281,0.125,0.281,0.281V700.82c0,0.156-0.121,0.281-0.281,0.281"/>
	</g>
	<text transform="matrix(1 0 0 1 988.4285 789.2559)" font-family="'MyriadPro-Regular'" font-size="12">Vertical Middle</text>
</g>
<g>
	<path fill="none" stroke="#000000" stroke-width="0.2" stroke-linecap="round" stroke-linejoin="round" stroke-miterlimit="10" d="
		M789.148,1013.48h42.52c-0.156,0-0.285-0.129-0.285-0.285v14.176c0,0.156,0.129,0.281,0.285,0.281h28.348
		c0.156,0,0.281-0.125,0.281-0.281v-14.176c0,0.156-0.125,0.285-0.281,0.285h28.344c-0.156,0-0.281-0.129-0.281-0.285v14.176
		c0,0.156,0.125,0.281,0.281,0.281h28.348c0.156,0,0.285-0.125,0.285-0.281v-14.176c0,0.156-0.129,0.285-0.285,0.285h28.348
		c-0.156,0-0.285-0.129-0.285-0.285v14.176c0,0.156,0.129,0.281,0.285,0.281h28.348c0.152,0,0.281-0.125,0.281-0.281v-14.176
		c0,0.156-0.129,0.285-0.281,0.285h28.342c-0.154,0-0.279-0.129-0.279-0.285v14.176c0,0.156,0.125,0.281,0.279,0.281h28.35
		c0.16,0,0.279-0.125,0.279-0.281v-14.176c0,0.156-0.119,0.285-0.279,0.285h42.52c0.16,0,0.281-0.129,0.281-0.285V963.59
		c0,0.156-0.121,0.285-0.281,0.285h14.17c0.16,0,0.291-0.129,0.291-0.285v-28.348c0-0.152-0.131-0.281-0.291-0.281h-14.17
		c0.16,0,0.281,0.129,0.281,0.281v-28.344c0,0.156-0.121,0.281-0.281,0.281h14.17c0.16,0,0.291-0.125,0.291-0.281v-28.348
		c0-0.156-0.131-0.281-0.291-0.281h-14.17c0.16,0,0.281,0.125,0.281,0.281v-49.605c0-0.156-0.121-0.285-0.281-0.285H789.148
		c-0.156,0-0.285,0.129-0.285,0.285v49.605c0-0.156,0.129-0.281,0.285-0.281h-14.172c-0.156,0-0.285,0.125-0.285,0.281v28.348
		c0,0.156,0.129,0.281,0.285,0.281h14.172c-0.156,0-0.285-0.125-0.285-0.281v28.344c0-0.152,0.129-0.281,0.285-0.281h-14.172
		c-0.156,0-0.285,0.129-0.285,0.281v28.348c0,0.156,0.129,0.285,0.285,0.285h14.172c-0.156,0-0.285-0.129-0.285-0.285v49.605
		C788.863,1013.352,788.992,1013.48,789.148,1013.48"/>
	<text transform="matrix(1 0 0 1 990.4285 990.2559)" font-family="'MyriadPro-Regular'" font-size="12">Vertical Right</text>
</g>
<g>
	<path fill="none" stroke="#000000" stroke-width="0.2" stroke-linecap="round" stroke-linejoin="round" stroke-miterlimit="10" d="
		M1039.707,601.51v-42.52c0,0.156-0.129,0.285-0.285,0.285h14.176c0.156,0,0.281-0.129,0.281-0.285v-28.348
		c0-0.156-0.125-0.281-0.281-0.281h-14.176c0.156,0,0.285,0.125,0.285,0.281v-28.344c0,0.156-0.129,0.281-0.285,0.281h14.176
		c0.156,0,0.281-0.125,0.281-0.281v-28.348c0-0.156-0.125-0.285-0.281-0.285h-14.176c0.156,0,0.285,0.129,0.285,0.285v-28.348
		c0,0.156-0.129,0.285-0.285,0.285h14.176c0.156,0,0.281-0.129,0.281-0.285v-28.348c0-0.152-0.125-0.281-0.281-0.281h-14.176
		c0.156,0,0.285,0.129,0.285,0.281v-28.342c0,0.154-0.129,0.279-0.285,0.279h14.176c0.156,0,0.281-0.125,0.281-0.279v-28.35
		c0-0.16-0.125-0.279-0.281-0.279h-14.176c0.156,0,0.285,0.119,0.285,0.279v-42.52c0-0.16-0.129-0.281-0.285-0.281h-49.605
		c0.156,0,0.285,0.121,0.285,0.281v-14.17c0-0.16-0.129-0.291-0.285-0.291h-28.348c-0.152,0-0.281,0.131-0.281,0.291v14.17
		c0-0.16,0.129-0.281,0.281-0.281h-28.344c0.156,0,0.281,0.121,0.281,0.281v-14.17c0-0.16-0.125-0.291-0.281-0.291h-28.348
		c-0.156,0-0.281,0.131-0.281,0.291v14.17c0-0.16,0.125-0.281,0.281-0.281h-49.605c-0.156,0-0.285,0.121-0.285,0.281l0.001,283.465
		c0,0.156,0.129,0.285,0.285,0.285h49.604c-0.156,0-0.281-0.129-0.281-0.285v14.172c0,0.156,0.125,0.285,0.281,0.285h28.348
		c0.156,0,0.281-0.129,0.281-0.285V601.51c0,0.156-0.125,0.285-0.281,0.285h28.344c-0.152,0-0.281-0.129-0.281-0.285v14.172
		c0,0.156,0.129,0.285,0.281,0.285h28.348c0.156,0,0.285-0.129,0.285-0.285V601.51c0,0.156-0.129,0.285-0.285,0.285h49.605
		C1039.578,601.795,1039.707,601.666,1039.707,601.51"/>
	<text transform="matrix(-4.371139e-08 -1 1 -4.371139e-08 1018.2078 400.9917)" font-family="'MyriadPro-Regular'" font-size="12">Vertical Left</text>
</g>
</svg>
