<?xml version="1.0" encoding="utf-8"?>
<!-- Generator: Adobe Illustrator 16.0.0, SVG Export Plug-In . SVG Version: 6.00 Build 0)  -->
<!DOCTYPE svg PUBLIC "-//W3C//DTD SVG 1.1//EN" "http://www.w3.org/Graphics/SVG/1.1/DTD/svg11.dtd">
<svg version="1.1"
	 id="Calque_1" xmlns:cc="http://creativecommons.org/ns#" xmlns:dc="http://purl.org/dc/elements/1.1/" xmlns:rdf="http://www.w3.org/1999/02/22-rdf-syntax-ns#"
	 xmlns="http://www.w3.org/2000/svg" xmlns:xlink="http://www.w3.org/1999/xlink" x="0px" y="0px" width="4033.332px"
	 height="3922.223px" viewBox="0 0 4033.332 3922.223" enable-background="new 0 0 4033.332 3922.223" xml:space="preserve">
<title>HingeBox</title>
<path fill="none" stroke="#000000" stroke-width="0.2" stroke-miterlimit="10" d="M82.232,1743.907h198.426
	c0.154,0,0.287-0.123,0.287-0.289v-28.347c0,0.153-0.121,0.287-0.287,0.287h113.391c-0.156,0-0.289-0.121-0.289-0.287v28.347
	c0,0.155,0.121,0.289,0.289,0.289H507.43c0.154,0,0.287-0.123,0.287-0.289v-28.347c0,0.153-0.121,0.287-0.287,0.287h113.385
	c-0.152,0-0.285-0.121-0.285-0.287v28.347c0,0.155,0.119,0.289,0.285,0.289h113.389c0.152,0,0.287-0.123,0.287-0.289v-28.347
	c0,0.153-0.121,0.287-0.287,0.287h113.39c-0.155,0-0.289-0.121-0.289-0.287v28.347c0,0.155,0.123,0.289,0.289,0.289h113.386
	c0.153,0,0.289-0.123,0.289-0.289v-28.347c0,0.153-0.123,0.287-0.289,0.287h113.389c-0.154,0-0.288-0.121-0.288-0.287v28.347
	c0,0.155,0.123,0.289,0.288,0.289h113.387c0.154,0,0.288-0.123,0.288-0.289v-28.347c0,0.153-0.123,0.287-0.288,0.287h113.389
	c-0.156,0-0.289-0.121-0.289-0.287v28.347c0,0.155,0.123,0.289,0.289,0.289h198.424h28.35c0.152,0,0.287-0.123,0.287-0.289v-28.347
	v-141.729c0-0.154-0.121-0.287-0.287-0.287h-28.35c0.156,0,0.289,0.121,0.289,0.287v-113.387c0,0.152-0.121,0.287-0.289,0.287h28.35
	c0.152,0,0.287-0.121,0.287-0.287v-113.388c0-0.153-0.121-0.286-0.287-0.286h-28.35c0.156,0,0.289,0.12,0.289,0.286V1233.38
	c0,0.154-0.121,0.287-0.289,0.287h28.35c0.152,0,0.287-0.119,0.287-0.287v-141.729c0-0.155-0.121-0.289-0.287-0.289h-28.35H82.232
	H53.886c-0.152,0-0.289,0.123-0.289,0.289l0,0v141.729c0,0.154,0.123,0.287,0.289,0.287h28.348c-0.152,0-0.286-0.121-0.286-0.287
	v113.388c0-0.153,0.12-0.286,0.286-0.286H53.886c-0.152,0-0.289,0.12-0.289,0.286v113.388c0,0.152,0.123,0.287,0.289,0.287h28.348
	c-0.152,0-0.286-0.121-0.286-0.287v113.387c0-0.154,0.12-0.287,0.286-0.287H53.886c-0.152,0-0.289,0.121-0.289,0.287v141.729v28.347
	c0,0.155,0.123,0.289,0.289,0.289H82.232"/>
<g>
	<path fill="none" stroke="#000000" stroke-width="0.2" stroke-miterlimit="10" d="M82.233,1057.201h198.429
		c0.15,0,0.284-0.122,0.284-0.288v-28.349c0,0.153-0.118,0.287-0.284,0.287h113.386c-0.154,0-0.289-0.121-0.289-0.287v28.349
		c0,0.155,0.121,0.288,0.289,0.288h113.387c0.152,0,0.285-0.122,0.285-0.288v-28.349c0,0.153-0.119,0.287-0.285,0.287h113.388
		c-0.155,0-0.289-0.121-0.289-0.287v28.349c0,0.155,0.121,0.288,0.289,0.288h113.384c0.153,0,0.286-0.122,0.286-0.288v-28.349
		c0,0.153-0.12,0.287-0.286,0.287h113.389c-0.153,0-0.288-0.121-0.288-0.287v28.349c0,0.155,0.122,0.288,0.288,0.288H960.98
		c0.151,0,0.289-0.122,0.289-0.288v-28.349c0,0.153-0.123,0.287-0.289,0.287h113.387c-0.153,0-0.289-0.121-0.289-0.287v28.349
		c0,0.155,0.123,0.288,0.289,0.288h113.388c0.153,0,0.286-0.122,0.286-0.288v-28.349c0,0.153-0.12,0.287-0.286,0.287h113.387
		c-0.154,0-0.289-0.121-0.289-0.287v28.349c0,0.155,0.123,0.288,0.289,0.288h198.424h28.351c0.151,0,0.287-0.122,0.287-0.288
		v-28.349V886.835c0-0.154-0.121-0.288-0.287-0.288h-28.351c0.156,0,0.289,0.122,0.289,0.288V773.448
		c0,0.152-0.121,0.287-0.289,0.287h28.351c0.151,0,0.287-0.121,0.287-0.287V660.06c0-0.153-0.121-0.287-0.287-0.287h-28.351
		c0.156,0,0.289,0.121,0.289,0.287V546.672c0,0.154-0.121,0.288-0.289,0.288h28.351c0.151,0,0.287-0.122,0.287-0.288V404.944
		c0-0.154-0.121-0.288-0.287-0.288h-28.351"/>
	<path fill="none" stroke="#000000" stroke-width="0.2" stroke-miterlimit="10" d="M1294.323,404.944
		c0-0.153-0.123-0.287-0.289-0.287h-58.104H922.7"/>
	<path fill="none" stroke="#000000" stroke-width="0.2" stroke-miterlimit="10" d="M1499.554,404.657h-205.23"/>
	<path fill="none" stroke="#000000" stroke-width="0.2" stroke-miterlimit="10" d="M717.476,404.944
		c0-0.153,205.391-0.287,205.225-0.287H659.081H345.857"/>
	<path fill="none" stroke="#000000" stroke-width="0.2" stroke-miterlimit="10" d="M923.383,404.944"/>
	<path fill="none" stroke="#000000" stroke-width="0.2" stroke-miterlimit="10" d="M981.78,404.657"/>
	<path fill="none" stroke="#000000" stroke-width="0.2" stroke-miterlimit="10" d="M287.46,404.944
		c0-0.154-146.953-0.287-147.119-0.287H82.229H53.886c-0.152,0-0.289,0.121-0.289,0.287l0,0v141.73c0,0.151,0.123,0.285,0.289,0.285
		h28.348c-0.151,0-0.287-0.119-0.287-0.285V660.06c0-0.152,0.121-0.287,0.287-0.287H53.886c-0.152,0-0.289,0.121-0.289,0.287
		v113.389c0,0.152,0.123,0.287,0.289,0.287h28.348c-0.151,0-0.287-0.121-0.287-0.287v113.386c0-0.154,0.121-0.287,0.287-0.287
		H53.886c-0.152,0-0.289,0.121-0.289,0.287v141.729v28.35c0,0.152,0.123,0.287,0.289,0.287h28.348"/>
	<path fill="none" stroke="#000000" stroke-width="0.2" stroke-miterlimit="10" d="M345.857,404.657h-58.109
		c-0.154,0-0.287,0.121-0.287,0.287"/>
</g>
<g>
	<path fill="none" stroke="#000000" stroke-width="0.2" stroke-miterlimit="10" d="M1822.625,303.644v787.719
		c0,0.152,0.121-730.741,0.287-730.741"/>
	<path fill="none" stroke="#000000" stroke-width="0.2" stroke-miterlimit="10" d="M1822.625,1091.363v658.022
		c0,0.154,0.121,0.288,0.287,0.288l0,0h99.213h99.211h28.348c0.155,0,0.288-0.122,0.288-0.288v-28.348V1522.61
		c0-0.153-0.122-0.287-0.288-0.287h-28.348c0.156,0,0.289,0.122,0.289,0.287v-113.388c0,0.154-0.123,0.287-0.289,0.287h28.348
		c0.155,0,0.288-0.121,0.288-0.287v-113.387c0-0.154-0.122-0.288-0.288-0.288h-28.348c0.156,0,0.289,0.122,0.289,0.288v-113.387
		c0,0.153-0.123,0.287-0.289,0.287h28.348c0.155,0,0.288-0.121,0.288-0.287v-113.385c0-0.155-0.122-0.288-0.288-0.288h-28.348
		c0.156,0,0.289,0.12,0.289,0.288V955.676c0,0.153-0.123,0.287-0.289,0.287h28.348c0.155,0,0.288-0.121,0.288-0.287V842.291
		c0-0.154-0.122-0.287-0.288-0.287h-28.348c0.156,0,0.289,0.121,0.289,0.287V728.904c0,0.153-0.123,0.288-0.289,0.288h28.348
		c0.155,0,0.288-0.122,0.288-0.288V615.519c0-0.154-0.122-0.287-0.288-0.287h-28.348c0.156,0,0.289,0.121,0.289,0.287V502.133
		c0,0.155-0.123,0.288-0.289,0.288h28.348c0.155,0,0.288-0.122,0.288-0.288V303.711v-28.347c0-0.154-0.122-0.288-0.288-0.288
		h-28.348h-99.213h-99.211c-0.156,0-0.289,0.122-0.289,0.288v28.348"/>
</g>
<g>
	<path fill="none" stroke="#000000" stroke-width="0.2" stroke-miterlimit="10" d="M2183.869,1862.792v113.387
		c0,0.154,0.121,0.287,0.287,0.287h28.351c-0.154,0-0.288-0.121-0.288-0.287v113.386c0-0.149,0.122-0.283,0.288-0.283h-28.351
		c-0.15,0-0.287,0.117-0.287,0.283v113.391c0,0.149,0.121,0.283,0.287,0.283h28.351c-0.154,0-0.288-0.117-0.288-0.283v113.386
		c0-0.153,0.122-0.287,0.288-0.287h-28.351c-0.15,0-0.287,0.121-0.287,0.287v113.384c0,0.153,0.121,0.286,0.287,0.286h28.351
		c-0.154,0-0.288-0.121-0.288-0.286v113.387c0-0.154,0.122-0.287,0.288-0.287h-28.351c-0.15,0-0.287,0.121-0.287,0.287v113.387
		c0,0.154,0.121,0.287,0.287,0.287h28.351c-0.154,0-0.288-0.121-0.288-0.287v113.382c0-0.153,0.122-0.287,0.288-0.287h-28.351
		c-0.15,0-0.287,0.121-0.287,0.287v113.388c0,0.153,0.121,0.287,0.287,0.287h28.351c-0.154,0-0.288-0.121-0.288-0.287v113.387
		c0-0.151,0.122-0.287,0.288-0.287h-28.351c-0.15,0-0.287,0.121-0.287,0.287v113.39c0,0.151,0.121,0.287,0.287,0.287h28.351
		c-0.154,0-0.288-0.121-0.288-0.287v113.38c0-0.152,0.122-0.287,0.288-0.287h-28.351c-0.15,0-0.287,0.121-0.287,0.287v113.389
		c0,0.152,0.121,0.285,0.287,0.285h28.351c-0.154,0-0.288-0.119-0.288-0.285v113.389c0-0.154,0.122-0.289,0.288-0.289h-28.351
		c-0.15,0-0.287,0.121-0.287,0.289v113.385c0,0.153,0.121,0.287,0.287,0.287h28.351h141.729c-0.154,0-0.289-0.121-0.289-0.287
		v28.348c0,0.154,0.123,0.289,0.289,0.289h113.389c0.152,0,0.287-0.121,0.287-0.289v-28.348c0,0.153-0.121,0.287-0.287,0.287
		h113.386c-0.153,0-0.287-0.121-0.287-0.287v28.348c0,0.154,0.121,0.289,0.287,0.289h113.388c0.153,0,0.286-0.121,0.286-0.289
		v-28.348c0,0.153-0.12,0.287-0.286,0.287h141.73c0.152,0,0.287-0.121,0.287-0.287l0,0V1862.792c0-0.154-0.121-0.287-0.287-0.287
		l0,0h-141.73c0.153,0,0.286,0.121,0.286,0.287v-28.347c0-0.155-0.12-0.288-0.286-0.288H2581.01c-0.153,0-0.287,0.122-0.287,0.288
		v28.347c0-0.154,0.121-0.287,0.287-0.287h-113.387c0.152,0,0.287,0.121,0.287,0.287v-28.347c0-0.155-0.121-0.288-0.287-0.288
		h-113.389c-0.152,0-0.288,0.122-0.288,0.288v28.347c0-0.154,0.122-0.287,0.288-0.287h-141.729h-28.351
		C2184.002,1862.503,2183.869,1862.626,2183.869,1862.792L2183.869,1862.792"/>
	<g>
		<g>
			<path fill="none" stroke="#FF0000" stroke-width="0.2" stroke-miterlimit="10" d="M2474.004,2328.797
				c-5.295,0-5.295-7.938,0-7.938S2479.299,2328.797,2474.004,2328.797"/>
			<path fill="none" stroke="#FF0000" stroke-width="0.2" stroke-miterlimit="10" d="M2477.969,3101.527c0,5.293-7.93,5.293-7.93,0
				C2470.039,3096.247,2477.969,3096.247,2477.969,3101.527"/>
			<path fill="none" stroke="#FF0000" stroke-width="0.2" stroke-miterlimit="10" d="M2746.129,3097.562
				c5.293,0,5.293,7.929,0,7.929C2740.848,3105.491,2740.848,3097.562,2746.129,3097.562"/>
			<path fill="none" stroke="#FF0000" stroke-width="0.2" stroke-miterlimit="10" d="M2742.166,2324.835
				c0-5.293,7.931-5.293,7.931,0C2750.094,2330.116,2742.166,2330.116,2742.166,2324.835"/>
			<g>
				
					<text transform="matrix(-4.371139e-08 1 -1 -4.371139e-08 2662.6721 2852.7751)" fill="none" stroke="#FF0000" stroke-width="0.2001" stroke-miterlimit="10" font-family="'MyriadPro-Regular'" font-size="8.7792">Infrared sensor</text>
				
					<text transform="matrix(-4.371139e-08 1 -1 -4.371139e-08 2662.6721 2972.9333)" fill="none" stroke="#FF0000" stroke-width="0.2001" stroke-miterlimit="10" font-family="'MyriadPro-Regular'" font-size="8.7792">Light sensor</text>
				<g>
					
						<rect x="2642.176" y="2852.846" fill="none" stroke="#0000FF" stroke-width="0.2001" stroke-miterlimit="10" width="15.591" height="29.768"/>
					
						<rect x="2642.176" y="2973.081" fill="none" stroke="#0000FF" stroke-width="0.2001" stroke-miterlimit="10" width="15.591" height="29.764"/>
				</g>
			</g>
		</g>
		<g>
			<g>
				<circle fill="none" stroke="#0000FF" stroke-width="0.2001" stroke-miterlimit="10" cx="2726.601" cy="2381.292" r="8.504"/>
			</g>
			<g>
				<g>
					<circle fill="none" stroke="#0000FF" stroke-width="0.2001" stroke-miterlimit="10" cx="2726.601" cy="2423.292" r="8.504"/>
				</g>
			</g>
		</g>
	</g>
</g>
<path fill="none" stroke="#010101" stroke-width="0.2" stroke-miterlimit="10" d="M3084.875,1825.053v1700.784
	c0,0.154,0.123,0.287,0.289,0.287l0,0h99.211h99.213h28.352c0.154,0,0.287-0.121,0.287-0.287l0,0v-113.386
	c0-0.154-0.121-0.287-0.287-0.287h-28.352c0.156,0,0.289,0.121,0.289,0.287v-113.386c0,0.153-0.123,0.287-0.289,0.287h28.352
	c0.154,0,0.287-0.121,0.287-0.287v-113.388c0-0.153-0.121-0.287-0.287-0.287h-28.352c0.156,0,0.289,0.121,0.289,0.287v-113.385
	c0,0.151-0.123,0.287-0.289,0.287h28.352c0.154,0,0.287-0.121,0.287-0.287v-113.39c0-0.151-0.121-0.287-0.287-0.287h-28.352
	c0.156,0,0.289,0.121,0.289,0.287v-113.387c0,0.152-0.123,0.289-0.289,0.289h28.352c0.154,0,0.287-0.121,0.287-0.289v-113.389
	c0-0.15-0.121-0.287-0.287-0.287h-28.352c0.156,0,0.289,0.121,0.289,0.287l0.002-113.388c0,0.154-0.123,0.287-0.289,0.287h28.35
	c0.153,0,0.287-0.121,0.287-0.287v-113.387c0-0.154-0.121-0.289-0.287-0.289h-28.35c0.154,0,0.289,0.123,0.289,0.289V2391.97
	c0,0.153-0.123,0.287-0.289,0.287h28.35c0.153,0,0.287-0.121,0.287-0.287v-113.388c0-0.153-0.121-0.287-0.287-0.287h-28.35
	c0.154,0,0.289,0.121,0.289,0.287V2165.2c0,0.153-0.123,0.287-0.289,0.287h28.35c0.153,0,0.287-0.121,0.287-0.287v-113.386
	c0-0.153-0.121-0.289-0.287-0.289h-28.35c0.154,0,0.289,0.123,0.289,0.289v-113.382c0,0.152-0.123,0.285-0.289,0.285h28.35
	c0.153,0,0.287-0.119,0.287-0.285V1825.05c0-0.154-0.121-0.289-0.287-0.289h-28.35h-99.215h-99.211
	C3085.01,1824.763,3084.875,1824.885,3084.875,1825.053L3084.875,1825.053"/>
<path fill="none" stroke="#010101" stroke-width="0.2" stroke-miterlimit="10" d="M3074.785,3525.836V1825.049
	c0-0.154-0.121-0.287-0.287-0.287l0,0h-99.213h-99.213h-28.347c-0.154,0-0.287,0.121-0.287,0.287l0,0v113.387
	c0,0.154,0.121,0.287,0.287,0.287h28.347c-0.152,0-0.288-0.121-0.288-0.287v113.385c0-0.151,0.122-0.284,0.288-0.284h-28.347
	c-0.154,0-0.287,0.12-0.287,0.284v113.39c0,0.151,0.121,0.287,0.287,0.287h28.347c-0.152,0-0.288-0.121-0.288-0.287v113.386
	c0-0.153,0.122-0.287,0.288-0.287h-28.347c-0.154,0-0.287,0.121-0.287,0.287v113.388c0,0.153,0.121,0.287,0.287,0.287h28.347
	c-0.152,0-0.288-0.121-0.288-0.287v113.388c0-0.154,0.122-0.287,0.288-0.287h-28.347c-0.154,0-0.287,0.117-0.287,0.287v113.386
	c0,0.153,0.121,0.287,0.287,0.287h28.347c-0.152,0-0.288-0.121-0.288-0.287v113.384c0-0.154,0.122-0.287,0.288-0.287h-28.347
	c-0.154,0-0.287,0.121-0.287,0.287v113.385c0,0.154,0.121,0.289,0.287,0.289h28.347c-0.152,0-0.288-0.123-0.288-0.289v113.387
	c0-0.151,0.122-0.285,0.288-0.285h-28.347c-0.154,0-0.287,0.12-0.287,0.285v113.389c0,0.152,0.121,0.287,0.287,0.287h28.347
	c-0.152,0-0.288-0.121-0.288-0.287v113.387c0-0.153,0.122-0.289,0.288-0.289h-28.347c-0.154,0-0.287,0.123-0.287,0.289v113.386
	c0,0.153,0.121,0.287,0.287,0.287h28.347c-0.152,0-0.288-0.121-0.288-0.287v113.388c0-0.152,0.122-0.286,0.288-0.286h-28.347
	c-0.154,0-0.287,0.12-0.287,0.286v113.386c0,0.151,0.121,0.287,0.287,0.287h28.347h99.213h99.213
	C3074.653,3526.128,3074.785,3526.003,3074.785,3525.836L3074.785,3525.836"/>
<g>
	<path fill="none" stroke="#010101" stroke-width="0.2" stroke-miterlimit="10" d="M1566.507,303.713v1417.322v28.348
		c0,0.154,0.118,0.288,0.284,0.288l0,0h99.216h99.213h28.349c0.151,0,0.287-0.122,0.287-0.288v-28.348v-198.424
		c0-0.152-0.121-0.287-0.287-0.287h-28.349c0.151,0,0.284,0.123,0.284,0.287v-113.387c0,0.154-0.118,0.287-0.284,0.287h28.349
		c0.151,0,0.287-0.121,0.287-0.287v-113.387c0-0.154-0.121-0.288-0.287-0.288h-28.349c0.151,0,0.284,0.122,0.284,0.288v-113.386
		c0,0.153-0.118,0.288-0.284,0.288h28.349c0.151,0,0.287-0.122,0.287-0.288v-113.384c0-0.155-0.121-0.288-0.287-0.288h-28.349
		c0.151,0,0.284,0.122,0.284,0.288V955.683c0,0.154-0.118,0.287-0.284,0.287h28.349c0.151,0,0.287-0.121,0.287-0.287V842.297
		c0-0.154-0.121-0.287-0.287-0.287h-28.349c0.151,0,0.284,0.121,0.284,0.287V728.91c0,0.155-0.118,0.288-0.284,0.288h28.349
		c0.151,0,0.287-0.121,0.287-0.288V615.526c0-0.155-0.121-0.288-0.287-0.288h-28.349c0.151,0,0.284,0.121,0.284,0.288V502.138
		c0,0.153-0.118,0.288-0.284,0.288h28.349c0.151,0,0.287-0.121,0.287-0.288V303.714v-28.348c0-0.153-0.121-0.288-0.287-0.288
		h-28.349h-99.213h-99.216c-0.15,0-0.284,0.122-0.284,0.288V303.713"/>
</g>
<path fill="none" stroke="#010101" stroke-width="0.2" stroke-miterlimit="10" d="M1482.906,1853.115h-198.425
	c0.155,0,0.288,0.123,0.288,0.289v-28.351c0-0.153-0.122-0.289-0.288-0.289h-113.386c-0.155,0-0.288,0.123-0.288,0.289v28.352
	c0-0.156,0.122-0.289,0.288-0.289h-113.387c0.154,0,0.287,0.123,0.287,0.289v-28.352c0-0.153-0.121-0.289-0.287-0.289H944.323
	c-0.154,0-0.289,0.123-0.289,0.289v28.352c0-0.156,0.123-0.289,0.289-0.289H830.936c0.155,0,0.288,0.123,0.288,0.289v-28.352
	c0-0.153-0.122-0.289-0.288-0.289H717.552c-0.155,0-0.288,0.123-0.288,0.289v28.352c0-0.156,0.122-0.289,0.288-0.289H604.163
	c0.153,0,0.289,0.123,0.289,0.289v-28.352c0-0.153-0.123-0.289-0.289-0.289H490.776c-0.153,0-0.287,0.123-0.287,0.289v28.352
	c0-0.156,0.121-0.289,0.287-0.289H377.388c0.155,0,0.289,0.123,0.289,0.289v-28.352c0-0.153-0.123-0.289-0.289-0.289H264.004
	c-0.154,0-0.289,0.123-0.289,0.289v28.352c0-0.156,0.123-0.289,0.289-0.289H65.576c-0.152,0-0.287,0.123-0.287,0.289l0,0v113.385
	c0-0.153,0.121-0.287,0.287-0.287H37.229c-0.154,0-0.289,0.121-0.289,0.287v113.387c0,0.154,0.123,0.287,0.289,0.287h28.348
	c-0.152,0-0.287-0.121-0.287-0.287v113.386c0-0.152,0.121-0.285,0.287-0.285H37.229c-0.154,0-0.289,0.12-0.289,0.285v113.389
	c0,0.152,0.123,0.287,0.289,0.287h28.348c-0.152,0-0.287-0.121-0.287-0.287v113.386c0-0.154,0.121-0.287,0.287-0.287H37.229
	c-0.154,0-0.289,0.121-0.289,0.287v113.387c0,0.154,0.123,0.287,0.289,0.287h28.348c-0.152,0-0.287-0.121-0.287-0.287v113.388
	c0-0.152,0.121-0.287,0.287-0.287H37.229c-0.154,0-0.289,0.121-0.289,0.287v113.386c0,0.153,0.123,0.288,0.289,0.288h28.348
	c-0.152,0-0.287-0.121-0.287-0.288v113.389c0-0.156,0.121-0.289,0.287-0.289H37.229c-0.154,0-0.289,0.123-0.289,0.289v113.385
	c0,0.154,0.123,0.287,0.289,0.287h28.348c-0.152,0-0.287-0.121-0.287-0.287v113.388c0-0.152,0.121-0.287,0.287-0.287H37.229
	c-0.154,0-0.289,0.121-0.289,0.287v113.389c0,0.152,0.123,0.287,0.289,0.287h28.348c-0.152,0-0.287-0.121-0.287-0.287v113.386
	c0-0.153,0.121-0.287,0.287-0.287H37.229c-0.154,0-0.289,0.121-0.289,0.287v113.386c0,0.155,0.123,0.288,0.289,0.288h28.348
	c-0.152,0-0.287-0.123-0.287-0.288v113.387c0,0.152,0.121,0.287,0.287,0.287l0,0h198.428c-0.154,0-0.289-0.121-0.289-0.287v28.35
	c0,0.152,0.123,0.287,0.289,0.287H377.39c0.155,0,0.289-0.121,0.289-0.287v-28.35c0,0.152-0.123,0.287-0.289,0.287h113.388
	c-0.152,0-0.287-0.121-0.287-0.287v28.35c0,0.152,0.121,0.287,0.287,0.287h113.387c0.154,0,0.289-0.121,0.289-0.287v-28.35
	c0,0.152-0.123,0.287-0.289,0.287h113.389c-0.154,0-0.287-0.121-0.287-0.287v28.35c0,0.152,0.121,0.287,0.287,0.287H830.94
	c0.154,0,0.287-0.121,0.287-0.287v-28.35c0,0.152-0.121,0.287-0.287,0.287h113.385c-0.151,0-0.285-0.121-0.285-0.287v28.35
	c0,0.152,0.119,0.287,0.285,0.287h113.393c0.15,0,0.286-0.121,0.286-0.287v-28.35c0,0.152-0.12,0.287-0.286,0.287h113.387
	c-0.156,0-0.289-0.121-0.289-0.287v28.35c0,0.152,0.123,0.287,0.289,0.287h113.385c0.156,0,0.289-0.121,0.289-0.287v-28.35
	c0,0.152-0.123,0.287-0.289,0.287h198.428c0.152,0,0.286-0.121,0.286-0.287l0,0v-113.387c0,0.155-0.12,0.288-0.286,0.288h28.35
	c0.152,0,0.287-0.123,0.287-0.288v-113.386c0-0.155-0.121-0.289-0.287-0.289h-28.35c0.152,0,0.286,0.123,0.286,0.289v-113.388
	c0,0.154-0.12,0.289-0.286,0.289h28.35c0.152,0,0.287-0.123,0.287-0.289v-113.387c0-0.154-0.121-0.289-0.287-0.289h-28.35
	c0.152,0,0.286,0.123,0.286,0.289v-113.395c0,0.156-0.12,0.289-0.286,0.289h28.351c0.151,0,0.287-0.123,0.287-0.289v-113.385
	c0-0.154-0.121-0.289-0.287-0.289h-28.351c0.153,0,0.286,0.123,0.286,0.289v-113.39c0,0.15-0.12,0.287-0.286,0.287h28.351
	c0.151,0,0.287-0.121,0.287-0.287v-113.386c0-0.152-0.121-0.285-0.287-0.285h-28.351c0.153,0,0.286,0.12,0.286,0.285v-113.392
	c0,0.156-0.12,0.289-0.286,0.289h28.351c0.151,0,0.287-0.123,0.287-0.289v-113.385c0-0.156-0.121-0.289-0.287-0.289h-28.351
	c0.153,0,0.286,0.123,0.286,0.289v-113.388c0,0.153-0.12,0.287-0.286,0.287h28.351c0.151,0,0.287-0.121,0.287-0.287v-113.386
	c0-0.153-0.121-0.287-0.287-0.287h-28.351c0.153,0,0.286,0.121,0.286,0.287v-113.385c0,0.153-0.12,0.287-0.286,0.287h28.351
	c0.151,0,0.287-0.121,0.287-0.287v-113.388c0-0.153-0.121-0.287-0.287-0.287h-28.351c0.153,0,0.286,0.121,0.286,0.287v-113.387
	C1483.195,1853.249,1483.074,1853.115,1482.906,1853.115L1482.906,1853.115"/>
<path fill="none" stroke="#010101" stroke-width="0.2" stroke-miterlimit="10" d="M2114.101,303.71v198.426
	c0-0.154,0.123-0.287,0.289-0.287h-28.349c-0.156,0-0.289,0.121-0.289,0.287v113.387c0,0.154,0.123,0.287,0.289,0.287h28.349
	c-0.156,0-0.289-0.121-0.289-0.287v113.386c0-0.151,0.123-0.286,0.289-0.286h-28.349c-0.156,0-0.289,0.12-0.289,0.286v113.389
	c0,0.152,0.123,0.288,0.289,0.288h28.349c-0.156,0-0.289-0.121-0.289-0.288v113.386c0-0.155,0.123-0.288,0.289-0.288h-28.349
	c-0.156,0-0.289,0.122-0.289,0.288v113.386c0,0.154,0.123,0.288,0.289,0.288h28.349c-0.156,0-0.289-0.122-0.289-0.288v113.386
	c0-0.153,0.123-0.286,0.289-0.286h-28.349c-0.156,0-0.289,0.12-0.289,0.286v113.388c0,0.153,0.123,0.288,0.289,0.288h28.349
	c-0.156,0-0.289-0.122-0.289-0.288v113.386c0-0.155,0.123-0.288,0.289-0.288h-28.349c-0.156,0-0.289,0.122-0.289,0.288v113.386
	c0,0.154,0.123,0.287,0.289,0.287h28.349c-0.156,0-0.289-0.121-0.289-0.287v198.428c0,0.152,0.123,0.287,0.289,0.287l0,0h113.385
	c-0.15,0-0.287-0.121-0.287-0.287v28.349c0,0.154,0.121,0.288,0.287,0.288h113.39c0.151,0,0.284-0.122,0.284-0.288v-28.349
	c0,0.152-0.118,0.287-0.284,0.287h113.383c-0.153,0-0.286-0.121-0.286-0.287v28.349c0,0.154,0.12,0.288,0.286,0.288h113.388
	c0.153,0,0.287-0.122,0.287-0.288v-28.349c0,0.152-0.121,0.287-0.287,0.287h113.388c-0.154,0-0.287-0.121-0.287-0.287v28.349
	c0,0.154,0.121,0.288,0.287,0.288h113.385c0.154,0,0.287-0.122,0.287-0.288v-28.349c0,0.152-0.121,0.287-0.287,0.287h113.387
	c-0.152,0-0.287-0.121-0.287-0.287v28.349c0,0.154,0.121,0.288,0.287,0.288h113.384c0.154,0,0.288-0.122,0.288-0.288v-28.349
	c0,0.152-0.121,0.287-0.288,0.287h113.39c-0.154,0-0.288-0.121-0.288-0.287v28.349c0,0.154,0.122,0.288,0.288,0.288h113.385
	c0.155,0,0.289-0.122,0.289-0.288v-28.349c0,0.152-0.123,0.287-0.289,0.287h113.387c-0.154,0-0.287-0.121-0.287-0.287v28.349
	c0,0.154,0.121,0.288,0.287,0.288h113.387c0.154,0,0.288-0.122,0.288-0.288v-28.349c0,0.152-0.122,0.287-0.288,0.287h113.389
	c-0.154,0-0.288-0.121-0.288-0.287v28.349c0,0.154,0.122,0.288,0.288,0.288h113.385c0.155,0,0.289-0.122,0.289-0.288v-28.349
	c0,0.152-0.123,0.287-0.289,0.287h113.387c0.154,0,0.288-0.121,0.288-0.287l0,0v-198.428c0,0.154-0.122,0.287-0.288,0.287h28.348
	c0.154,0,0.289-0.121,0.289-0.287v-113.387c0-0.154-0.123-0.288-0.289-0.288h-28.348c0.154,0,0.288,0.122,0.288,0.288v-113.386
	c0,0.152-0.122,0.288-0.288,0.288h28.348c0.154,0,0.289-0.122,0.289-0.288v-113.389c0-0.153-0.123-0.289-0.289-0.289h-28.348
	c0.154,0,0.288,0.123,0.288,0.289v-113.386c0,0.154-0.122,0.288-0.288,0.288h28.348c0.154,0,0.289-0.122,0.289-0.288V955.68
	c0-0.155-0.123-0.288-0.289-0.288h-28.348c0.154,0,0.288,0.122,0.288,0.288V842.294c0,0.151-0.122,0.287-0.288,0.287h28.348
	c0.154,0,0.289-0.12,0.289-0.287V728.906c0-0.151-0.123-0.287-0.289-0.287h-28.348c0.154,0,0.288,0.121,0.288,0.287V615.522
	c0,0.154-0.122,0.287-0.288,0.287h28.348c0.154,0,0.289-0.121,0.289-0.287V502.135c0-0.154-0.123-0.287-0.289-0.287h-28.348
	c0.154,0,0.288,0.121,0.288,0.287V303.71c0-0.154-0.122-0.287-0.288-0.287l0,0h-113.387c0.155,0,0.289,0.121,0.289,0.287v-28.348
	c0-0.153-0.123-0.288-0.289-0.288h-113.386c-0.155,0-0.288,0.122-0.288,0.288v28.348c0-0.154,0.122-0.287,0.288-0.287h-113.389
	c0.155,0,0.288,0.121,0.288,0.287v-28.348c0-0.153-0.122-0.288-0.288-0.288h-113.386c-0.155,0-0.288,0.122-0.288,0.288v28.348
	c0-0.154,0.122-0.287,0.288-0.287h-113.391c0.155,0,0.289,0.121,0.289,0.287v-28.348c0-0.153-0.123-0.288-0.289-0.288h-113.386
	c-0.155,0-0.288,0.122-0.288,0.288v28.348c0-0.154,0.122-0.287,0.288-0.287h-113.387c0.154,0,0.288,0.121,0.288,0.287v-28.348
	c0-0.153-0.121-0.288-0.288-0.288H2908.09c-0.153,0-0.286,0.122-0.286,0.288v28.348c0-0.154,0.12-0.287,0.286-0.287h-113.387
	c0.155,0,0.289,0.121,0.289,0.287v-28.348c0-0.153-0.123-0.288-0.289-0.288h-113.386c-0.153,0-0.286,0.122-0.286,0.288v28.348
	c0-0.154,0.121-0.287,0.286-0.287H2567.93c0.152,0,0.285,0.121,0.285,0.287v-28.348c0-0.153-0.119-0.288-0.285-0.288h-113.389
	c-0.152,0-0.287,0.122-0.287,0.288v28.348c0-0.154,0.121-0.287,0.287-0.287h-113.385c0.154,0,0.287,0.121,0.287,0.287v-28.348
	c0-0.153-0.121-0.288-0.287-0.288H2227.77c-0.154,0-0.287,0.122-0.287,0.288v28.348c0-0.154,0.121-0.287,0.287-0.287h-113.386
	C2114.234,303.422,2114.101,303.544,2114.101,303.71L2114.101,303.71"/>
<g>
	<path fill="none" stroke="#000000" stroke-width="0.2" stroke-miterlimit="10" d="M1524.324,1853.398v113.388
		c0,0.153,0.123,0.287,0.289,0.287h28.348c-0.152,0-0.285-0.121-0.285-0.287v113.387c0-0.155,0.119-0.289,0.285-0.289h-28.348
		c-0.155,0-0.289,0.123-0.289,0.289v113.386c0,0.155,0.123,0.288,0.289,0.288h28.348c-0.152,0-0.285-0.122-0.285-0.288v113.389
		c0-0.153,0.119-0.289,0.285-0.289h-28.348c-0.155,0-0.289,0.123-0.289,0.289v113.388c0,0.153,0.123,0.288,0.289,0.288h28.348
		c-0.152,0-0.285-0.122-0.285-0.288v113.387c0-0.155,0.119-0.289,0.285-0.289h-28.348c-0.155,0-0.289,0.123-0.289,0.289v113.386
		c0,0.155,0.123,0.288,0.289,0.288h28.348c-0.152,0-0.285-0.122-0.285-0.288v113.389c0-0.152,0.119-0.287,0.285-0.287h-28.348
		c-0.155,0-0.289,0.121-0.289,0.287v113.388c0,0.153,0.123,0.288,0.289,0.288h28.348c-0.152,0-0.285-0.121-0.285-0.288v113.387
		c0-0.153,0.119-0.287,0.285-0.287h-28.348c-0.155,0-0.289,0.121-0.289,0.287v113.388c0,0.153,0.123,0.286,0.289,0.286h28.348
		c-0.152,0-0.285-0.121-0.285-0.286v113.387c0-0.152,0.119-0.287,0.285-0.287h-28.348c-0.155,0-0.289,0.121-0.289,0.287v113.379
		c0,0.152,0.123,0.287,0.289,0.287h28.348c-0.152,0-0.285-0.121-0.285-0.287v113.386c0-0.153,0.119-0.287,0.285-0.287h-28.348
		c-0.155,0-0.289,0.121-0.289,0.287v113.388c0,0.151,0.123,0.287,0.289,0.287h28.348h141.73c-0.154,0-0.287-0.121-0.287-0.287
		v28.347c0,0.155,0.121,0.289,0.287,0.289h113.385c0.156,0,0.289-0.121,0.289-0.289v-28.347c0,0.151-0.123,0.287-0.289,0.287
		h113.389c-0.152,0-0.285-0.121-0.285-0.287v28.347c0,0.155,0.119,0.289,0.285,0.289h113.389c0.152,0,0.287-0.121,0.287-0.289
		v-28.347c0,0.151-0.121,0.287-0.287,0.287h141.729c0.154,0,0.289-0.121,0.289-0.287l0,0V1853.398c0-0.153-0.123-0.286-0.289-0.286
		l0,0h-141.729c0.154,0,0.287,0.12,0.287,0.286v-28.35c0-0.155-0.121-0.288-0.287-0.288h-113.387c-0.154,0-0.287,0.122-0.287,0.288
		v28.35c0-0.153,0.121-0.286,0.287-0.286h-113.391c0.156,0,0.289,0.12,0.289,0.286v-28.35c0-0.155-0.123-0.288-0.289-0.288h-113.385
		c-0.154,0-0.287,0.122-0.287,0.288v28.35c0-0.153,0.121-0.286,0.287-0.286h-141.729h-28.35
		C1524.459,1853.111,1524.324,1853.232,1524.324,1853.398L1524.324,1853.398"/>
</g>
<g>
	
		<line fill="none" stroke="#010101" stroke-width="0.2" stroke-miterlimit="10" x1="36.94" y1="117.062" x2="1737.727" y2="117.062"/>
	<g>
		<line fill="none" stroke="#010101" stroke-width="0.2" stroke-miterlimit="10" x1="36.94" y1="117.062" x2="36.94" y2="88.716"/>
		<line fill="none" stroke="#010101" stroke-width="0.2" stroke-miterlimit="10" x1="36.94" y1="88.716" x2="157.806" y2="88.716"/>
	</g>
	<g>
		
			<line fill="none" stroke="#010101" stroke-width="0.2" stroke-miterlimit="10" x1="1737.727" y1="117.062" x2="1737.727" y2="88.716"/>
		<path fill="none" stroke="#010101" stroke-width="0.2" stroke-miterlimit="10" d="M1666.862,88.716"/>
		<path fill="none" stroke="#010101" stroke-width="0.2" stroke-miterlimit="10" d="M1737.727,88.716"/>
	</g>
	<g>
		<g>
			
				<line fill="none" stroke="#010101" stroke-width="0.2" stroke-miterlimit="10" x1="157.806" y1="88.716" x2="157.806" y2="74.543"/>
			
				<line fill="none" stroke="#010101" stroke-width="0.2" stroke-miterlimit="10" x1="157.806" y1="74.543" x2="143.633" y2="74.543"/>
			<line fill="none" stroke="#010101" stroke-width="0.2" stroke-miterlimit="10" x1="214.5" y1="88.716" x2="214.5" y2="74.543"/>
			
				<line fill="none" stroke="#010101" stroke-width="0.2" stroke-miterlimit="10" x1="214.5" y1="74.543" x2="228.673" y2="74.543"/>
			
				<line fill="none" stroke="#010101" stroke-width="0.2" stroke-miterlimit="10" x1="228.673" y1="74.543" x2="228.673" y2="60.37"/>
			
				<line fill="none" stroke="#010101" stroke-width="0.2" stroke-miterlimit="10" x1="143.633" y1="74.543" x2="143.633" y2="60.37"/>
			
				<line fill="none" stroke="#010101" stroke-width="0.2" stroke-miterlimit="10" x1="143.634" y1="60.367" x2="228.673" y2="60.367"/>
			
				<line fill="none" stroke="#010101" stroke-width="0.2" stroke-miterlimit="10" x1="214.5" y1="88.716" x2="299.538" y2="88.716"/>
		</g>
		<g>
			
				<line fill="none" stroke="#010101" stroke-width="0.2" stroke-miterlimit="10" x1="299.806" y1="88.718" x2="299.806" y2="74.545"/>
			
				<line fill="none" stroke="#010101" stroke-width="0.2" stroke-miterlimit="10" x1="299.806" y1="74.545" x2="285.633" y2="74.545"/>
			<line fill="none" stroke="#010101" stroke-width="0.2" stroke-miterlimit="10" x1="356.5" y1="88.718" x2="356.5" y2="74.545"/>
			
				<line fill="none" stroke="#010101" stroke-width="0.2" stroke-miterlimit="10" x1="356.5" y1="74.545" x2="370.673" y2="74.545"/>
			
				<line fill="none" stroke="#010101" stroke-width="0.2" stroke-miterlimit="10" x1="370.673" y1="74.545" x2="370.673" y2="60.372"/>
			
				<line fill="none" stroke="#010101" stroke-width="0.2" stroke-miterlimit="10" x1="285.633" y1="74.545" x2="285.633" y2="60.372"/>
			
				<line fill="none" stroke="#010101" stroke-width="0.2" stroke-miterlimit="10" x1="285.634" y1="60.368" x2="370.673" y2="60.368"/>
			
				<line fill="none" stroke="#010101" stroke-width="0.2" stroke-miterlimit="10" x1="356.5" y1="88.718" x2="441.538" y2="88.718"/>
		</g>
		<g>
			
				<line fill="none" stroke="#010101" stroke-width="0.2" stroke-miterlimit="10" x1="441.702" y1="88.72" x2="441.702" y2="74.548"/>
			
				<line fill="none" stroke="#010101" stroke-width="0.2" stroke-miterlimit="10" x1="441.702" y1="74.548" x2="427.53" y2="74.548"/>
			
				<line fill="none" stroke="#010101" stroke-width="0.2" stroke-miterlimit="10" x1="498.396" y1="88.72" x2="498.396" y2="74.548"/>
			
				<line fill="none" stroke="#010101" stroke-width="0.2" stroke-miterlimit="10" x1="498.396" y1="74.548" x2="512.57" y2="74.548"/>
			
				<line fill="none" stroke="#010101" stroke-width="0.2" stroke-miterlimit="10" x1="512.57" y1="74.548" x2="512.57" y2="60.375"/>
			
				<line fill="none" stroke="#010101" stroke-width="0.2" stroke-miterlimit="10" x1="427.53" y1="74.548" x2="427.53" y2="60.375"/>
			
				<line fill="none" stroke="#010101" stroke-width="0.2" stroke-miterlimit="10" x1="427.53" y1="60.371" x2="512.57" y2="60.371"/>
			
				<line fill="none" stroke="#010101" stroke-width="0.2" stroke-miterlimit="10" x1="498.396" y1="88.72" x2="583.436" y2="88.72"/>
		</g>
		<g>
			
				<line fill="none" stroke="#010101" stroke-width="0.2" stroke-miterlimit="10" x1="583.367" y1="88.724" x2="583.367" y2="74.552"/>
			
				<line fill="none" stroke="#010101" stroke-width="0.2" stroke-miterlimit="10" x1="583.367" y1="74.552" x2="569.195" y2="74.552"/>
			
				<line fill="none" stroke="#010101" stroke-width="0.2" stroke-miterlimit="10" x1="640.062" y1="88.724" x2="640.062" y2="74.552"/>
			
				<line fill="none" stroke="#010101" stroke-width="0.2" stroke-miterlimit="10" x1="640.062" y1="74.552" x2="654.235" y2="74.552"/>
			
				<line fill="none" stroke="#010101" stroke-width="0.2" stroke-miterlimit="10" x1="654.235" y1="74.552" x2="654.235" y2="60.379"/>
			
				<line fill="none" stroke="#010101" stroke-width="0.2" stroke-miterlimit="10" x1="569.195" y1="74.552" x2="569.195" y2="60.379"/>
			
				<line fill="none" stroke="#010101" stroke-width="0.2" stroke-miterlimit="10" x1="569.196" y1="60.375" x2="654.235" y2="60.375"/>
			
				<line fill="none" stroke="#010101" stroke-width="0.2" stroke-miterlimit="10" x1="640.062" y1="88.724" x2="725.101" y2="88.724"/>
		</g>
		<g>
			<g>
				
					<line fill="none" stroke="#010101" stroke-width="0.2" stroke-miterlimit="10" x1="724.868" y1="88.716" x2="724.868" y2="74.543"/>
				
					<line fill="none" stroke="#010101" stroke-width="0.2" stroke-miterlimit="10" x1="724.868" y1="74.543" x2="710.696" y2="74.543"/>
				
					<line fill="none" stroke="#010101" stroke-width="0.2" stroke-miterlimit="10" x1="781.562" y1="88.716" x2="781.562" y2="74.543"/>
				
					<line fill="none" stroke="#010101" stroke-width="0.2" stroke-miterlimit="10" x1="781.562" y1="74.543" x2="795.735" y2="74.543"/>
				
					<line fill="none" stroke="#010101" stroke-width="0.2" stroke-miterlimit="10" x1="795.735" y1="74.543" x2="795.735" y2="60.37"/>
				
					<line fill="none" stroke="#010101" stroke-width="0.2" stroke-miterlimit="10" x1="710.696" y1="74.543" x2="710.696" y2="60.37"/>
				
					<line fill="none" stroke="#010101" stroke-width="0.2" stroke-miterlimit="10" x1="710.696" y1="60.366" x2="795.735" y2="60.366"/>
				
					<line fill="none" stroke="#010101" stroke-width="0.2" stroke-miterlimit="10" x1="781.562" y1="88.716" x2="866.602" y2="88.716"/>
			</g>
			<g>
				
					<line fill="none" stroke="#010101" stroke-width="0.2" stroke-miterlimit="10" x1="866.868" y1="88.718" x2="866.868" y2="74.545"/>
				
					<line fill="none" stroke="#010101" stroke-width="0.2" stroke-miterlimit="10" x1="866.868" y1="74.545" x2="852.696" y2="74.545"/>
				
					<line fill="none" stroke="#010101" stroke-width="0.2" stroke-miterlimit="10" x1="923.562" y1="88.718" x2="923.562" y2="74.545"/>
				
					<line fill="none" stroke="#010101" stroke-width="0.2" stroke-miterlimit="10" x1="923.562" y1="74.545" x2="937.735" y2="74.545"/>
				
					<line fill="none" stroke="#010101" stroke-width="0.2" stroke-miterlimit="10" x1="937.735" y1="74.545" x2="937.735" y2="60.372"/>
				
					<line fill="none" stroke="#010101" stroke-width="0.2" stroke-miterlimit="10" x1="852.696" y1="74.545" x2="852.696" y2="60.372"/>
				
					<line fill="none" stroke="#010101" stroke-width="0.2" stroke-miterlimit="10" x1="852.696" y1="60.368" x2="937.735" y2="60.368"/>
				
					<line fill="none" stroke="#010101" stroke-width="0.2" stroke-miterlimit="10" x1="923.562" y1="88.718" x2="1008.602" y2="88.718"/>
			</g>
			<g>
				
					<line fill="none" stroke="#010101" stroke-width="0.2" stroke-miterlimit="10" x1="1008.348" y1="88.719" x2="1008.348" y2="74.546"/>
				
					<line fill="none" stroke="#010101" stroke-width="0.2" stroke-miterlimit="10" x1="1008.348" y1="74.546" x2="994.175" y2="74.546"/>
				
					<line fill="none" stroke="#010101" stroke-width="0.2" stroke-miterlimit="10" x1="1065.041" y1="88.719" x2="1065.041" y2="74.546"/>
				
					<line fill="none" stroke="#010101" stroke-width="0.2" stroke-miterlimit="10" x1="1065.041" y1="74.546" x2="1079.216" y2="74.546"/>
				
					<line fill="none" stroke="#010101" stroke-width="0.2" stroke-miterlimit="10" x1="1079.216" y1="74.546" x2="1079.216" y2="60.373"/>
				
					<line fill="none" stroke="#010101" stroke-width="0.2" stroke-miterlimit="10" x1="994.175" y1="74.546" x2="994.175" y2="60.373"/>
				
					<line fill="none" stroke="#010101" stroke-width="0.2" stroke-miterlimit="10" x1="994.176" y1="60.369" x2="1079.216" y2="60.369"/>
				
					<line fill="none" stroke="#010101" stroke-width="0.2" stroke-miterlimit="10" x1="1065.041" y1="88.719" x2="1150.08" y2="88.719"/>
			</g>
			<g>
				
					<line fill="none" stroke="#010101" stroke-width="0.2" stroke-miterlimit="10" x1="1150.348" y1="88.72" x2="1150.348" y2="74.548"/>
				
					<line fill="none" stroke="#010101" stroke-width="0.2" stroke-miterlimit="10" x1="1150.348" y1="74.548" x2="1136.175" y2="74.548"/>
				
					<line fill="none" stroke="#010101" stroke-width="0.2" stroke-miterlimit="10" x1="1207.041" y1="88.72" x2="1207.041" y2="74.548"/>
				
					<line fill="none" stroke="#010101" stroke-width="0.2" stroke-miterlimit="10" x1="1207.041" y1="74.548" x2="1221.216" y2="74.548"/>
				
					<line fill="none" stroke="#010101" stroke-width="0.2" stroke-miterlimit="10" x1="1221.216" y1="74.548" x2="1221.216" y2="60.375"/>
				
					<line fill="none" stroke="#010101" stroke-width="0.2" stroke-miterlimit="10" x1="1136.175" y1="74.548" x2="1136.175" y2="60.375"/>
				
					<line fill="none" stroke="#010101" stroke-width="0.2" stroke-miterlimit="10" x1="1136.176" y1="60.371" x2="1221.216" y2="60.371"/>
				
					<line fill="none" stroke="#010101" stroke-width="0.2" stroke-miterlimit="10" x1="1207.041" y1="88.72" x2="1292.08" y2="88.72"/>
			</g>
		</g>
		<g>
			<g>
				
					<line fill="none" stroke="#010101" stroke-width="0.2" stroke-miterlimit="10" x1="1291.973" y1="88.719" x2="1291.973" y2="74.546"/>
				
					<line fill="none" stroke="#010101" stroke-width="0.2" stroke-miterlimit="10" x1="1291.973" y1="74.546" x2="1277.8" y2="74.546"/>
				
					<line fill="none" stroke="#010101" stroke-width="0.2" stroke-miterlimit="10" x1="1348.666" y1="88.719" x2="1348.666" y2="74.546"/>
				
					<line fill="none" stroke="#010101" stroke-width="0.2" stroke-miterlimit="10" x1="1348.666" y1="74.546" x2="1362.841" y2="74.546"/>
				
					<line fill="none" stroke="#010101" stroke-width="0.2" stroke-miterlimit="10" x1="1362.841" y1="74.546" x2="1362.841" y2="60.373"/>
				
					<line fill="none" stroke="#010101" stroke-width="0.2" stroke-miterlimit="10" x1="1277.8" y1="74.546" x2="1277.8" y2="60.373"/>
				
					<line fill="none" stroke="#010101" stroke-width="0.2" stroke-miterlimit="10" x1="1277.801" y1="60.369" x2="1362.841" y2="60.369"/>
				
					<line fill="none" stroke="#010101" stroke-width="0.2" stroke-miterlimit="10" x1="1348.666" y1="88.719" x2="1433.705" y2="88.719"/>
			</g>
			<g>
				
					<line fill="none" stroke="#010101" stroke-width="0.2" stroke-miterlimit="10" x1="1433.973" y1="88.72" x2="1433.973" y2="74.548"/>
				
					<line fill="none" stroke="#010101" stroke-width="0.2" stroke-miterlimit="10" x1="1433.973" y1="74.548" x2="1419.8" y2="74.548"/>
				
					<line fill="none" stroke="#010101" stroke-width="0.2" stroke-miterlimit="10" x1="1490.666" y1="88.72" x2="1490.666" y2="74.548"/>
				
					<line fill="none" stroke="#010101" stroke-width="0.2" stroke-miterlimit="10" x1="1490.666" y1="74.548" x2="1504.841" y2="74.548"/>
				
					<line fill="none" stroke="#010101" stroke-width="0.2" stroke-miterlimit="10" x1="1504.841" y1="74.548" x2="1504.841" y2="60.375"/>
				
					<line fill="none" stroke="#010101" stroke-width="0.2" stroke-miterlimit="10" x1="1419.8" y1="74.548" x2="1419.8" y2="60.375"/>
				
					<line fill="none" stroke="#010101" stroke-width="0.2" stroke-miterlimit="10" x1="1419.801" y1="60.371" x2="1504.841" y2="60.371"/>
				
					<line fill="none" stroke="#010101" stroke-width="0.2" stroke-miterlimit="10" x1="1490.666" y1="88.72" x2="1575.705" y2="88.72"/>
			</g>
			<g>
				
					<line fill="none" stroke="#010101" stroke-width="0.2" stroke-miterlimit="10" x1="1575.452" y1="88.721" x2="1575.452" y2="74.549"/>
				
					<line fill="none" stroke="#010101" stroke-width="0.2" stroke-miterlimit="10" x1="1575.452" y1="74.549" x2="1561.28" y2="74.549"/>
				
					<line fill="none" stroke="#010101" stroke-width="0.2" stroke-miterlimit="10" x1="1632.146" y1="88.721" x2="1632.146" y2="74.549"/>
				
					<line fill="none" stroke="#010101" stroke-width="0.2" stroke-miterlimit="10" x1="1632.146" y1="74.549" x2="1646.319" y2="74.549"/>
				
					<line fill="none" stroke="#010101" stroke-width="0.2" stroke-miterlimit="10" x1="1646.319" y1="74.549" x2="1646.319" y2="60.376"/>
				
					<line fill="none" stroke="#010101" stroke-width="0.2" stroke-miterlimit="10" x1="1561.28" y1="74.549" x2="1561.28" y2="60.376"/>
				
					<line fill="none" stroke="#010101" stroke-width="0.2" stroke-miterlimit="10" x1="1561.28" y1="60.372" x2="1646.319" y2="60.372"/>
				<path fill="none" stroke="#010101" stroke-width="0.2" stroke-miterlimit="10" d="M1632.146,88.721"/>
			</g>
		</g>
	</g>
	
		<line fill="none" stroke="#010101" stroke-width="0.2" stroke-miterlimit="10" x1="1632.146" y1="88.721" x2="1737.727" y2="88.721"/>
</g>
<g>
	<g>
		
			<line fill="none" stroke="#010101" stroke-width="0.2" stroke-miterlimit="10" x1="35.94" y1="130.438" x2="1737.727" y2="130.438"/>
		<g>
			
				<line fill="none" stroke="#010101" stroke-width="0.2" stroke-miterlimit="10" x1="35.94" y1="130.438" x2="35.94" y2="158.786"/>
			
				<line fill="none" stroke="#010101" stroke-width="0.2" stroke-miterlimit="10" x1="35.94" y1="158.786" x2="86.806" y2="158.786"/>
		</g>
		<g>
			
				<line fill="none" stroke="#010101" stroke-width="0.2" stroke-miterlimit="10" x1="1737.727" y1="130.438" x2="1737.727" y2="158.786"/>
			<path fill="none" stroke="#010101" stroke-width="0.2" stroke-miterlimit="10" d="M1595.862,158.786"/>
			<path fill="none" stroke="#010101" stroke-width="0.2" stroke-miterlimit="10" d="M1666.728,158.786"/>
		</g>
		<g>
			<g>
				
					<line fill="none" stroke="#010101" stroke-width="0.2" stroke-miterlimit="10" x1="86.806" y1="158.786" x2="86.806" y2="172.959"/>
				
					<line fill="none" stroke="#010101" stroke-width="0.2" stroke-miterlimit="10" x1="86.806" y1="172.959" x2="72.633" y2="172.959"/>
				
					<line fill="none" stroke="#010101" stroke-width="0.2" stroke-miterlimit="10" x1="143.5" y1="158.786" x2="143.5" y2="172.959"/>
				
					<line fill="none" stroke="#010101" stroke-width="0.2" stroke-miterlimit="10" x1="143.5" y1="172.959" x2="157.673" y2="172.959"/>
				
					<line fill="none" stroke="#010101" stroke-width="0.2" stroke-miterlimit="10" x1="157.673" y1="172.959" x2="157.673" y2="187.132"/>
				
					<line fill="none" stroke="#010101" stroke-width="0.2" stroke-miterlimit="10" x1="72.633" y1="172.959" x2="72.633" y2="187.132"/>
				
					<line fill="none" stroke="#010101" stroke-width="0.2" stroke-miterlimit="10" x1="72.634" y1="187.135" x2="157.673" y2="187.135"/>
				
					<line fill="none" stroke="#010101" stroke-width="0.2" stroke-miterlimit="10" x1="143.5" y1="158.786" x2="228.538" y2="158.786"/>
			</g>
			<g>
				
					<line fill="none" stroke="#010101" stroke-width="0.2" stroke-miterlimit="10" x1="228.806" y1="158.784" x2="228.806" y2="172.957"/>
				
					<line fill="none" stroke="#010101" stroke-width="0.2" stroke-miterlimit="10" x1="228.806" y1="172.957" x2="214.633" y2="172.957"/>
				
					<line fill="none" stroke="#010101" stroke-width="0.2" stroke-miterlimit="10" x1="285.5" y1="158.784" x2="285.5" y2="172.957"/>
				
					<line fill="none" stroke="#010101" stroke-width="0.2" stroke-miterlimit="10" x1="285.5" y1="172.957" x2="299.673" y2="172.957"/>
				
					<line fill="none" stroke="#010101" stroke-width="0.2" stroke-miterlimit="10" x1="299.673" y1="172.957" x2="299.673" y2="187.13"/>
				
					<line fill="none" stroke="#010101" stroke-width="0.2" stroke-miterlimit="10" x1="214.633" y1="172.957" x2="214.633" y2="187.13"/>
				
					<line fill="none" stroke="#010101" stroke-width="0.2" stroke-miterlimit="10" x1="214.634" y1="187.134" x2="299.673" y2="187.134"/>
				
					<line fill="none" stroke="#010101" stroke-width="0.2" stroke-miterlimit="10" x1="285.5" y1="158.784" x2="370.538" y2="158.784"/>
			</g>
			<g>
				
					<line fill="none" stroke="#010101" stroke-width="0.2" stroke-miterlimit="10" x1="370.702" y1="158.781" x2="370.702" y2="172.954"/>
				
					<line fill="none" stroke="#010101" stroke-width="0.2" stroke-miterlimit="10" x1="370.702" y1="172.954" x2="356.53" y2="172.954"/>
				
					<line fill="none" stroke="#010101" stroke-width="0.2" stroke-miterlimit="10" x1="427.396" y1="158.781" x2="427.396" y2="172.954"/>
				
					<line fill="none" stroke="#010101" stroke-width="0.2" stroke-miterlimit="10" x1="427.396" y1="172.954" x2="441.57" y2="172.954"/>
				
					<line fill="none" stroke="#010101" stroke-width="0.2" stroke-miterlimit="10" x1="441.57" y1="172.954" x2="441.57" y2="187.127"/>
				
					<line fill="none" stroke="#010101" stroke-width="0.2" stroke-miterlimit="10" x1="356.53" y1="172.954" x2="356.53" y2="187.127"/>
				
					<line fill="none" stroke="#010101" stroke-width="0.2" stroke-miterlimit="10" x1="356.53" y1="187.131" x2="441.57" y2="187.131"/>
				
					<line fill="none" stroke="#010101" stroke-width="0.2" stroke-miterlimit="10" x1="427.396" y1="158.781" x2="512.436" y2="158.781"/>
			</g>
			<g>
				
					<line fill="none" stroke="#010101" stroke-width="0.2" stroke-miterlimit="10" x1="512.367" y1="158.777" x2="512.367" y2="172.95"/>
				
					<line fill="none" stroke="#010101" stroke-width="0.2" stroke-miterlimit="10" x1="512.367" y1="172.95" x2="498.195" y2="172.95"/>
				
					<line fill="none" stroke="#010101" stroke-width="0.2" stroke-miterlimit="10" x1="569.062" y1="158.777" x2="569.062" y2="172.95"/>
				
					<line fill="none" stroke="#010101" stroke-width="0.2" stroke-miterlimit="10" x1="569.062" y1="172.95" x2="583.235" y2="172.95"/>
				
					<line fill="none" stroke="#010101" stroke-width="0.2" stroke-miterlimit="10" x1="583.235" y1="172.95" x2="583.235" y2="187.123"/>
				
					<line fill="none" stroke="#010101" stroke-width="0.2" stroke-miterlimit="10" x1="498.195" y1="172.95" x2="498.195" y2="187.123"/>
				
					<line fill="none" stroke="#010101" stroke-width="0.2" stroke-miterlimit="10" x1="498.196" y1="187.127" x2="583.235" y2="187.127"/>
				
					<line fill="none" stroke="#010101" stroke-width="0.2" stroke-miterlimit="10" x1="569.062" y1="158.777" x2="654.101" y2="158.777"/>
			</g>
			<g>
				<g>
					
						<line fill="none" stroke="#010101" stroke-width="0.2" stroke-miterlimit="10" x1="653.868" y1="158.786" x2="653.868" y2="172.959"/>
					
						<line fill="none" stroke="#010101" stroke-width="0.2" stroke-miterlimit="10" x1="653.868" y1="172.959" x2="639.696" y2="172.959"/>
					
						<line fill="none" stroke="#010101" stroke-width="0.2" stroke-miterlimit="10" x1="710.562" y1="158.786" x2="710.562" y2="172.959"/>
					
						<line fill="none" stroke="#010101" stroke-width="0.2" stroke-miterlimit="10" x1="710.562" y1="172.959" x2="724.736" y2="172.959"/>
					
						<line fill="none" stroke="#010101" stroke-width="0.2" stroke-miterlimit="10" x1="724.736" y1="172.959" x2="724.736" y2="187.132"/>
					
						<line fill="none" stroke="#010101" stroke-width="0.2" stroke-miterlimit="10" x1="639.696" y1="172.959" x2="639.696" y2="187.132"/>
					
						<line fill="none" stroke="#010101" stroke-width="0.2" stroke-miterlimit="10" x1="639.696" y1="187.135" x2="724.736" y2="187.135"/>
					
						<line fill="none" stroke="#010101" stroke-width="0.2" stroke-miterlimit="10" x1="710.562" y1="158.786" x2="795.602" y2="158.786"/>
				</g>
				<g>
					
						<line fill="none" stroke="#010101" stroke-width="0.2" stroke-miterlimit="10" x1="795.868" y1="158.784" x2="795.868" y2="172.957"/>
					
						<line fill="none" stroke="#010101" stroke-width="0.2" stroke-miterlimit="10" x1="795.868" y1="172.957" x2="781.696" y2="172.957"/>
					
						<line fill="none" stroke="#010101" stroke-width="0.2" stroke-miterlimit="10" x1="852.562" y1="158.784" x2="852.562" y2="172.957"/>
					
						<line fill="none" stroke="#010101" stroke-width="0.2" stroke-miterlimit="10" x1="852.562" y1="172.957" x2="866.736" y2="172.957"/>
					
						<line fill="none" stroke="#010101" stroke-width="0.2" stroke-miterlimit="10" x1="866.736" y1="172.957" x2="866.736" y2="187.13"/>
					
						<line fill="none" stroke="#010101" stroke-width="0.2" stroke-miterlimit="10" x1="781.696" y1="172.957" x2="781.696" y2="187.13"/>
					
						<line fill="none" stroke="#010101" stroke-width="0.2" stroke-miterlimit="10" x1="781.696" y1="187.134" x2="866.736" y2="187.134"/>
					
						<line fill="none" stroke="#010101" stroke-width="0.2" stroke-miterlimit="10" x1="852.562" y1="158.784" x2="937.602" y2="158.784"/>
				</g>
				<g>
					
						<line fill="none" stroke="#010101" stroke-width="0.2" stroke-miterlimit="10" x1="937.348" y1="158.784" x2="937.348" y2="172.956"/>
					
						<line fill="none" stroke="#010101" stroke-width="0.2" stroke-miterlimit="10" x1="937.348" y1="172.956" x2="923.175" y2="172.956"/>
					
						<line fill="none" stroke="#010101" stroke-width="0.2" stroke-miterlimit="10" x1="994.041" y1="158.784" x2="994.041" y2="172.956"/>
					
						<line fill="none" stroke="#010101" stroke-width="0.2" stroke-miterlimit="10" x1="994.041" y1="172.956" x2="1008.215" y2="172.956"/>
					
						<line fill="none" stroke="#010101" stroke-width="0.2" stroke-miterlimit="10" x1="1008.215" y1="172.956" x2="1008.215" y2="187.129"/>
					
						<line fill="none" stroke="#010101" stroke-width="0.2" stroke-miterlimit="10" x1="923.175" y1="172.956" x2="923.175" y2="187.129"/>
					
						<line fill="none" stroke="#010101" stroke-width="0.2" stroke-miterlimit="10" x1="923.176" y1="187.133" x2="1008.215" y2="187.133"/>
					
						<line fill="none" stroke="#010101" stroke-width="0.2" stroke-miterlimit="10" x1="994.041" y1="158.784" x2="1079.08" y2="158.784"/>
				</g>
				<g>
					
						<line fill="none" stroke="#010101" stroke-width="0.2" stroke-miterlimit="10" x1="1079.348" y1="158.782" x2="1079.348" y2="172.954"/>
					
						<line fill="none" stroke="#010101" stroke-width="0.2" stroke-miterlimit="10" x1="1079.348" y1="172.954" x2="1065.175" y2="172.954"/>
					
						<line fill="none" stroke="#010101" stroke-width="0.2" stroke-miterlimit="10" x1="1136.041" y1="158.782" x2="1136.041" y2="172.954"/>
					
						<line fill="none" stroke="#010101" stroke-width="0.2" stroke-miterlimit="10" x1="1136.041" y1="172.954" x2="1150.215" y2="172.954"/>
					
						<line fill="none" stroke="#010101" stroke-width="0.2" stroke-miterlimit="10" x1="1150.215" y1="172.954" x2="1150.215" y2="187.127"/>
					
						<line fill="none" stroke="#010101" stroke-width="0.2" stroke-miterlimit="10" x1="1065.175" y1="172.954" x2="1065.175" y2="187.127"/>
					
						<line fill="none" stroke="#010101" stroke-width="0.2" stroke-miterlimit="10" x1="1065.176" y1="187.131" x2="1150.215" y2="187.131"/>
					
						<line fill="none" stroke="#010101" stroke-width="0.2" stroke-miterlimit="10" x1="1136.041" y1="158.782" x2="1221.08" y2="158.782"/>
				</g>
			</g>
			<g>
				<g>
					
						<line fill="none" stroke="#010101" stroke-width="0.2" stroke-miterlimit="10" x1="1220.973" y1="158.783" x2="1220.973" y2="172.956"/>
					
						<line fill="none" stroke="#010101" stroke-width="0.2" stroke-miterlimit="10" x1="1220.973" y1="172.956" x2="1206.8" y2="172.956"/>
					
						<line fill="none" stroke="#010101" stroke-width="0.2" stroke-miterlimit="10" x1="1277.666" y1="158.783" x2="1277.666" y2="172.956"/>
					
						<line fill="none" stroke="#010101" stroke-width="0.2" stroke-miterlimit="10" x1="1277.666" y1="172.956" x2="1291.84" y2="172.956"/>
					
						<line fill="none" stroke="#010101" stroke-width="0.2" stroke-miterlimit="10" x1="1291.84" y1="172.956" x2="1291.84" y2="187.129"/>
					
						<line fill="none" stroke="#010101" stroke-width="0.2" stroke-miterlimit="10" x1="1206.8" y1="172.956" x2="1206.8" y2="187.129"/>
					
						<line fill="none" stroke="#010101" stroke-width="0.2" stroke-miterlimit="10" x1="1206.801" y1="187.133" x2="1291.84" y2="187.133"/>
					
						<line fill="none" stroke="#010101" stroke-width="0.2" stroke-miterlimit="10" x1="1277.666" y1="158.783" x2="1362.705" y2="158.783"/>
				</g>
				<g>
					
						<line fill="none" stroke="#010101" stroke-width="0.2" stroke-miterlimit="10" x1="1362.973" y1="158.781" x2="1362.973" y2="172.954"/>
					
						<line fill="none" stroke="#010101" stroke-width="0.2" stroke-miterlimit="10" x1="1362.973" y1="172.954" x2="1348.8" y2="172.954"/>
					
						<line fill="none" stroke="#010101" stroke-width="0.2" stroke-miterlimit="10" x1="1419.666" y1="158.781" x2="1419.666" y2="172.954"/>
					
						<line fill="none" stroke="#010101" stroke-width="0.2" stroke-miterlimit="10" x1="1419.666" y1="172.954" x2="1433.84" y2="172.954"/>
					
						<line fill="none" stroke="#010101" stroke-width="0.2" stroke-miterlimit="10" x1="1433.84" y1="172.954" x2="1433.84" y2="187.127"/>
					
						<line fill="none" stroke="#010101" stroke-width="0.2" stroke-miterlimit="10" x1="1348.8" y1="172.954" x2="1348.8" y2="187.127"/>
					
						<line fill="none" stroke="#010101" stroke-width="0.2" stroke-miterlimit="10" x1="1348.801" y1="187.131" x2="1433.84" y2="187.131"/>
					
						<line fill="none" stroke="#010101" stroke-width="0.2" stroke-miterlimit="10" x1="1419.666" y1="158.781" x2="1504.705" y2="158.781"/>
				</g>
				<g>
					
						<line fill="none" stroke="#010101" stroke-width="0.2" stroke-miterlimit="10" x1="1504.452" y1="158.78" x2="1504.452" y2="172.953"/>
					
						<line fill="none" stroke="#010101" stroke-width="0.2" stroke-miterlimit="10" x1="1504.452" y1="172.953" x2="1490.28" y2="172.953"/>
					
						<line fill="none" stroke="#010101" stroke-width="0.2" stroke-miterlimit="10" x1="1561.146" y1="158.78" x2="1561.146" y2="172.953"/>
					
						<line fill="none" stroke="#010101" stroke-width="0.2" stroke-miterlimit="10" x1="1561.146" y1="172.953" x2="1575.32" y2="172.953"/>
					
						<line fill="none" stroke="#010101" stroke-width="0.2" stroke-miterlimit="10" x1="1575.32" y1="172.953" x2="1575.32" y2="187.126"/>
					
						<line fill="none" stroke="#010101" stroke-width="0.2" stroke-miterlimit="10" x1="1490.28" y1="172.953" x2="1490.28" y2="187.126"/>
					
						<line fill="none" stroke="#010101" stroke-width="0.2" stroke-miterlimit="10" x1="1490.28" y1="187.13" x2="1575.32" y2="187.13"/>
					<path fill="none" stroke="#010101" stroke-width="0.2" stroke-miterlimit="10" d="M1561.146,158.78"/>
				</g>
			</g>
		</g>
		<path fill="none" stroke="#010101" stroke-width="0.2" stroke-miterlimit="10" d="M1666.728,158.78"/>
		<path fill="none" stroke="#010101" stroke-width="0.2" stroke-miterlimit="10" d="M1561.146,158.78"/>
	</g>
	
		<line fill="none" stroke="#010101" stroke-width="0.2" stroke-miterlimit="10" x1="1561.146" y1="158.78" x2="1646.705" y2="158.781"/>
	
		<line fill="none" stroke="#010101" stroke-width="0.2" stroke-miterlimit="10" x1="1646.452" y1="158.78" x2="1646.452" y2="172.953"/>
	
		<line fill="none" stroke="#010101" stroke-width="0.2" stroke-miterlimit="10" x1="1646.452" y1="172.953" x2="1632.28" y2="172.953"/>
	
		<line fill="none" stroke="#010101" stroke-width="0.2" stroke-miterlimit="10" x1="1703.146" y1="158.78" x2="1703.146" y2="172.953"/>
	
		<line fill="none" stroke="#010101" stroke-width="0.2" stroke-miterlimit="10" x1="1703.146" y1="172.953" x2="1717.32" y2="172.953"/>
	
		<line fill="none" stroke="#010101" stroke-width="0.2" stroke-miterlimit="10" x1="1717.32" y1="172.953" x2="1717.32" y2="187.126"/>
	
		<line fill="none" stroke="#010101" stroke-width="0.2" stroke-miterlimit="10" x1="1632.28" y1="172.953" x2="1632.28" y2="187.126"/>
	
		<line fill="none" stroke="#010101" stroke-width="0.2" stroke-miterlimit="10" x1="1632.28" y1="187.13" x2="1717.32" y2="187.13"/>
	
		<line fill="none" stroke="#010101" stroke-width="0.2" stroke-miterlimit="10" x1="1703.146" y1="158.786" x2="1737.727" y2="158.786"/>
</g>
</svg>
