<?xml version="1.0" encoding="utf-8"?>
<!-- Generator: Adobe Illustrator 16.0.0, SVG Export Plug-In . SVG Version: 6.00 Build 0)  -->
<!DOCTYPE svg PUBLIC "-//W3C//DTD SVG 1.1//EN" "http://www.w3.org/Graphics/SVG/1.1/DTD/svg11.dtd">
<svg version="1.1"
	 id="Calque_1" xmlns:cc="http://creativecommons.org/ns#" xmlns:dc="http://purl.org/dc/elements/1.1/" xmlns:rdf="http://www.w3.org/1999/02/22-rdf-syntax-ns#"
	 xmlns="http://www.w3.org/2000/svg" xmlns:xlink="http://www.w3.org/1999/xlink" x="0px" y="0px" width="3288.189px"
	 height="3855.119px" viewBox="0 0 3288.189 3855.119" enable-background="new 0 0 3288.189 3855.119" xml:space="preserve">
<title>HingeBox</title>
<path fill="none" stroke="#000000" stroke-width="0.2" stroke-miterlimit="10" d="M51.311,3803.164h119.056
	c0.155,0,0.288-0.122,0.288-0.288v-22.677c0,0.154-0.122,0.287-0.288,0.287h90.708c-0.154,0-0.287-0.121-0.287-0.287v22.677
	c0,0.155,0.121,0.288,0.287,0.288h90.709c0.155,0,0.288-0.122,0.288-0.288v-22.677c0,0.154-0.122,0.287-0.288,0.287h90.709
	c-0.155,0-0.288-0.121-0.288-0.287v22.677c0,0.155,0.122,0.288,0.288,0.288h90.709c0.154,0,0.287-0.122,0.287-0.288v-22.677
	c0,0.154-0.121,0.287-0.287,0.287h90.708c-0.154,0-0.287-0.121-0.287-0.287v22.677c0,0.155,0.121,0.288,0.287,0.288h90.709
	c0.155,0,0.288-0.122,0.288-0.288v-22.677c0,0.154-0.122,0.287-0.288,0.287h90.709c-0.155,0-0.288-0.121-0.288-0.287v22.677
	c0,0.155,0.122,0.288,0.288,0.288h90.708c0.155,0,0.288-0.122,0.288-0.288v-22.677c0,0.154-0.122,0.287-0.288,0.287h90.709
	c-0.155,0-0.288-0.121-0.288-0.287v22.677c0,0.155,0.122,0.288,0.288,0.288h90.709c0.154,0,0.288-0.122,0.288-0.288v-22.677
	c0,0.154-0.122,0.287-0.288,0.287h90.709c-0.155,0-0.288-0.121-0.288-0.287v22.677c0,0.155,0.121,0.288,0.288,0.288h90.708
	c0.155,0,0.288-0.122,0.288-0.288v-22.677c0,0.154-0.122,0.287-0.288,0.287h90.709c-0.155,0-0.288-0.121-0.288-0.287v22.677
	c0,0.155,0.122,0.288,0.288,0.288h119.055h22.678c0.154,0,0.288-0.122,0.288-0.288v-22.677v-175.748
	c0-0.155-0.122-0.288-0.288-0.288h-22.678c0.155,0,0.288,0.122,0.288,0.288v-90.709c0,0.154-0.122,0.288-0.288,0.288h22.678
	c0.154,0,0.288-0.122,0.288-0.288v-90.709c0-0.154-0.122-0.287-0.288-0.287h-22.678c0.155,0,0.288,0.121,0.288,0.287v-90.709
	c0,0.155-0.122,0.288-0.288,0.288h22.678c0.154,0,0.288-0.122,0.288-0.288v-175.748c0-0.154-0.122-0.287-0.288-0.287h-22.678H51.311
	H28.635c-0.155,0-0.288,0.121-0.288,0.287l0,0v175.748c0,0.155,0.122,0.288,0.288,0.288h22.677c-0.154,0-0.287-0.122-0.287-0.288
	v90.709c0-0.154,0.121-0.287,0.287-0.287H28.635c-0.155,0-0.288,0.121-0.288,0.287v90.709c0,0.154,0.122,0.288,0.288,0.288h22.677
	c-0.154,0-0.287-0.122-0.287-0.288v90.709c0-0.155,0.121-0.288,0.287-0.288H28.635c-0.155,0-0.288,0.122-0.288,0.288v175.748v22.677
	c0,0.155,0.122,0.288,0.288,0.288H51.311"/>
<path fill="none" stroke="#000000" stroke-width="0.2" stroke-miterlimit="10" d="M1525.892,3803.164h170.079
	c0.154,0,0.287-0.122,0.287-0.288v-22.677c0,0.154-0.121,0.287-0.287,0.287h90.708c-0.155,0-0.288-0.121-0.288-0.287v22.677
	c0,0.155,0.122,0.288,0.288,0.288h90.709c0.155,0,0.288-0.122,0.288-0.288v-22.677c0,0.154-0.122,0.287-0.288,0.287h90.708
	c-0.154,0-0.287-0.121-0.287-0.287v22.677c0,0.155,0.121,0.288,0.287,0.288h90.709c0.155,0,0.288-0.122,0.288-0.288v-22.677
	c0,0.154-0.122,0.287-0.288,0.287h90.709c-0.155,0-0.288-0.121-0.288-0.287v22.677c0,0.155,0.122,0.288,0.288,0.288h90.709
	c0.154,0,0.287-0.122,0.287-0.288v-22.677c0,0.154-0.121,0.287-0.287,0.287h90.708c-0.155,0-0.288-0.121-0.288-0.287v22.677
	c0,0.155,0.122,0.288,0.288,0.288h90.709c0.155,0,0.288-0.122,0.288-0.288v-22.677c0,0.154-0.122,0.287-0.288,0.287h90.708
	c-0.154,0-0.287-0.121-0.287-0.287v22.677c0,0.155,0.121,0.288,0.287,0.288h90.709c0.155,0,0.288-0.122,0.288-0.288v-22.677
	c0,0.154-0.122,0.287-0.288,0.287h90.709c-0.155,0-0.288-0.121-0.288-0.287v22.677c0,0.155,0.122,0.288,0.288,0.288h90.709
	c0.154,0,0.287-0.122,0.287-0.288v-22.677c0,0.154-0.121,0.287-0.287,0.287h90.708c-0.155,0-0.288-0.121-0.288-0.287v22.677
	c0,0.155,0.122,0.288,0.288,0.288h90.709c0.155,0,0.288-0.122,0.288-0.288v-22.677c0,0.154-0.122,0.287-0.288,0.287h90.708
	c-0.154,0-0.287-0.121-0.287-0.287v22.677c0,0.155,0.121,0.288,0.287,0.288h170.079c0.155,0,0.288-0.122,0.288-0.288v-22.677
	v-175.748c0,0.154-0.122,0.287-0.288,0.287h22.677c0.156,0,0.289-0.121,0.289-0.287v-90.709c0-0.155-0.122-0.288-0.289-0.288
	h-22.677c0.155,0,0.288,0.122,0.288,0.288v-90.709c0,0.155-0.122,0.288-0.288,0.288h22.677c0.156,0,0.289-0.122,0.289-0.288v-90.709
	c0-0.154-0.122-0.287-0.289-0.287h-22.677c0.155,0,0.288,0.121,0.288,0.287v-175.748c0-0.154-0.122-0.287-0.288-0.287l0,0H1525.892
	c-0.155,0-0.288,0.121-0.288,0.287l0,0v175.748c0-0.154,0.122-0.287,0.288-0.287h-22.677c-0.155,0-0.288,0.121-0.288,0.287v90.709
	c0,0.155,0.121,0.288,0.288,0.288h22.677c-0.155,0-0.288-0.122-0.288-0.288v90.709c0-0.155,0.122-0.288,0.288-0.288h-22.677
	c-0.155,0-0.288,0.122-0.288,0.288v90.709c0,0.154,0.121,0.287,0.288,0.287h22.677c-0.155,0-0.288-0.121-0.288-0.287v175.748v22.677
	C1525.604,3803.031,1525.726,3803.164,1525.892,3803.164L1525.892,3803.164"/>
<path fill="none" stroke="#000000" stroke-width="0.2" stroke-miterlimit="10" d="M1531.282,3144.961h170.079
	c0.154,0,0.287-0.121,0.287-0.287v-22.678c0,0.155-0.121,0.288-0.287,0.288h90.708c-0.155,0-0.288-0.122-0.288-0.288v22.678
	c0,0.154,0.122,0.287,0.288,0.287h90.709c0.155,0,0.288-0.121,0.288-0.287v-22.678c0,0.155-0.122,0.288-0.288,0.288h90.708
	c-0.154,0-0.287-0.122-0.287-0.288v22.678c0,0.154,0.121,0.287,0.287,0.287h90.709c0.155,0,0.288-0.121,0.288-0.287v-22.678
	c0,0.155-0.122,0.288-0.288,0.288h90.709c-0.155,0-0.288-0.122-0.288-0.288v22.678c0,0.154,0.122,0.287,0.288,0.287h90.709
	c0.154,0,0.287-0.121,0.287-0.287v-22.678c0,0.155-0.121,0.288-0.287,0.288h90.708c-0.155,0-0.288-0.122-0.288-0.288v22.678
	c0,0.154,0.122,0.287,0.288,0.287h90.709c0.155,0,0.288-0.121,0.288-0.287v-22.678c0,0.155-0.122,0.288-0.288,0.288h90.708
	c-0.154,0-0.287-0.122-0.287-0.288v22.678c0,0.154,0.121,0.287,0.287,0.287h90.709c0.155,0,0.288-0.121,0.288-0.287v-22.678
	c0,0.155-0.122,0.288-0.288,0.288h90.709c-0.155,0-0.288-0.122-0.288-0.288v22.678c0,0.154,0.122,0.287,0.288,0.287h90.709
	c0.154,0,0.287-0.121,0.287-0.287v-22.678c0,0.155-0.121,0.288-0.287,0.288h90.708c-0.155,0-0.288-0.122-0.288-0.288v22.678
	c0,0.154,0.122,0.287,0.288,0.287h90.709c0.155,0,0.288-0.121,0.288-0.287v-22.678c0,0.155-0.122,0.288-0.288,0.288h90.708
	c-0.154,0-0.287-0.122-0.287-0.288v22.678c0,0.154,0.121,0.287,0.287,0.287h170.079c0.155,0,0.288-0.121,0.288-0.287v-22.678
	v-175.748c0,0.155-0.122,0.288-0.288,0.288h22.677c0.156,0,0.289-0.122,0.289-0.288v-90.709c0-0.154-0.122-0.287-0.289-0.287
	h-22.677c0.155,0,0.288,0.121,0.288,0.287v-90.708c0,0.155-0.122,0.288-0.288,0.288h22.677c0.156,0,0.289-0.122,0.289-0.288v-90.709
	c0-0.155-0.122-0.288-0.289-0.288h-22.677c0.155,0,0.288,0.122,0.288,0.288v-175.748c0-0.155-0.122-0.288-0.288-0.288l0,0H1531.282
	c-0.155,0-0.288,0.122-0.288,0.288l0,0v175.748c0-0.155,0.122-0.288,0.288-0.288h-22.677c-0.155,0-0.288,0.122-0.288,0.288v90.709
	c0,0.155,0.121,0.288,0.288,0.288h22.677c-0.155,0-0.288-0.122-0.288-0.288v90.708c0-0.154,0.122-0.287,0.288-0.287h-22.677
	c-0.155,0-0.288,0.121-0.288,0.287v90.709c0,0.155,0.121,0.288,0.288,0.288h22.677c-0.155,0-0.288-0.122-0.288-0.288v175.748v22.678
	C1530.994,3144.828,1531.116,3144.961,1531.282,3144.961L1531.282,3144.961"/>
<path fill="none" stroke="#000000" stroke-width="0.2" stroke-miterlimit="10" d="M51.311,3144.961h119.056
	c0.155,0,0.288-0.121,0.288-0.287v-22.678c0,0.155-0.122,0.288-0.288,0.288h90.709c-0.155,0-0.288-0.122-0.288-0.288v22.678
	c0,0.154,0.121,0.287,0.288,0.287h90.708c0.155,0,0.288-0.121,0.288-0.287v-22.678c0,0.155-0.122,0.288-0.288,0.288h90.709
	c-0.155,0-0.288-0.122-0.288-0.288v22.678c0,0.154,0.122,0.287,0.288,0.287h90.709c0.154,0,0.288-0.121,0.288-0.287v-22.678
	c0,0.155-0.122,0.288-0.288,0.288h90.708c-0.154,0-0.287-0.122-0.287-0.288v22.678c0,0.154,0.121,0.287,0.287,0.287h90.709
	c0.155,0,0.288-0.121,0.288-0.287v-22.678c0,0.155-0.122,0.288-0.288,0.288h90.709c-0.155,0-0.288-0.122-0.288-0.288v22.678
	c0,0.154,0.122,0.287,0.288,0.287h90.708c0.155,0,0.288-0.121,0.288-0.287v-22.678c0,0.155-0.122,0.288-0.288,0.288h90.709
	c-0.155,0-0.288-0.122-0.288-0.288v22.678c0,0.154,0.122,0.287,0.288,0.287h90.709c0.154,0,0.288-0.121,0.288-0.287v-22.678
	c0,0.155-0.122,0.288-0.288,0.288h90.709c-0.155,0-0.288-0.122-0.288-0.288v22.678c0,0.154,0.121,0.287,0.288,0.287h90.708
	c0.155,0,0.288-0.121,0.288-0.287v-22.678c0,0.155-0.122,0.288-0.288,0.288h90.709c-0.155,0-0.288-0.122-0.288-0.288v22.678
	c0,0.154,0.122,0.287,0.288,0.287h119.055h22.678c0.154,0,0.288-0.121,0.288-0.287v-22.678v-175.748
	c0-0.155-0.122-0.288-0.288-0.288h-22.678c0.155,0,0.288,0.122,0.288,0.288v-90.709c0,0.155-0.122,0.288-0.288,0.288h22.678
	c0.154,0,0.288-0.122,0.288-0.288v-90.708c0-0.155-0.122-0.288-0.288-0.288h-22.678c0.155,0,0.288,0.122,0.288,0.288v-90.709
	c0,0.155-0.122,0.288-0.288,0.288h22.678c0.154,0,0.288-0.122,0.288-0.288v-175.748c0-0.155-0.122-0.288-0.288-0.288H28.369"/>
<path fill="none" stroke="#000000" stroke-width="0.2" stroke-miterlimit="10" d="M1468.635,2498.086"/>
<path fill="none" stroke="#000000" stroke-width="0.2" stroke-miterlimit="10" d="M51.334,2498.086H28.657
	c-0.155,0-0.288,0.122-0.288,0.288l0,0v175.748c0,0.155,0.122,0.288,0.288,0.288h22.677c-0.155,0-0.288-0.122-0.288-0.288v90.709
	c0-0.155,0.122-0.288,0.288-0.288H28.657c-0.155,0-0.288,0.122-0.288,0.288v90.708c0,0.155,0.122,0.288,0.288,0.288h22.677
	c-0.155,0-0.288-0.122-0.288-0.288v90.709c0-0.155,0.122-0.288,0.288-0.288H28.657c-0.155,0-0.288,0.122-0.288,0.288v175.748v22.678
	c0,0.154,0.122,0.287,0.288,0.287h22.677"/>
<path fill="none" stroke="#000000" stroke-width="0.2" stroke-miterlimit="10" d="M51.311,2486.759h50.783
	c0.174,0,1389.583-0.122,1389.583-0.288"/>
<path fill="none" stroke="#000000" stroke-width="0.2" stroke-miterlimit="10" d="M1491.389,2486.759
	c0.155,0,0.288-0.122,0.288-0.288l0,0v-99.213v-99.213v-22.677c0-0.155-0.122-0.288-0.288-0.288h-22.678h-119.055
	c-0.155,0-0.288,0.122-0.288,0.288v22.677c0-0.154,0.122-0.287,0.288-0.287h-90.709c0.155,0,0.288,0.121,0.288,0.287v-22.677
	c0-0.155-0.122-0.288-0.288-0.288h-90.708c-0.155,0-0.288,0.122-0.288,0.288v22.677c0-0.154,0.122-0.287,0.288-0.287h-90.709
	c0.155,0,0.288,0.121,0.288,0.287v-22.677c0-0.155-0.122-0.288-0.288-0.288h-90.709c-0.154,0-0.288,0.122-0.288,0.288v22.677
	c0-0.154,0.122-0.287,0.288-0.287h-90.708c0.154,0,0.287,0.121,0.287,0.287v-22.677c0-0.155-0.121-0.288-0.287-0.288h-90.709
	c-0.155,0-0.288,0.122-0.288,0.288v22.677c0-0.154,0.122-0.287,0.288-0.287h-90.709c0.155,0,0.288,0.121,0.288,0.287v-22.677
	c0-0.155-0.122-0.288-0.288-0.288h-90.708c-0.155,0-0.288,0.122-0.288,0.288v22.677c0-0.154,0.122-0.287,0.288-0.287h-90.709
	c0.155,0,0.288,0.121,0.288,0.287v-22.677c0-0.155-0.122-0.288-0.288-0.288H442.57c-0.154,0-0.288,0.122-0.288,0.288v22.677
	c0-0.154,0.122-0.287,0.288-0.287h-90.708c0.154,0,0.287,0.121,0.287,0.287v-22.677c0-0.155-0.121-0.288-0.287-0.288h-90.709
	c-0.155,0-0.288,0.122-0.288,0.288v22.677c0-0.154,0.122-0.287,0.288-0.287h-90.709c0.155,0,0.288,0.121,0.288,0.287v-22.677
	c0-0.155-0.122-0.288-0.288-0.288H51.389H28.712c-0.155,0-0.288,0.122-0.288,0.288v22.677v99.213v99.213
	c0,0.155,0.122,0.288,0.288,0.288h22.678"/>
<path fill="none" stroke="#000000" stroke-width="0.2" stroke-miterlimit="10" d="M1468.712,2486.759"/>
<path fill="none" stroke="#000000" stroke-width="0.2" stroke-miterlimit="10" d="M1423.07,2486.47c0,0.155,0.122,0.288,0.288,0.288
	"/>
<path fill="none" stroke="#000000" stroke-width="0.2" stroke-miterlimit="10" d="M1525.892,2486.759h1700.787
	c0.155,0,0.288-0.122,0.288-0.288l0,0v-99.213v-99.213v-22.677c0-0.155-0.122-0.288-0.288-0.288l0,0H3056.6
	c-0.154,0-0.287,0.122-0.287,0.288v22.677c0-0.154,0.121-0.287,0.287-0.287h-90.708c0.155,0,0.288,0.121,0.288,0.287v-22.677
	c0-0.155-0.122-0.288-0.288-0.288h-90.709c-0.155,0-0.288,0.122-0.288,0.288v22.677c0-0.154,0.122-0.287,0.288-0.287h-90.708
	c0.154,0,0.287,0.121,0.287,0.287v-22.677c0-0.155-0.121-0.288-0.287-0.288h-90.709c-0.155,0-0.288,0.122-0.288,0.288v22.677
	c0-0.154,0.122-0.287,0.288-0.287h-90.709c0.155,0,0.288,0.121,0.288,0.287v-22.677c0-0.155-0.122-0.288-0.288-0.288h-90.709
	c-0.154,0-0.287,0.122-0.287,0.288v22.677c0-0.154,0.121-0.287,0.287-0.287h-90.708c0.155,0,0.288,0.121,0.288,0.287v-22.677
	c0-0.155-0.122-0.288-0.288-0.288h-90.709c-0.155,0-0.288,0.122-0.288,0.288v22.677c0-0.154,0.122-0.287,0.288-0.287h-90.708
	c0.154,0,0.287,0.121,0.287,0.287v-22.677c0-0.155-0.121-0.288-0.287-0.288h-90.709c-0.155,0-0.288,0.122-0.288,0.288v22.677
	c0-0.154,0.122-0.287,0.288-0.287h-90.709c0.155,0,0.288,0.121,0.288,0.287v-22.677c0-0.155-0.122-0.288-0.288-0.288h-90.709
	c-0.154,0-0.287,0.122-0.287,0.288v22.677c0-0.154,0.121-0.287,0.287-0.287h-90.708c0.155,0,0.288,0.121,0.288,0.287v-22.677
	c0-0.155-0.122-0.288-0.288-0.288h-90.709c-0.155,0-0.288,0.122-0.288,0.288v22.677c0-0.154,0.122-0.287,0.288-0.287h-90.708
	c0.154,0,0.287,0.121,0.287,0.287v-22.677c0-0.155-0.121-0.288-0.287-0.288h-170.079c-0.155,0-0.288,0.122-0.288,0.288v22.677
	v99.213v99.213C1525.604,2486.626,1525.726,2486.759,1525.892,2486.759L1525.892,2486.759"/>
<path fill="none" stroke="#000000" stroke-width="0.2" stroke-miterlimit="10" d="M1525.892,2253.753h1700.787
	c0.155,0,0.288-0.122,0.288-0.288l0,0v-99.212v-99.213v-22.677c0-0.155-0.122-0.288-0.288-0.288l0,0H3056.6
	c-0.154,0-0.287,0.122-0.287,0.288v22.677c0-0.155,0.121-0.288,0.287-0.288h-90.708c0.155,0,0.288,0.122,0.288,0.288v-22.677
	c0-0.155-0.122-0.288-0.288-0.288h-90.709c-0.155,0-0.288,0.122-0.288,0.288v22.677c0-0.155,0.122-0.288,0.288-0.288h-90.708
	c0.154,0,0.287,0.122,0.287,0.288v-22.677c0-0.155-0.121-0.288-0.287-0.288h-90.709c-0.155,0-0.288,0.122-0.288,0.288v22.677
	c0-0.155,0.122-0.288,0.288-0.288h-90.709c0.155,0,0.288,0.122,0.288,0.288v-22.677c0-0.155-0.122-0.288-0.288-0.288h-90.709
	c-0.154,0-0.287,0.122-0.287,0.288v22.677c0-0.155,0.121-0.288,0.287-0.288h-90.708c0.155,0,0.288,0.122,0.288,0.288v-22.677
	c0-0.155-0.122-0.288-0.288-0.288h-90.709c-0.155,0-0.288,0.122-0.288,0.288v22.677c0-0.155,0.122-0.288,0.288-0.288h-90.708
	c0.154,0,0.287,0.122,0.287,0.288v-22.677c0-0.155-0.121-0.288-0.287-0.288h-90.709c-0.155,0-0.288,0.122-0.288,0.288v22.677
	c0-0.155,0.122-0.288,0.288-0.288h-90.709c0.155,0,0.288,0.122,0.288,0.288v-22.677c0-0.155-0.122-0.288-0.288-0.288h-90.709
	c-0.154,0-0.287,0.122-0.287,0.288v22.677c0-0.155,0.121-0.288,0.287-0.288h-90.708c0.155,0,0.288,0.122,0.288,0.288v-22.677
	c0-0.155-0.122-0.288-0.288-0.288h-90.709c-0.155,0-0.288,0.122-0.288,0.288v22.677c0-0.155,0.122-0.288,0.288-0.288h-90.708
	c0.154,0,0.287,0.122,0.287,0.288v-22.677c0-0.155-0.121-0.288-0.287-0.288h-170.079c-0.155,0-0.288,0.122-0.288,0.288v22.677
	v99.213v99.212C1525.604,2253.62,1525.726,2253.753,1525.892,2253.753L1525.892,2253.753"/>
<path fill="none" stroke="#000000" stroke-width="0.2" stroke-miterlimit="10" d="M51.311,2253.753h1417.323h22.678
	c0.154,0,0.288-0.122,0.288-0.288l0,0v-99.212v-99.213v-22.677c0-0.155-0.122-0.288-0.288-0.288h-22.678H1349.58
	c-0.155,0-0.288,0.122-0.288,0.288v22.677c0-0.155,0.122-0.288,0.288-0.288h-90.709c0.155,0,0.288,0.122,0.288,0.288v-22.677
	c0-0.155-0.122-0.288-0.288-0.288h-90.708c-0.155,0-0.288,0.122-0.288,0.288v22.677c0-0.155,0.121-0.288,0.288-0.288h-90.709
	c0.154,0,0.288,0.122,0.288,0.288v-22.677c0-0.155-0.122-0.288-0.288-0.288h-90.709c-0.155,0-0.288,0.122-0.288,0.288v22.677
	c0-0.155,0.122-0.288,0.288-0.288h-90.709c0.155,0,0.288,0.122,0.288,0.288v-22.677c0-0.155-0.122-0.288-0.288-0.288h-90.708
	c-0.155,0-0.288,0.122-0.288,0.288v22.677c0-0.155,0.122-0.288,0.288-0.288h-90.709c0.155,0,0.288,0.122,0.288,0.288v-22.677
	c0-0.155-0.122-0.288-0.288-0.288H623.91c-0.154,0-0.287,0.122-0.287,0.288v22.677c0-0.155,0.121-0.288,0.287-0.288h-90.708
	c0.154,0,0.287,0.122,0.287,0.288v-22.677c0-0.155-0.121-0.288-0.287-0.288h-90.709c-0.155,0-0.288,0.122-0.288,0.288v22.677
	c0-0.155,0.122-0.288,0.288-0.288h-90.709c0.155,0,0.288,0.122,0.288,0.288v-22.677c0-0.155-0.122-0.288-0.288-0.288h-90.709
	c-0.154,0-0.287,0.122-0.287,0.288v22.677c0-0.155,0.121-0.288,0.287-0.288h-90.708c0.155,0,0.288,0.122,0.288,0.288v-22.677
	c0-0.155-0.122-0.288-0.288-0.288H51.311H28.635c-0.155,0-0.288,0.122-0.288,0.288v22.677v99.213v99.212
	c0,0.155,0.122,0.288,0.288,0.288H51.311"/>
<path fill="none" stroke="#000000" stroke-width="0.2" stroke-miterlimit="10" d="M1525.892,1998.07h119.055
	c-0.154,0-0.288-0.122-0.288-0.288v22.677c0,0.155,0.122,0.288,0.288,0.288h90.709c0.155,0,0.288-0.122,0.288-0.288v-22.677
	c0,0.155-0.122,0.288-0.288,0.288h90.709c-0.155,0-0.288-0.122-0.288-0.288v22.677c0,0.155,0.121,0.288,0.288,0.288h90.708
	c0.155,0,0.288-0.122,0.288-0.288v-22.677c0,0.155-0.122,0.288-0.288,0.288h90.709c-0.155,0-0.288-0.122-0.288-0.288v22.677
	c0,0.155,0.122,0.288,0.288,0.288h90.709c0.154,0,0.287-0.122,0.287-0.288v-22.677c0,0.155-0.121,0.288-0.287,0.288h90.709
	c-0.156,0-0.289-0.122-0.289-0.288v22.677c0,0.155,0.122,0.288,0.289,0.288h90.708c0.155,0,0.288-0.122,0.288-0.288v-22.677
	c0,0.155-0.122,0.288-0.288,0.288h90.709c-0.155,0-0.288-0.122-0.288-0.288v22.677c0,0.155,0.121,0.288,0.288,0.288h90.708
	c0.155,0,0.288-0.122,0.288-0.288v-22.677c0,0.155-0.122,0.288-0.288,0.288h90.709c-0.155,0-0.288-0.122-0.288-0.288v22.677
	c0,0.155,0.122,0.288,0.288,0.288h90.709c0.154,0,0.287-0.122,0.287-0.288v-22.677c0,0.155-0.121,0.288-0.287,0.288h90.709
	c-0.156,0-0.289-0.122-0.289-0.288v22.677c0,0.155,0.122,0.288,0.289,0.288h90.708c0.155,0,0.288-0.122,0.288-0.288v-22.677
	c0,0.155-0.122,0.288-0.288,0.288h119.056c0.154,0,0.287-0.122,0.287-0.288l0,0v-170.079c0,0.155-0.121,0.288-0.287,0.288h22.677
	c0.155,0,0.288-0.122,0.288-0.288v-90.709c0-0.154-0.122-0.287-0.288-0.287h-22.677c0.154,0,0.287,0.121,0.287,0.287v-90.708
	c0,0.155-0.121,0.288-0.287,0.288h22.677c0.155,0,0.288-0.122,0.288-0.288v-90.709c0-0.155-0.122-0.288-0.288-0.288h-22.677
	c0.154,0,0.287,0.122,0.287,0.288v-90.708c0,0.154-0.121,0.287-0.287,0.287h22.677c0.155,0,0.288-0.121,0.288-0.287v-90.709
	c0-0.155-0.122-0.288-0.288-0.288h-22.677c0.154,0,0.287,0.122,0.287,0.288v-90.709c0,0.155-0.121,0.288-0.287,0.288h22.677
	c0.155,0,0.288-0.122,0.288-0.288v-90.709c0-0.154-0.122-0.287-0.288-0.287h-22.677c0.154,0,0.287,0.121,0.287,0.287v-90.708
	c0,0.155-0.121,0.288-0.287,0.288h22.677c0.155,0,0.288-0.122,0.288-0.288v-90.709c0-0.155-0.122-0.288-0.288-0.288h-22.677
	c0.154,0,0.287,0.122,0.287,0.288v-90.708c0,0.154-0.121,0.287-0.287,0.287h22.677c0.155,0,0.288-0.121,0.288-0.287v-90.709
	c0-0.155-0.122-0.288-0.288-0.288h-22.677c0.154,0,0.287,0.122,0.287,0.288v-90.709c0,0.155-0.121,0.288-0.287,0.288h22.677
	c0.155,0,0.288-0.122,0.288-0.288V648.49c0-0.154-0.122-0.287-0.288-0.287h-22.677c0.154,0,0.287,0.121,0.287,0.287v-90.708
	c0,0.155-0.121,0.288-0.287,0.288h22.677c0.155,0,0.288-0.122,0.288-0.288v-90.709c0-0.155-0.122-0.288-0.288-0.288h-22.677
	c0.154,0,0.287,0.122,0.287,0.288V296.994c0-0.154-0.121-0.288-0.287-0.288l0,0H2824.16c0.155,0,0.288,0.122,0.288,0.288v-22.677
	c0-0.155-0.122-0.288-0.288-0.288h-90.708c-0.156,0-0.289,0.122-0.289,0.288v22.677c0-0.154,0.122-0.288,0.289-0.288h-90.709
	c0.154,0,0.287,0.122,0.287,0.288v-22.677c0-0.155-0.121-0.288-0.287-0.288h-90.709c-0.155,0-0.288,0.122-0.288,0.288v22.677
	c0-0.154,0.122-0.288,0.288-0.288h-90.709c0.155,0,0.288,0.122,0.288,0.288v-22.677c0-0.155-0.122-0.288-0.288-0.288h-90.708
	c-0.155,0-0.288,0.122-0.288,0.288v22.677c0-0.154,0.121-0.288,0.288-0.288h-90.709c0.155,0,0.288,0.122,0.288,0.288v-22.677
	c0-0.155-0.122-0.288-0.288-0.288H2189.2c-0.156,0-0.289,0.122-0.289,0.288v22.677c0-0.154,0.122-0.288,0.289-0.288h-90.709
	c0.154,0,0.287,0.122,0.287,0.288v-22.677c0-0.155-0.121-0.288-0.287-0.288h-90.709c-0.155,0-0.288,0.122-0.288,0.288v22.677
	c0-0.154,0.122-0.288,0.288-0.288h-90.709c0.155,0,0.288,0.122,0.288,0.288v-22.677c0-0.155-0.122-0.288-0.288-0.288h-90.708
	c-0.155,0-0.288,0.122-0.288,0.288v22.677c0-0.154,0.121-0.288,0.288-0.288h-90.709c0.155,0,0.288,0.122,0.288,0.288v-22.677
	c0-0.155-0.122-0.288-0.288-0.288h-90.709c-0.154,0-0.288,0.122-0.288,0.288v22.677c0-0.154,0.122-0.288,0.288-0.288h-119.055
	c-0.155,0-0.288,0.122-0.288,0.288l0,0v170.079c0-0.155,0.122-0.288,0.288-0.288h-22.677c-0.155,0-0.288,0.122-0.288,0.288v90.709
	c0,0.155,0.121,0.288,0.288,0.288h22.677c-0.155,0-0.288-0.122-0.288-0.288v90.708c0-0.154,0.122-0.287,0.288-0.287h-22.677
	c-0.155,0-0.288,0.121-0.288,0.287v90.709c0,0.155,0.121,0.288,0.288,0.288h22.677c-0.155,0-0.288-0.122-0.288-0.288v90.709
	c0-0.155,0.122-0.288,0.288-0.288h-22.677c-0.155,0-0.288,0.122-0.288,0.288v90.709c0,0.154,0.121,0.287,0.288,0.287h22.677
	c-0.155,0-0.288-0.121-0.288-0.287v90.708c0-0.155,0.122-0.288,0.288-0.288h-22.677c-0.155,0-0.288,0.122-0.288,0.288v90.709
	c0,0.155,0.121,0.288,0.288,0.288h22.677c-0.155,0-0.288-0.122-0.288-0.288v90.708c0-0.154,0.122-0.287,0.288-0.287h-22.677
	c-0.155,0-0.288,0.121-0.288,0.287v90.709c0,0.155,0.121,0.288,0.288,0.288h22.677c-0.155,0-0.288-0.122-0.288-0.288v90.709
	c0-0.155,0.122-0.288,0.288-0.288h-22.677c-0.155,0-0.288,0.122-0.288,0.288v90.709c0,0.154,0.121,0.287,0.288,0.287h22.677
	c-0.155,0-0.288-0.121-0.288-0.287v90.708c0-0.155,0.122-0.288,0.288-0.288h-22.677c-0.155,0-0.288,0.122-0.288,0.288v90.709
	c0,0.155,0.121,0.288,0.288,0.288h22.677c-0.155,0-0.288-0.122-0.288-0.288v90.708c0-0.154,0.122-0.287,0.288-0.287h-22.677
	c-0.155,0-0.288,0.121-0.288,0.287v90.709c0,0.155,0.121,0.288,0.288,0.288h22.677c-0.155,0-0.288-0.122-0.288-0.288v170.079
	C1525.604,1997.937,1525.726,1998.07,1525.892,1998.07L1525.892,1998.07"/>
<path fill="none" stroke="#000000" stroke-width="0.2" stroke-miterlimit="10" d="M51.311,1998.07h119.056
	c-0.155,0-0.288-0.122-0.288-0.288v22.677c0,0.155,0.122,0.288,0.288,0.288h90.708c0.155,0,0.288-0.122,0.288-0.288v-22.677
	c0,0.155-0.121,0.288-0.288,0.288h90.709c-0.154,0-0.287-0.122-0.287-0.288v22.677c0,0.155,0.121,0.288,0.287,0.288h90.709
	c0.155,0,0.288-0.122,0.288-0.288v-22.677c0,0.155-0.122,0.288-0.288,0.288h90.709c-0.155,0-0.288-0.122-0.288-0.288v22.677
	c0,0.155,0.122,0.288,0.288,0.288h90.708c0.155,0,0.288-0.122,0.288-0.288v-22.677c0,0.155-0.121,0.288-0.288,0.288h90.709
	c-0.155,0-0.288-0.122-0.288-0.288v22.677c0,0.155,0.122,0.288,0.288,0.288h90.709c0.155,0,0.288-0.122,0.288-0.288v-22.677
	c0,0.155-0.122,0.288-0.288,0.288h90.708c-0.154,0-0.287-0.122-0.287-0.288v22.677c0,0.155,0.121,0.288,0.287,0.288h90.709
	c0.155,0,0.288-0.122,0.288-0.288v-22.677c0,0.155-0.122,0.288-0.288,0.288h90.709c-0.155,0-0.288-0.122-0.288-0.288v22.677
	c0,0.155,0.122,0.288,0.288,0.288h90.709c0.154,0,0.287-0.122,0.287-0.288v-22.677c0,0.155-0.121,0.288-0.287,0.288h90.708
	c-0.155,0-0.288-0.122-0.288-0.288v22.677c0,0.155,0.122,0.288,0.288,0.288h90.709c0.155,0,0.288-0.122,0.288-0.288v-22.677
	c0,0.155-0.122,0.288-0.288,0.288h119.055c0.155,0,0.288-0.122,0.288-0.288l0,0v-170.079c0,0.155-0.122,0.288-0.288,0.288h22.678
	c0.154,0,0.288-0.122,0.288-0.288v-90.709c0-0.154-0.122-0.287-0.288-0.287h-22.678c0.155,0,0.288,0.121,0.288,0.287v-90.708
	c0,0.155-0.122,0.288-0.288,0.288h22.678c0.154,0,0.288-0.122,0.288-0.288v-90.709c0-0.155-0.122-0.288-0.288-0.288h-22.678
	c0.155,0,0.288,0.122,0.288,0.288v-90.708c0,0.154-0.122,0.287-0.288,0.287h22.678c0.154,0,0.288-0.121,0.288-0.287v-90.709
	c0-0.155-0.122-0.288-0.288-0.288h-22.678c0.155,0,0.288,0.122,0.288,0.288v-90.709c0,0.155-0.122,0.288-0.288,0.288h22.678
	c0.154,0,0.288-0.122,0.288-0.288v-90.709c0-0.154-0.122-0.287-0.288-0.287h-22.678c0.155,0,0.288,0.121,0.288,0.287v-90.708
	c0,0.155-0.122,0.288-0.288,0.288h22.678c0.154,0,0.288-0.122,0.288-0.288v-90.709c0-0.155-0.122-0.288-0.288-0.288h-22.678
	c0.155,0,0.288,0.122,0.288,0.288v-90.708c0,0.154-0.122,0.287-0.288,0.287h22.678c0.154,0,0.288-0.121,0.288-0.287v-90.709
	c0-0.155-0.122-0.288-0.288-0.288h-22.678c0.155,0,0.288,0.122,0.288,0.288v-90.709c0,0.155-0.122,0.288-0.288,0.288h22.678
	c0.154,0,0.288-0.122,0.288-0.288V648.49c0-0.154-0.122-0.287-0.288-0.287h-22.678c0.155,0,0.288,0.121,0.288,0.287v-90.708
	c0,0.155-0.122,0.288-0.288,0.288h22.678c0.154,0,0.288-0.122,0.288-0.288v-90.709c0-0.155-0.122-0.288-0.288-0.288h-22.678
	c0.155,0,0.288,0.122,0.288,0.288V296.994c0-0.154-0.122-0.288-0.288-0.288l0,0H1349.58c0.155,0,0.288,0.122,0.288,0.288v-22.677
	c0-0.155-0.122-0.288-0.288-0.288h-90.709c-0.155,0-0.288,0.122-0.288,0.288v22.677c0-0.154,0.122-0.288,0.288-0.288h-90.708
	c0.154,0,0.287,0.122,0.287,0.288v-22.677c0-0.155-0.121-0.288-0.287-0.288h-90.709c-0.155,0-0.288,0.122-0.288,0.288v22.677
	c0-0.154,0.122-0.288,0.288-0.288h-90.709c0.155,0,0.288,0.122,0.288,0.288v-22.677c0-0.155-0.122-0.288-0.288-0.288h-90.709
	c-0.154,0-0.287,0.122-0.287,0.288v22.677c0-0.154,0.121-0.288,0.287-0.288h-90.708c0.155,0,0.288,0.122,0.288,0.288v-22.677
	c0-0.155-0.122-0.288-0.288-0.288h-90.709c-0.155,0-0.288,0.122-0.288,0.288v22.677c0-0.154,0.122-0.288,0.288-0.288H623.91
	c0.155,0,0.288,0.122,0.288,0.288v-22.677c0-0.155-0.121-0.288-0.288-0.288h-90.708c-0.155,0-0.288,0.122-0.288,0.288v22.677
	c0-0.154,0.122-0.288,0.288-0.288h-90.709c0.155,0,0.288,0.122,0.288,0.288v-22.677c0-0.155-0.122-0.288-0.288-0.288h-90.709
	c-0.154,0-0.287,0.122-0.287,0.288v22.677c0-0.154,0.121-0.288,0.287-0.288h-90.709c0.155,0,0.288,0.122,0.288,0.288v-22.677
	c0-0.155-0.121-0.288-0.288-0.288h-90.708c-0.155,0-0.288,0.122-0.288,0.288v22.677c0-0.154,0.122-0.288,0.288-0.288H51.311
	c-0.154,0-0.287,0.122-0.287,0.288l0,0v170.079c0-0.155,0.121-0.288,0.287-0.288H28.635c-0.155,0-0.288,0.122-0.288,0.288v90.709
	c0,0.155,0.122,0.288,0.288,0.288h22.677c-0.154,0-0.287-0.122-0.287-0.288v90.708c0-0.154,0.121-0.287,0.287-0.287H28.635
	c-0.155,0-0.288,0.121-0.288,0.287v90.709c0,0.155,0.122,0.288,0.288,0.288h22.677c-0.154,0-0.287-0.122-0.287-0.288v90.709
	c0-0.155,0.121-0.288,0.287-0.288H28.635c-0.155,0-0.288,0.122-0.288,0.288v90.709c0,0.154,0.122,0.287,0.288,0.287h22.677
	c-0.154,0-0.287-0.121-0.287-0.287v90.708c0-0.155,0.121-0.288,0.287-0.288H28.635c-0.155,0-0.288,0.122-0.288,0.288v90.709
	c0,0.155,0.122,0.288,0.288,0.288h22.677c-0.154,0-0.287-0.122-0.287-0.288v90.708c0-0.154,0.121-0.287,0.287-0.287H28.635
	c-0.155,0-0.288,0.121-0.288,0.287v90.709c0,0.155,0.122,0.288,0.288,0.288h22.677c-0.154,0-0.287-0.122-0.287-0.288v90.709
	c0-0.155,0.121-0.288,0.287-0.288H28.635c-0.155,0-0.288,0.122-0.288,0.288v90.709c0,0.154,0.122,0.287,0.288,0.287h22.677
	c-0.154,0-0.287-0.121-0.287-0.287v90.708c0-0.155,0.121-0.288,0.287-0.288H28.635c-0.155,0-0.288,0.122-0.288,0.288v90.709
	c0,0.155,0.122,0.288,0.288,0.288h22.677c-0.154,0-0.287-0.122-0.287-0.288v90.708c0-0.154,0.121-0.287,0.287-0.287H28.635
	c-0.155,0-0.288,0.121-0.288,0.287v90.709c0,0.155,0.122,0.288,0.288,0.288h22.677c-0.154,0-0.287-0.122-0.287-0.288v170.079
	C51.024,1997.937,51.145,1998.07,51.311,1998.07L51.311,1998.07"/>
<g>
	<g>
		<path fill="none" stroke="#FF0000" stroke-width="0.2" stroke-miterlimit="10" d="M1997.295,2957.585c0,5.295-7.938,5.295-7.938,0
			S1997.295,2952.29,1997.295,2957.585"/>
		<path fill="none" stroke="#FF0000" stroke-width="0.2" stroke-miterlimit="10" d="M2770.025,2953.62c5.293,0,5.293,7.93,0,7.93
			C2764.745,2961.55,2764.745,2953.62,2770.025,2953.62"/>
		<path fill="none" stroke="#FF0000" stroke-width="0.2" stroke-miterlimit="10" d="M2766.06,2685.46c0-5.293,7.929-5.293,7.929,0
			C2773.989,2690.741,2766.06,2690.741,2766.06,2685.46"/>
		<path fill="none" stroke="#FF0000" stroke-width="0.2" stroke-miterlimit="10" d="M1993.333,2689.423
			c-5.293,0-5.293-7.931,0-7.931C1998.614,2681.495,1998.614,2689.423,1993.333,2689.423"/>
		<g>
			
				<text transform="matrix(1 0 0 1 2521.2732 2768.9158)" fill="none" stroke="#FF0000" stroke-width="0.2001" stroke-miterlimit="10" font-family="'MyriadPro-Regular'" font-size="8.7792">Infrared sensor</text>
			
				<text transform="matrix(1 0 0 1 2641.4314 2768.9158)" fill="none" stroke="#FF0000" stroke-width="0.2001" stroke-miterlimit="10" font-family="'MyriadPro-Regular'" font-size="8.7792">Light sensor</text>
			<g>
				
					<rect x="2521.344" y="2773.822" fill="none" stroke="#0000FF" stroke-width="0.2001" stroke-miterlimit="10" width="29.768" height="15.591"/>
				
					<rect x="2641.579" y="2773.822" fill="none" stroke="#0000FF" stroke-width="0.2001" stroke-miterlimit="10" width="29.764" height="15.591"/>
			</g>
		</g>
	</g>
	<g>
		<circle fill="none" stroke="#0000FF" stroke-width="0.2001" stroke-miterlimit="10" cx="2049.79" cy="2707.988" r="8.504"/>
		<circle fill="none" stroke="#0000FF" stroke-width="0.2001" stroke-miterlimit="10" cx="2081.79" cy="2707.988" r="8.504"/>
	</g>
</g>
<g>
	
		<line fill="none" stroke="#010101" stroke-width="0.2" stroke-miterlimit="10" x1="82.722" y1="139.484" x2="1783.51" y2="139.484"/>
	<g>
		
			<line fill="none" stroke="#010101" stroke-width="0.2" stroke-miterlimit="10" x1="82.722" y1="139.484" x2="82.722" y2="111.137"/>
		
			<line fill="none" stroke="#010101" stroke-width="0.2" stroke-miterlimit="10" x1="82.722" y1="111.137" x2="203.589" y2="111.137"/>
	</g>
	<g>
		
			<line fill="none" stroke="#010101" stroke-width="0.2" stroke-miterlimit="10" x1="1783.51" y1="139.484" x2="1783.51" y2="111.137"/>
		<path fill="none" stroke="#010101" stroke-width="0.2" stroke-miterlimit="10" d="M1712.644,111.137"/>
		<path fill="none" stroke="#010101" stroke-width="0.2" stroke-miterlimit="10" d="M1783.51,111.137"/>
	</g>
	<g>
		<g>
			
				<line fill="none" stroke="#010101" stroke-width="0.2" stroke-miterlimit="10" x1="203.589" y1="111.137" x2="203.589" y2="96.965"/>
			
				<line fill="none" stroke="#010101" stroke-width="0.2" stroke-miterlimit="10" x1="203.589" y1="96.965" x2="189.416" y2="96.965"/>
			
				<line fill="none" stroke="#010101" stroke-width="0.2" stroke-miterlimit="10" x1="260.283" y1="111.137" x2="260.283" y2="96.965"/>
			
				<line fill="none" stroke="#010101" stroke-width="0.2" stroke-miterlimit="10" x1="260.283" y1="96.965" x2="274.456" y2="96.965"/>
			
				<line fill="none" stroke="#010101" stroke-width="0.2" stroke-miterlimit="10" x1="274.456" y1="96.965" x2="274.456" y2="82.792"/>
			
				<line fill="none" stroke="#010101" stroke-width="0.2" stroke-miterlimit="10" x1="189.416" y1="96.965" x2="189.416" y2="82.792"/>
			
				<line fill="none" stroke="#010101" stroke-width="0.2" stroke-miterlimit="10" x1="189.417" y1="82.789" x2="274.456" y2="82.789"/>
			
				<line fill="none" stroke="#010101" stroke-width="0.2" stroke-miterlimit="10" x1="260.283" y1="111.137" x2="345.321" y2="111.137"/>
		</g>
		<g>
			
				<line fill="none" stroke="#010101" stroke-width="0.2" stroke-miterlimit="10" x1="345.589" y1="111.139" x2="345.589" y2="96.967"/>
			
				<line fill="none" stroke="#010101" stroke-width="0.2" stroke-miterlimit="10" x1="345.589" y1="96.967" x2="331.416" y2="96.967"/>
			
				<line fill="none" stroke="#010101" stroke-width="0.2" stroke-miterlimit="10" x1="402.283" y1="111.139" x2="402.283" y2="96.967"/>
			
				<line fill="none" stroke="#010101" stroke-width="0.2" stroke-miterlimit="10" x1="402.283" y1="96.967" x2="416.456" y2="96.967"/>
			
				<line fill="none" stroke="#010101" stroke-width="0.2" stroke-miterlimit="10" x1="416.456" y1="96.967" x2="416.456" y2="82.794"/>
			
				<line fill="none" stroke="#010101" stroke-width="0.2" stroke-miterlimit="10" x1="331.416" y1="96.967" x2="331.416" y2="82.794"/>
			
				<line fill="none" stroke="#010101" stroke-width="0.2" stroke-miterlimit="10" x1="331.417" y1="82.79" x2="416.456" y2="82.79"/>
			
				<line fill="none" stroke="#010101" stroke-width="0.2" stroke-miterlimit="10" x1="402.283" y1="111.139" x2="487.321" y2="111.139"/>
		</g>
		<g>
			
				<line fill="none" stroke="#010101" stroke-width="0.2" stroke-miterlimit="10" x1="487.485" y1="111.142" x2="487.485" y2="96.969"/>
			
				<line fill="none" stroke="#010101" stroke-width="0.2" stroke-miterlimit="10" x1="487.485" y1="96.969" x2="473.312" y2="96.969"/>
			
				<line fill="none" stroke="#010101" stroke-width="0.2" stroke-miterlimit="10" x1="544.178" y1="111.142" x2="544.178" y2="96.969"/>
			
				<line fill="none" stroke="#010101" stroke-width="0.2" stroke-miterlimit="10" x1="544.178" y1="96.969" x2="558.352" y2="96.969"/>
			
				<line fill="none" stroke="#010101" stroke-width="0.2" stroke-miterlimit="10" x1="558.352" y1="96.969" x2="558.352" y2="82.797"/>
			
				<line fill="none" stroke="#010101" stroke-width="0.2" stroke-miterlimit="10" x1="473.312" y1="96.969" x2="473.312" y2="82.797"/>
			
				<line fill="none" stroke="#010101" stroke-width="0.2" stroke-miterlimit="10" x1="473.312" y1="82.793" x2="558.352" y2="82.793"/>
			
				<line fill="none" stroke="#010101" stroke-width="0.2" stroke-miterlimit="10" x1="544.178" y1="111.142" x2="629.219" y2="111.142"/>
		</g>
		<g>
			
				<line fill="none" stroke="#010101" stroke-width="0.2" stroke-miterlimit="10" x1="629.15" y1="111.146" x2="629.15" y2="96.973"/>
			
				<line fill="none" stroke="#010101" stroke-width="0.2" stroke-miterlimit="10" x1="629.15" y1="96.973" x2="614.977" y2="96.973"/>
			
				<line fill="none" stroke="#010101" stroke-width="0.2" stroke-miterlimit="10" x1="685.844" y1="111.146" x2="685.844" y2="96.973"/>
			
				<line fill="none" stroke="#010101" stroke-width="0.2" stroke-miterlimit="10" x1="685.844" y1="96.973" x2="700.017" y2="96.973"/>
			
				<line fill="none" stroke="#010101" stroke-width="0.2" stroke-miterlimit="10" x1="700.017" y1="96.973" x2="700.017" y2="82.801"/>
			
				<line fill="none" stroke="#010101" stroke-width="0.2" stroke-miterlimit="10" x1="614.977" y1="96.973" x2="614.977" y2="82.801"/>
			
				<line fill="none" stroke="#010101" stroke-width="0.2" stroke-miterlimit="10" x1="614.978" y1="82.797" x2="700.017" y2="82.797"/>
			
				<line fill="none" stroke="#010101" stroke-width="0.2" stroke-miterlimit="10" x1="685.844" y1="111.146" x2="770.884" y2="111.146"/>
		</g>
		<g>
			<g>
				
					<line fill="none" stroke="#010101" stroke-width="0.2" stroke-miterlimit="10" x1="770.651" y1="111.137" x2="770.651" y2="96.965"/>
				
					<line fill="none" stroke="#010101" stroke-width="0.2" stroke-miterlimit="10" x1="770.651" y1="96.965" x2="756.478" y2="96.965"/>
				
					<line fill="none" stroke="#010101" stroke-width="0.2" stroke-miterlimit="10" x1="827.344" y1="111.137" x2="827.344" y2="96.965"/>
				
					<line fill="none" stroke="#010101" stroke-width="0.2" stroke-miterlimit="10" x1="827.344" y1="96.965" x2="841.517" y2="96.965"/>
				
					<line fill="none" stroke="#010101" stroke-width="0.2" stroke-miterlimit="10" x1="841.517" y1="96.965" x2="841.517" y2="82.792"/>
				
					<line fill="none" stroke="#010101" stroke-width="0.2" stroke-miterlimit="10" x1="756.478" y1="96.965" x2="756.478" y2="82.792"/>
				
					<line fill="none" stroke="#010101" stroke-width="0.2" stroke-miterlimit="10" x1="756.478" y1="82.788" x2="841.517" y2="82.788"/>
				
					<line fill="none" stroke="#010101" stroke-width="0.2" stroke-miterlimit="10" x1="827.344" y1="111.137" x2="912.385" y2="111.137"/>
			</g>
			<g>
				
					<line fill="none" stroke="#010101" stroke-width="0.2" stroke-miterlimit="10" x1="912.651" y1="111.139" x2="912.651" y2="96.967"/>
				
					<line fill="none" stroke="#010101" stroke-width="0.2" stroke-miterlimit="10" x1="912.651" y1="96.967" x2="898.478" y2="96.967"/>
				
					<line fill="none" stroke="#010101" stroke-width="0.2" stroke-miterlimit="10" x1="969.344" y1="111.139" x2="969.344" y2="96.967"/>
				
					<line fill="none" stroke="#010101" stroke-width="0.2" stroke-miterlimit="10" x1="969.344" y1="96.967" x2="983.517" y2="96.967"/>
				
					<line fill="none" stroke="#010101" stroke-width="0.2" stroke-miterlimit="10" x1="983.517" y1="96.967" x2="983.517" y2="82.794"/>
				
					<line fill="none" stroke="#010101" stroke-width="0.2" stroke-miterlimit="10" x1="898.478" y1="96.967" x2="898.478" y2="82.794"/>
				
					<line fill="none" stroke="#010101" stroke-width="0.2" stroke-miterlimit="10" x1="898.478" y1="82.79" x2="983.517" y2="82.79"/>
				
					<line fill="none" stroke="#010101" stroke-width="0.2" stroke-miterlimit="10" x1="969.344" y1="111.139" x2="1054.385" y2="111.139"/>
			</g>
			<g>
				
					<line fill="none" stroke="#010101" stroke-width="0.2" stroke-miterlimit="10" x1="1054.131" y1="111.14" x2="1054.131" y2="96.968"/>
				
					<line fill="none" stroke="#010101" stroke-width="0.2" stroke-miterlimit="10" x1="1054.131" y1="96.968" x2="1039.958" y2="96.968"/>
				
					<line fill="none" stroke="#010101" stroke-width="0.2" stroke-miterlimit="10" x1="1110.824" y1="111.14" x2="1110.824" y2="96.968"/>
				
					<line fill="none" stroke="#010101" stroke-width="0.2" stroke-miterlimit="10" x1="1110.824" y1="96.968" x2="1124.999" y2="96.968"/>
				
					<line fill="none" stroke="#010101" stroke-width="0.2" stroke-miterlimit="10" x1="1124.999" y1="96.968" x2="1124.999" y2="82.795"/>
				
					<line fill="none" stroke="#010101" stroke-width="0.2" stroke-miterlimit="10" x1="1039.958" y1="96.968" x2="1039.958" y2="82.795"/>
				
					<line fill="none" stroke="#010101" stroke-width="0.2" stroke-miterlimit="10" x1="1039.959" y1="82.791" x2="1124.999" y2="82.791"/>
				
					<line fill="none" stroke="#010101" stroke-width="0.2" stroke-miterlimit="10" x1="1110.824" y1="111.14" x2="1195.863" y2="111.14"/>
			</g>
			<g>
				
					<line fill="none" stroke="#010101" stroke-width="0.2" stroke-miterlimit="10" x1="1196.131" y1="111.142" x2="1196.131" y2="96.969"/>
				
					<line fill="none" stroke="#010101" stroke-width="0.2" stroke-miterlimit="10" x1="1196.131" y1="96.969" x2="1181.958" y2="96.969"/>
				
					<line fill="none" stroke="#010101" stroke-width="0.2" stroke-miterlimit="10" x1="1252.824" y1="111.142" x2="1252.824" y2="96.969"/>
				
					<line fill="none" stroke="#010101" stroke-width="0.2" stroke-miterlimit="10" x1="1252.824" y1="96.969" x2="1266.999" y2="96.969"/>
				
					<line fill="none" stroke="#010101" stroke-width="0.2" stroke-miterlimit="10" x1="1266.999" y1="96.969" x2="1266.999" y2="82.797"/>
				
					<line fill="none" stroke="#010101" stroke-width="0.2" stroke-miterlimit="10" x1="1181.958" y1="96.969" x2="1181.958" y2="82.797"/>
				
					<line fill="none" stroke="#010101" stroke-width="0.2" stroke-miterlimit="10" x1="1181.959" y1="82.793" x2="1266.999" y2="82.793"/>
				
					<line fill="none" stroke="#010101" stroke-width="0.2" stroke-miterlimit="10" x1="1252.824" y1="111.142" x2="1337.863" y2="111.142"/>
			</g>
		</g>
		<g>
			<g>
				
					<line fill="none" stroke="#010101" stroke-width="0.2" stroke-miterlimit="10" x1="1337.756" y1="111.14" x2="1337.756" y2="96.968"/>
				
					<line fill="none" stroke="#010101" stroke-width="0.2" stroke-miterlimit="10" x1="1337.756" y1="96.968" x2="1323.583" y2="96.968"/>
				
					<line fill="none" stroke="#010101" stroke-width="0.2" stroke-miterlimit="10" x1="1394.449" y1="111.14" x2="1394.449" y2="96.968"/>
				
					<line fill="none" stroke="#010101" stroke-width="0.2" stroke-miterlimit="10" x1="1394.449" y1="96.968" x2="1408.624" y2="96.968"/>
				
					<line fill="none" stroke="#010101" stroke-width="0.2" stroke-miterlimit="10" x1="1408.624" y1="96.968" x2="1408.624" y2="82.795"/>
				
					<line fill="none" stroke="#010101" stroke-width="0.2" stroke-miterlimit="10" x1="1323.583" y1="96.968" x2="1323.583" y2="82.795"/>
				
					<line fill="none" stroke="#010101" stroke-width="0.2" stroke-miterlimit="10" x1="1323.584" y1="82.791" x2="1408.624" y2="82.791"/>
				
					<line fill="none" stroke="#010101" stroke-width="0.2" stroke-miterlimit="10" x1="1394.449" y1="111.14" x2="1479.488" y2="111.14"/>
			</g>
			<g>
				
					<line fill="none" stroke="#010101" stroke-width="0.2" stroke-miterlimit="10" x1="1479.756" y1="111.142" x2="1479.756" y2="96.969"/>
				
					<line fill="none" stroke="#010101" stroke-width="0.2" stroke-miterlimit="10" x1="1479.756" y1="96.969" x2="1465.583" y2="96.969"/>
				
					<line fill="none" stroke="#010101" stroke-width="0.2" stroke-miterlimit="10" x1="1536.449" y1="111.142" x2="1536.449" y2="96.969"/>
				
					<line fill="none" stroke="#010101" stroke-width="0.2" stroke-miterlimit="10" x1="1536.449" y1="96.969" x2="1550.624" y2="96.969"/>
				
					<line fill="none" stroke="#010101" stroke-width="0.2" stroke-miterlimit="10" x1="1550.624" y1="96.969" x2="1550.624" y2="82.797"/>
				
					<line fill="none" stroke="#010101" stroke-width="0.2" stroke-miterlimit="10" x1="1465.583" y1="96.969" x2="1465.583" y2="82.797"/>
				
					<line fill="none" stroke="#010101" stroke-width="0.2" stroke-miterlimit="10" x1="1465.584" y1="82.793" x2="1550.624" y2="82.793"/>
				
					<line fill="none" stroke="#010101" stroke-width="0.2" stroke-miterlimit="10" x1="1536.449" y1="111.142" x2="1621.488" y2="111.142"/>
			</g>
			<g>
				
					<line fill="none" stroke="#010101" stroke-width="0.2" stroke-miterlimit="10" x1="1621.235" y1="111.143" x2="1621.235" y2="96.97"/>
				
					<line fill="none" stroke="#010101" stroke-width="0.2" stroke-miterlimit="10" x1="1621.235" y1="96.97" x2="1607.062" y2="96.97"/>
				
					<line fill="none" stroke="#010101" stroke-width="0.2" stroke-miterlimit="10" x1="1677.928" y1="111.143" x2="1677.928" y2="96.97"/>
				
					<line fill="none" stroke="#010101" stroke-width="0.2" stroke-miterlimit="10" x1="1677.928" y1="96.97" x2="1692.101" y2="96.97"/>
				
					<line fill="none" stroke="#010101" stroke-width="0.2" stroke-miterlimit="10" x1="1692.101" y1="96.97" x2="1692.101" y2="82.798"/>
				
					<line fill="none" stroke="#010101" stroke-width="0.2" stroke-miterlimit="10" x1="1607.062" y1="96.97" x2="1607.062" y2="82.798"/>
				
					<line fill="none" stroke="#010101" stroke-width="0.2" stroke-miterlimit="10" x1="1607.062" y1="82.794" x2="1692.101" y2="82.794"/>
				<path fill="none" stroke="#010101" stroke-width="0.2" stroke-miterlimit="10" d="M1677.928,111.143"/>
			</g>
		</g>
	</g>
	
		<line fill="none" stroke="#010101" stroke-width="0.2" stroke-miterlimit="10" x1="1677.928" y1="111.143" x2="1783.51" y2="111.143"/>
</g>
<g>
	<g>
		
			<line fill="none" stroke="#010101" stroke-width="0.2" stroke-miterlimit="10" x1="81.722" y1="152.86" x2="1783.51" y2="152.86"/>
		<g>
			
				<line fill="none" stroke="#010101" stroke-width="0.2" stroke-miterlimit="10" x1="81.722" y1="152.86" x2="81.722" y2="181.208"/>
			
				<line fill="none" stroke="#010101" stroke-width="0.2" stroke-miterlimit="10" x1="81.722" y1="181.208" x2="132.589" y2="181.208"/>
		</g>
		<g>
			
				<line fill="none" stroke="#010101" stroke-width="0.2" stroke-miterlimit="10" x1="1783.51" y1="152.86" x2="1783.51" y2="181.208"/>
			<path fill="none" stroke="#010101" stroke-width="0.2" stroke-miterlimit="10" d="M1641.644,181.208"/>
			<path fill="none" stroke="#010101" stroke-width="0.2" stroke-miterlimit="10" d="M1712.51,181.208"/>
		</g>
		<g>
			<g>
				
					<line fill="none" stroke="#010101" stroke-width="0.2" stroke-miterlimit="10" x1="132.589" y1="181.208" x2="132.589" y2="195.381"/>
				
					<line fill="none" stroke="#010101" stroke-width="0.2" stroke-miterlimit="10" x1="132.589" y1="195.381" x2="118.416" y2="195.381"/>
				
					<line fill="none" stroke="#010101" stroke-width="0.2" stroke-miterlimit="10" x1="189.283" y1="181.208" x2="189.283" y2="195.381"/>
				
					<line fill="none" stroke="#010101" stroke-width="0.2" stroke-miterlimit="10" x1="189.283" y1="195.381" x2="203.456" y2="195.381"/>
				
					<line fill="none" stroke="#010101" stroke-width="0.2" stroke-miterlimit="10" x1="203.456" y1="195.381" x2="203.456" y2="209.553"/>
				
					<line fill="none" stroke="#010101" stroke-width="0.2" stroke-miterlimit="10" x1="118.416" y1="195.381" x2="118.416" y2="209.553"/>
				
					<line fill="none" stroke="#010101" stroke-width="0.2" stroke-miterlimit="10" x1="118.417" y1="209.557" x2="203.456" y2="209.557"/>
				
					<line fill="none" stroke="#010101" stroke-width="0.2" stroke-miterlimit="10" x1="189.283" y1="181.208" x2="274.321" y2="181.208"/>
			</g>
			<g>
				
					<line fill="none" stroke="#010101" stroke-width="0.2" stroke-miterlimit="10" x1="274.589" y1="181.206" x2="274.589" y2="195.379"/>
				
					<line fill="none" stroke="#010101" stroke-width="0.2" stroke-miterlimit="10" x1="274.589" y1="195.379" x2="260.416" y2="195.379"/>
				
					<line fill="none" stroke="#010101" stroke-width="0.2" stroke-miterlimit="10" x1="331.283" y1="181.206" x2="331.283" y2="195.379"/>
				
					<line fill="none" stroke="#010101" stroke-width="0.2" stroke-miterlimit="10" x1="331.283" y1="195.379" x2="345.456" y2="195.379"/>
				
					<line fill="none" stroke="#010101" stroke-width="0.2" stroke-miterlimit="10" x1="345.456" y1="195.379" x2="345.456" y2="209.552"/>
				
					<line fill="none" stroke="#010101" stroke-width="0.2" stroke-miterlimit="10" x1="260.416" y1="195.379" x2="260.416" y2="209.552"/>
				
					<line fill="none" stroke="#010101" stroke-width="0.2" stroke-miterlimit="10" x1="260.417" y1="209.555" x2="345.456" y2="209.555"/>
				
					<line fill="none" stroke="#010101" stroke-width="0.2" stroke-miterlimit="10" x1="331.283" y1="181.206" x2="416.321" y2="181.206"/>
			</g>
			<g>
				
					<line fill="none" stroke="#010101" stroke-width="0.2" stroke-miterlimit="10" x1="416.485" y1="181.203" x2="416.485" y2="195.376"/>
				
					<line fill="none" stroke="#010101" stroke-width="0.2" stroke-miterlimit="10" x1="416.485" y1="195.376" x2="402.312" y2="195.376"/>
				
					<line fill="none" stroke="#010101" stroke-width="0.2" stroke-miterlimit="10" x1="473.178" y1="181.203" x2="473.178" y2="195.376"/>
				
					<line fill="none" stroke="#010101" stroke-width="0.2" stroke-miterlimit="10" x1="473.178" y1="195.376" x2="487.352" y2="195.376"/>
				
					<line fill="none" stroke="#010101" stroke-width="0.2" stroke-miterlimit="10" x1="487.352" y1="195.376" x2="487.352" y2="209.549"/>
				
					<line fill="none" stroke="#010101" stroke-width="0.2" stroke-miterlimit="10" x1="402.312" y1="195.376" x2="402.312" y2="209.549"/>
				
					<line fill="none" stroke="#010101" stroke-width="0.2" stroke-miterlimit="10" x1="402.312" y1="209.552" x2="487.352" y2="209.552"/>
				
					<line fill="none" stroke="#010101" stroke-width="0.2" stroke-miterlimit="10" x1="473.178" y1="181.203" x2="558.219" y2="181.203"/>
			</g>
			<g>
				
					<line fill="none" stroke="#010101" stroke-width="0.2" stroke-miterlimit="10" x1="558.15" y1="181.199" x2="558.15" y2="195.372"/>
				
					<line fill="none" stroke="#010101" stroke-width="0.2" stroke-miterlimit="10" x1="558.15" y1="195.372" x2="543.977" y2="195.372"/>
				
					<line fill="none" stroke="#010101" stroke-width="0.2" stroke-miterlimit="10" x1="614.844" y1="181.199" x2="614.844" y2="195.372"/>
				
					<line fill="none" stroke="#010101" stroke-width="0.2" stroke-miterlimit="10" x1="614.844" y1="195.372" x2="629.017" y2="195.372"/>
				
					<line fill="none" stroke="#010101" stroke-width="0.2" stroke-miterlimit="10" x1="629.017" y1="195.372" x2="629.017" y2="209.545"/>
				
					<line fill="none" stroke="#010101" stroke-width="0.2" stroke-miterlimit="10" x1="543.977" y1="195.372" x2="543.977" y2="209.545"/>
				
					<line fill="none" stroke="#010101" stroke-width="0.2" stroke-miterlimit="10" x1="543.978" y1="209.549" x2="629.017" y2="209.549"/>
				
					<line fill="none" stroke="#010101" stroke-width="0.2" stroke-miterlimit="10" x1="614.844" y1="181.199" x2="699.884" y2="181.199"/>
			</g>
			<g>
				<g>
					
						<line fill="none" stroke="#010101" stroke-width="0.2" stroke-miterlimit="10" x1="699.651" y1="181.208" x2="699.651" y2="195.381"/>
					
						<line fill="none" stroke="#010101" stroke-width="0.2" stroke-miterlimit="10" x1="699.651" y1="195.381" x2="685.478" y2="195.381"/>
					
						<line fill="none" stroke="#010101" stroke-width="0.2" stroke-miterlimit="10" x1="756.344" y1="181.208" x2="756.344" y2="195.381"/>
					
						<line fill="none" stroke="#010101" stroke-width="0.2" stroke-miterlimit="10" x1="756.344" y1="195.381" x2="770.518" y2="195.381"/>
					
						<line fill="none" stroke="#010101" stroke-width="0.2" stroke-miterlimit="10" x1="770.518" y1="195.381" x2="770.518" y2="209.553"/>
					
						<line fill="none" stroke="#010101" stroke-width="0.2" stroke-miterlimit="10" x1="685.478" y1="195.381" x2="685.478" y2="209.553"/>
					
						<line fill="none" stroke="#010101" stroke-width="0.2" stroke-miterlimit="10" x1="685.478" y1="209.557" x2="770.518" y2="209.557"/>
					
						<line fill="none" stroke="#010101" stroke-width="0.2" stroke-miterlimit="10" x1="756.344" y1="181.208" x2="841.385" y2="181.208"/>
				</g>
				<g>
					
						<line fill="none" stroke="#010101" stroke-width="0.2" stroke-miterlimit="10" x1="841.651" y1="181.206" x2="841.651" y2="195.379"/>
					
						<line fill="none" stroke="#010101" stroke-width="0.2" stroke-miterlimit="10" x1="841.651" y1="195.379" x2="827.478" y2="195.379"/>
					
						<line fill="none" stroke="#010101" stroke-width="0.2" stroke-miterlimit="10" x1="898.344" y1="181.206" x2="898.344" y2="195.379"/>
					
						<line fill="none" stroke="#010101" stroke-width="0.2" stroke-miterlimit="10" x1="898.344" y1="195.379" x2="912.518" y2="195.379"/>
					
						<line fill="none" stroke="#010101" stroke-width="0.2" stroke-miterlimit="10" x1="912.518" y1="195.379" x2="912.518" y2="209.552"/>
					
						<line fill="none" stroke="#010101" stroke-width="0.2" stroke-miterlimit="10" x1="827.478" y1="195.379" x2="827.478" y2="209.552"/>
					
						<line fill="none" stroke="#010101" stroke-width="0.2" stroke-miterlimit="10" x1="827.478" y1="209.555" x2="912.518" y2="209.555"/>
					
						<line fill="none" stroke="#010101" stroke-width="0.2" stroke-miterlimit="10" x1="898.344" y1="181.206" x2="983.385" y2="181.206"/>
				</g>
				<g>
					
						<line fill="none" stroke="#010101" stroke-width="0.2" stroke-miterlimit="10" x1="983.131" y1="181.206" x2="983.131" y2="195.378"/>
					
						<line fill="none" stroke="#010101" stroke-width="0.2" stroke-miterlimit="10" x1="983.131" y1="195.378" x2="968.958" y2="195.378"/>
					
						<line fill="none" stroke="#010101" stroke-width="0.2" stroke-miterlimit="10" x1="1039.824" y1="181.206" x2="1039.824" y2="195.378"/>
					
						<line fill="none" stroke="#010101" stroke-width="0.2" stroke-miterlimit="10" x1="1039.824" y1="195.378" x2="1053.998" y2="195.378"/>
					
						<line fill="none" stroke="#010101" stroke-width="0.2" stroke-miterlimit="10" x1="1053.998" y1="195.378" x2="1053.998" y2="209.551"/>
					
						<line fill="none" stroke="#010101" stroke-width="0.2" stroke-miterlimit="10" x1="968.958" y1="195.378" x2="968.958" y2="209.551"/>
					
						<line fill="none" stroke="#010101" stroke-width="0.2" stroke-miterlimit="10" x1="968.959" y1="209.554" x2="1053.998" y2="209.554"/>
					
						<line fill="none" stroke="#010101" stroke-width="0.2" stroke-miterlimit="10" x1="1039.824" y1="181.206" x2="1124.863" y2="181.206"/>
				</g>
				<g>
					
						<line fill="none" stroke="#010101" stroke-width="0.2" stroke-miterlimit="10" x1="1125.131" y1="181.204" x2="1125.131" y2="195.376"/>
					
						<line fill="none" stroke="#010101" stroke-width="0.2" stroke-miterlimit="10" x1="1125.131" y1="195.376" x2="1110.958" y2="195.376"/>
					
						<line fill="none" stroke="#010101" stroke-width="0.2" stroke-miterlimit="10" x1="1181.824" y1="181.204" x2="1181.824" y2="195.376"/>
					
						<line fill="none" stroke="#010101" stroke-width="0.2" stroke-miterlimit="10" x1="1181.824" y1="195.376" x2="1195.998" y2="195.376"/>
					
						<line fill="none" stroke="#010101" stroke-width="0.2" stroke-miterlimit="10" x1="1195.998" y1="195.376" x2="1195.998" y2="209.549"/>
					
						<line fill="none" stroke="#010101" stroke-width="0.2" stroke-miterlimit="10" x1="1110.958" y1="195.376" x2="1110.958" y2="209.549"/>
					
						<line fill="none" stroke="#010101" stroke-width="0.2" stroke-miterlimit="10" x1="1110.959" y1="209.552" x2="1195.998" y2="209.552"/>
					
						<line fill="none" stroke="#010101" stroke-width="0.2" stroke-miterlimit="10" x1="1181.824" y1="181.204" x2="1266.863" y2="181.204"/>
				</g>
			</g>
			<g>
				<g>
					
						<line fill="none" stroke="#010101" stroke-width="0.2" stroke-miterlimit="10" x1="1266.756" y1="181.205" x2="1266.756" y2="195.378"/>
					
						<line fill="none" stroke="#010101" stroke-width="0.2" stroke-miterlimit="10" x1="1266.756" y1="195.378" x2="1252.583" y2="195.378"/>
					
						<line fill="none" stroke="#010101" stroke-width="0.2" stroke-miterlimit="10" x1="1323.449" y1="181.205" x2="1323.449" y2="195.378"/>
					
						<line fill="none" stroke="#010101" stroke-width="0.2" stroke-miterlimit="10" x1="1323.449" y1="195.378" x2="1337.623" y2="195.378"/>
					
						<line fill="none" stroke="#010101" stroke-width="0.2" stroke-miterlimit="10" x1="1337.623" y1="195.378" x2="1337.623" y2="209.551"/>
					
						<line fill="none" stroke="#010101" stroke-width="0.2" stroke-miterlimit="10" x1="1252.583" y1="195.378" x2="1252.583" y2="209.551"/>
					
						<line fill="none" stroke="#010101" stroke-width="0.2" stroke-miterlimit="10" x1="1252.584" y1="209.554" x2="1337.623" y2="209.554"/>
					
						<line fill="none" stroke="#010101" stroke-width="0.2" stroke-miterlimit="10" x1="1323.449" y1="181.205" x2="1408.488" y2="181.205"/>
				</g>
				<g>
					
						<line fill="none" stroke="#010101" stroke-width="0.2" stroke-miterlimit="10" x1="1408.756" y1="181.203" x2="1408.756" y2="195.376"/>
					
						<line fill="none" stroke="#010101" stroke-width="0.2" stroke-miterlimit="10" x1="1408.756" y1="195.376" x2="1394.583" y2="195.376"/>
					
						<line fill="none" stroke="#010101" stroke-width="0.2" stroke-miterlimit="10" x1="1465.449" y1="181.203" x2="1465.449" y2="195.376"/>
					
						<line fill="none" stroke="#010101" stroke-width="0.2" stroke-miterlimit="10" x1="1465.449" y1="195.376" x2="1479.623" y2="195.376"/>
					
						<line fill="none" stroke="#010101" stroke-width="0.2" stroke-miterlimit="10" x1="1479.623" y1="195.376" x2="1479.623" y2="209.549"/>
					
						<line fill="none" stroke="#010101" stroke-width="0.2" stroke-miterlimit="10" x1="1394.583" y1="195.376" x2="1394.583" y2="209.549"/>
					
						<line fill="none" stroke="#010101" stroke-width="0.2" stroke-miterlimit="10" x1="1394.584" y1="209.552" x2="1479.623" y2="209.552"/>
					
						<line fill="none" stroke="#010101" stroke-width="0.2" stroke-miterlimit="10" x1="1465.449" y1="181.203" x2="1550.488" y2="181.203"/>
				</g>
				<g>
					
						<line fill="none" stroke="#010101" stroke-width="0.2" stroke-miterlimit="10" x1="1550.235" y1="181.202" x2="1550.235" y2="195.375"/>
					
						<line fill="none" stroke="#010101" stroke-width="0.2" stroke-miterlimit="10" x1="1550.235" y1="195.375" x2="1536.062" y2="195.375"/>
					
						<line fill="none" stroke="#010101" stroke-width="0.2" stroke-miterlimit="10" x1="1606.928" y1="181.202" x2="1606.928" y2="195.375"/>
					
						<line fill="none" stroke="#010101" stroke-width="0.2" stroke-miterlimit="10" x1="1606.928" y1="195.375" x2="1621.102" y2="195.375"/>
					
						<line fill="none" stroke="#010101" stroke-width="0.2" stroke-miterlimit="10" x1="1621.102" y1="195.375" x2="1621.102" y2="209.548"/>
					
						<line fill="none" stroke="#010101" stroke-width="0.2" stroke-miterlimit="10" x1="1536.062" y1="195.375" x2="1536.062" y2="209.548"/>
					
						<line fill="none" stroke="#010101" stroke-width="0.2" stroke-miterlimit="10" x1="1536.062" y1="209.552" x2="1621.102" y2="209.552"/>
					<path fill="none" stroke="#010101" stroke-width="0.2" stroke-miterlimit="10" d="M1606.928,181.202"/>
				</g>
			</g>
		</g>
		<path fill="none" stroke="#010101" stroke-width="0.2" stroke-miterlimit="10" d="M1712.51,181.202"/>
		<path fill="none" stroke="#010101" stroke-width="0.2" stroke-miterlimit="10" d="M1606.928,181.202"/>
	</g>
	
		<line fill="none" stroke="#010101" stroke-width="0.2" stroke-miterlimit="10" x1="1606.928" y1="181.202" x2="1692.488" y2="181.203"/>
	
		<line fill="none" stroke="#010101" stroke-width="0.2" stroke-miterlimit="10" x1="1692.235" y1="181.202" x2="1692.235" y2="195.375"/>
	
		<line fill="none" stroke="#010101" stroke-width="0.2" stroke-miterlimit="10" x1="1692.235" y1="195.375" x2="1678.062" y2="195.375"/>
	
		<line fill="none" stroke="#010101" stroke-width="0.2" stroke-miterlimit="10" x1="1748.928" y1="181.202" x2="1748.928" y2="195.375"/>
	
		<line fill="none" stroke="#010101" stroke-width="0.2" stroke-miterlimit="10" x1="1748.928" y1="195.375" x2="1763.102" y2="195.375"/>
	
		<line fill="none" stroke="#010101" stroke-width="0.2" stroke-miterlimit="10" x1="1763.102" y1="195.375" x2="1763.102" y2="209.548"/>
	
		<line fill="none" stroke="#010101" stroke-width="0.2" stroke-miterlimit="10" x1="1678.062" y1="195.375" x2="1678.062" y2="209.548"/>
	
		<line fill="none" stroke="#010101" stroke-width="0.2" stroke-miterlimit="10" x1="1678.062" y1="209.552" x2="1763.102" y2="209.552"/>
	
		<line fill="none" stroke="#010101" stroke-width="0.2" stroke-miterlimit="10" x1="1748.928" y1="181.208" x2="1783.51" y2="181.208"/>
</g>
</svg>
